<?xml version="1.0" encoding="UTF-8"?>
<svg version="1.1" xmlns="http://www.w3.org/2000/svg" width="200" height="217">
<path d="M0 0 C1.22009766 -0.00386719 2.44019531 -0.00773437 3.69726562 -0.01171875 C15.33412612 0.00065431 26.64812879 0.68241105 38.0625 3 C38.97193359 3.18071045 39.88136719 3.3614209 40.81835938 3.54760742 C42.6089377 3.90651961 44.39870056 4.26953155 46.1875 4.63720703 C48.14354964 5.03895325 50.10265118 5.42581078 52.0625 5.80859375 C58.80795499 7.22268002 65.3297161 9.23895366 71.875 11.375 C72.69226563 11.63837158 73.50953125 11.90174316 74.3515625 12.1730957 C80.01390089 14.0724668 85.4608798 16.34448953 90.91870117 18.75683594 C91.6561129 19.08118622 92.39352463 19.4055365 93.15328217 19.73971558 C94.95700525 20.53333364 96.75984365 21.32896189 98.5625 22.125 C98.60943514 32.1066454 98.64467267 42.08826333 98.66612434 52.06999779 C98.67643489 56.70800122 98.69035196 61.34592761 98.71337891 65.98388672 C99.09147838 144.28110221 99.09147838 144.28110221 73.51953125 170.1953125 C68.87641758 174.49868615 63.81993423 178.28169747 58.75 182.0625 C58.10337402 182.54783203 57.45674805 183.03316406 56.79052734 183.53320312 C56.17258301 183.98501953 55.55463867 184.43683594 54.91796875 184.90234375 C54.09268677 185.50937134 54.09268677 185.50937134 53.25073242 186.12866211 C51.37981338 187.23281548 49.68301018 187.69731221 47.5625 188.125 C47.5625 188.785 47.5625 189.445 47.5625 190.125 C45.67578125 191.4296875 45.67578125 191.4296875 42.875 193 C41.78832031 193.61617187 40.70164063 194.23234375 39.58203125 194.8671875 C38.95506348 195.2187793 38.3280957 195.57037109 37.68212891 195.93261719 C34.3827249 197.78867445 31.09883049 199.67170537 27.81347656 201.55249023 C25.97738674 202.60203359 24.13948657 203.64841615 22.29980469 204.69165039 C18.41241219 206.89905894 14.53899639 209.10875644 10.75390625 211.48828125 C9.72136719 212.13152344 8.68882813 212.77476562 7.625 213.4375 C6.34302734 214.26701172 6.34302734 214.26701172 5.03515625 215.11328125 C1.632457 216.50553892 0.09713354 216.18370289 -3.4375 215.125 C-6.67821692 213.62001962 -9.77127847 211.8926805 -12.875 210.125 C-13.75953857 209.6287915 -14.64407715 209.13258301 -15.55541992 208.62133789 C-18.19049311 207.13561273 -20.81602295 205.63456701 -23.4375 204.125 C-24.14745117 203.71620605 -24.85740234 203.30741211 -25.58886719 202.88623047 C-42.88823597 192.85294033 -59.83803429 181.8469022 -74.4375 168.125 C-75.324375 167.320625 -76.21125 166.51625 -77.125 165.6875 C-96.53439451 144.17979257 -97.78397382 118.77957992 -97.6328125 91.2421875 C-97.62907081 89.20525249 -97.62622932 87.16831565 -97.62423706 85.13137817 C-97.61669145 79.83464367 -97.59712377 74.53802322 -97.5748291 69.24133301 C-97.55417232 63.81064394 -97.54519344 58.37993599 -97.53515625 52.94921875 C-97.51386699 42.3410964 -97.47984428 31.73305778 -97.4375 21.125 C-96.34195801 20.71507813 -95.24641602 20.30515625 -94.11767578 19.8828125 C-92.66438112 19.3385601 -91.21109374 18.79428824 -89.7578125 18.25 C-89.03762939 17.98058594 -88.31744629 17.71117188 -87.57543945 17.43359375 C-83.81056866 16.02311103 -80.05647343 14.5902673 -76.3125 13.125 C-63.50343601 8.52982009 -50.18363117 5.26698074 -36.8125 2.8125 C-35.94971436 2.65330078 -35.08692871 2.49410156 -34.19799805 2.33007812 C-22.82318028 0.35203838 -11.52748679 -0.03642176 0 0 Z " fill="#D30301" transform="translate(99.4375,-0.125)"/>
<path d="M0 0 C1.22009766 -0.00386719 2.44019531 -0.00773437 3.69726562 -0.01171875 C15.33412612 0.00065431 26.64812879 0.68241105 38.0625 3 C38.97193359 3.18071045 39.88136719 3.3614209 40.81835938 3.54760742 C42.6089377 3.90651961 44.39870056 4.26953155 46.1875 4.63720703 C48.14354964 5.03895325 50.10265118 5.42581078 52.0625 5.80859375 C58.80795499 7.22268002 65.3297161 9.23895366 71.875 11.375 C72.69226563 11.63837158 73.50953125 11.90174316 74.3515625 12.1730957 C80.01390089 14.0724668 85.4608798 16.34448953 90.91870117 18.75683594 C91.6561129 19.08118622 92.39352463 19.4055365 93.15328217 19.73971558 C94.95700525 20.53333364 96.75984365 21.32896189 98.5625 22.125 C98.60943514 32.1066454 98.64467267 42.08826333 98.66612434 52.06999779 C98.67643489 56.70800122 98.69035196 61.34592761 98.71337891 65.98388672 C99.09147838 144.28110221 99.09147838 144.28110221 73.51953125 170.1953125 C68.87641758 174.49868615 63.81993423 178.28169747 58.75 182.0625 C58.10337402 182.54783203 57.45674805 183.03316406 56.79052734 183.53320312 C56.17258301 183.98501953 55.55463867 184.43683594 54.91796875 184.90234375 C54.09268677 185.50937134 54.09268677 185.50937134 53.25073242 186.12866211 C51.37981338 187.23281548 49.68301018 187.69731221 47.5625 188.125 C47.5625 188.785 47.5625 189.445 47.5625 190.125 C45.67578125 191.4296875 45.67578125 191.4296875 42.875 193 C41.78832031 193.61617187 40.70164063 194.23234375 39.58203125 194.8671875 C38.95506348 195.2187793 38.3280957 195.57037109 37.68212891 195.93261719 C34.3827249 197.78867445 31.09883049 199.67170537 27.81347656 201.55249023 C25.97738674 202.60203359 24.13948657 203.64841615 22.29980469 204.69165039 C18.41241219 206.89905894 14.53899639 209.10875644 10.75390625 211.48828125 C9.72136719 212.13152344 8.68882813 212.77476562 7.625 213.4375 C6.34302734 214.26701172 6.34302734 214.26701172 5.03515625 215.11328125 C1.632457 216.50553892 0.09713354 216.18370289 -3.4375 215.125 C-6.67821692 213.62001962 -9.77127847 211.8926805 -12.875 210.125 C-13.75953857 209.6287915 -14.64407715 209.13258301 -15.55541992 208.62133789 C-18.19049311 207.13561273 -20.81602295 205.63456701 -23.4375 204.125 C-24.14745117 203.71620605 -24.85740234 203.30741211 -25.58886719 202.88623047 C-42.88823597 192.85294033 -59.83803429 181.8469022 -74.4375 168.125 C-75.324375 167.320625 -76.21125 166.51625 -77.125 165.6875 C-96.53439451 144.17979257 -97.78397382 118.77957992 -97.6328125 91.2421875 C-97.62907081 89.20525249 -97.62622932 87.16831565 -97.62423706 85.13137817 C-97.61669145 79.83464367 -97.59712377 74.53802322 -97.5748291 69.24133301 C-97.55417232 63.81064394 -97.54519344 58.37993599 -97.53515625 52.94921875 C-97.51386699 42.3410964 -97.47984428 31.73305778 -97.4375 21.125 C-96.34195801 20.71507813 -95.24641602 20.30515625 -94.11767578 19.8828125 C-92.66438112 19.3385601 -91.21109374 18.79428824 -89.7578125 18.25 C-89.03762939 17.98058594 -88.31744629 17.71117188 -87.57543945 17.43359375 C-83.81056866 16.02311103 -80.05647343 14.5902673 -76.3125 13.125 C-63.50343601 8.52982009 -50.18363117 5.26698074 -36.8125 2.8125 C-35.94971436 2.65330078 -35.08692871 2.49410156 -34.19799805 2.33007812 C-22.82318028 0.35203838 -11.52748679 -0.03642176 0 0 Z M-88.4375 27.125 C-88.54873005 29.90650053 -88.59489939 32.66339446 -88.59863281 35.44580078 C-88.60359772 36.31918091 -88.60856262 37.19256104 -88.61367798 38.09240723 C-88.62835876 41.00171689 -88.6351165 43.91097177 -88.640625 46.8203125 C-88.646378 48.84561159 -88.65213572 50.87091066 -88.65789795 52.89620972 C-88.66842905 57.15851088 -88.67425578 61.42079311 -88.67773438 65.68310547 C-88.68317952 71.10848552 -88.70711225 76.53360954 -88.73570633 81.95890999 C-88.75447722 86.15262539 -88.75954625 90.34628141 -88.76107025 94.54003525 C-88.7640722 96.53723402 -88.77201619 98.53443237 -88.78525543 100.53158951 C-88.92981789 124.0460589 -85.58446795 145.17522717 -68.4375 162.625 C-54.92993751 175.86512438 -38.53028423 185.38684153 -22.4375 195.125 C-21.43058105 195.73746582 -20.42366211 196.34993164 -19.38623047 196.98095703 C-16.51845482 198.71495 -13.63783516 200.42466916 -10.75 202.125 C-9.88358887 202.64763428 -9.01717773 203.17026855 -8.12451172 203.70874023 C-7.31643066 204.17610596 -6.50834961 204.64347168 -5.67578125 205.125 C-4.6245105 205.74375 -4.6245105 205.74375 -3.55200195 206.375 C-0.05020205 207.6170655 2.50523032 206.62285475 5.7722168 205.08447266 C6.51125244 204.6569873 7.25028809 204.22950195 8.01171875 203.7890625 C8.85057617 203.30759766 9.68943359 202.82613281 10.55371094 202.33007812 C11.44348633 201.80865234 12.33326172 201.28722656 13.25 200.75 C14.17973633 200.21052734 15.10947266 199.67105469 16.06738281 199.11523438 C18.90513803 197.46189147 21.73498342 195.7957825 24.5625 194.125 C25.37605957 193.64643555 26.18961914 193.16787109 27.02783203 192.67480469 C50.88963989 178.58172263 75.90058531 163.49430208 85.5625 136.125 C85.87058594 135.25746094 86.17867187 134.38992187 86.49609375 133.49609375 C89.34456695 124.78712545 89.71715931 115.92995103 89.67602539 106.81982422 C89.67624443 105.51553215 89.67624443 105.51553215 89.6764679 104.18489075 C89.67577882 101.34979639 89.66803418 98.51477018 89.66015625 95.6796875 C89.65828849 93.69857825 89.65686628 91.71746853 89.65586853 89.73635864 C89.65207153 84.55133768 89.64226564 79.36634524 89.63116455 74.18133545 C89.62088952 68.87870672 89.61635792 63.57607334 89.61132812 58.2734375 C89.60064056 47.89061255 89.58359841 37.50780866 89.5625 27.125 C73.90028137 20.83209545 73.90028137 20.83209545 57.6875 16.25 C56.08571297 15.87857112 54.48414551 15.50619392 52.8828125 15.1328125 C52.14393799 14.96475098 51.40506348 14.79668945 50.64379883 14.62353516 C48.75437756 14.17096058 46.88498381 13.63672627 45.01953125 13.09375 C13.36780769 4.22411447 -63.25202285 1.93952285 -88.4375 27.125 Z " fill="#D9C6A3" transform="translate(99.4375,-0.125)"/>
<path d="M0 0 C2.33294775 -0.04241723 4.66702567 -0.04092937 7 0 C8.87824891 1.87824891 8.39102397 5.03935276 8.5625 7.5625 C8.64628906 8.76003906 8.73007812 9.95757812 8.81640625 11.19140625 C8.87699219 12.11824219 8.93757813 13.04507813 9 14 C10.97536745 13.65213292 10.97536745 13.65213292 13 13 C13.33 12.34 13.66 11.68 14 11 C14.33 10.67 14.66 10.34 15 10 C14.34 9.34 13.68 8.68 13 8 C14.32 7.01 15.64 6.02 17 5 C17.66 5.33 18.32 5.66 19 6 C19.66 4.02 20.32 2.04 21 0 C21.99 0.33 22.98 0.66 24 1 C25.28125 3.94921875 25.28125 3.94921875 26.5 7.6875 C28.03748431 12.35415912 29.79187118 16.61583726 32 21 C32 21.66 32 22.32 32 23 C32.99 23.33 33.98 23.66 35 24 C35.03758423 22.9627478 35.03758423 22.9627478 35.07592773 21.90454102 C35.19152161 18.79032134 35.31441242 15.67643211 35.4375 12.5625 C35.47681641 11.47388672 35.51613281 10.38527344 35.55664062 9.26367188 C35.61948242 7.71196289 35.61948242 7.71196289 35.68359375 6.12890625 C35.72025146 5.17056885 35.75690918 4.21223145 35.79467773 3.22485352 C36 1 36 1 37 0 C38.99958364 -0.04080783 41.00045254 -0.04254356 43 0 C44.51012131 2.76543196 46.00630148 5.53816807 47.5 8.3125 C47.92925781 9.09818359 48.35851562 9.88386719 48.80078125 10.69335938 C49.20683594 11.45068359 49.61289063 12.20800781 50.03125 12.98828125 C50.40830078 13.68477783 50.78535156 14.38127441 51.17382812 15.09887695 C52 17 52 17 52 20 C52.66 20 53.32 20 54 20 C54.0928125 19.32453125 54.185625 18.6490625 54.28125 17.953125 C55.17693788 14.27301608 56.77291439 11.09319383 58.5 7.75 C58.82097656 7.11320312 59.14195313 6.47640625 59.47265625 5.8203125 C61.84503517 1.15496483 61.84503517 1.15496483 63 0 C64.98 0 66.96 0 69 0 C69 9.9 69 19.8 69 30 C67.02 30 65.04 30 63 30 C61.33657163 28.33657163 61.63951903 26.2174291 61.4375 23.9375 C61.35371094 23.01839844 61.26992187 22.09929687 61.18359375 21.15234375 C61.12300781 20.44207031 61.06242187 19.73179688 61 19 C60.52820313 20.17369141 60.52820313 20.17369141 60.046875 21.37109375 C59.61890625 22.38300781 59.1909375 23.39492187 58.75 24.4375 C58.33234375 25.44683594 57.9146875 26.45617187 57.484375 27.49609375 C56 30 56 30 53.828125 30.84765625 C53.22484375 30.89792969 52.6215625 30.94820312 52 31 C52.99 31 53.98 31 55 31 C55.99 32.485 55.99 32.485 57 34 C59.56282742 34.72965366 59.56282742 34.72965366 62 35 C61.67 37.64 61.34 40.28 61 43 C59.68 43.33 58.36 43.66 57 44 C56.505 42.02 56.505 42.02 56 40 C55.01 40 54.02 40 53 40 C52.01 37.03 52.01 37.03 51 34 C50.01 34 49.02 34 48 34 C47.01 37.3 46.02 40.6 45 44 C41.53058454 43.54177532 38.32604951 43.10868317 35 42 C35 42.99 35 43.98 35 45 C34.01 45 33.02 45 32 45 C32 42.36 32 39.72 32 37 C31.34 37 30.68 37 30 37 C30 36.34 30 35.68 30 35 C31.98 34.505 31.98 34.505 34 34 C34 33.34 34 32.68 34 32 C31.69 31.67 29.38 31.34 27 31 C27 35.62 27 40.24 27 45 C26.01 45 25.02 45 24 45 C24 44.01 24 43.02 24 42 C23.34 42 22.68 42 22 42 C22 42.99 22 43.98 22 45 C17.25 46.125 17.25 46.125 15 45 C14.40644386 42.35139573 14.25790731 39.70802678 14 37 C13.34 37 12.68 37 12 37 C12.0928125 38.1446875 12.0928125 38.1446875 12.1875 39.3125 C12 42 12 42 10.8125 43.75 C8.58183452 45.28838998 6.6635969 45.64005447 4 46 C3.34 43.36 2.68 40.72 2 38 C0.68 38.99 -0.64 39.98 -2 41 C-1.34 41.33 -0.68 41.66 0 42 C-0.33 42.99 -0.66 43.98 -1 45 C-4.36347025 46.47344683 -7.24168233 45.77251667 -10.75 45.0625 C-11.73484375 44.86785156 -12.7196875 44.67320312 -13.734375 44.47265625 C-14.85585938 44.23869141 -14.85585938 44.23869141 -16 44 C-16.06058594 43.38511719 -16.12117188 42.77023438 -16.18359375 42.13671875 C-16.26738281 41.32847656 -16.35117187 40.52023438 -16.4375 39.6875 C-16.51871094 38.88699219 -16.59992187 38.08648437 -16.68359375 37.26171875 C-16.95265693 34.83912821 -16.95265693 34.83912821 -18 32 C-18 31.01 -18 30.02 -18 29 C-18.33 29.33 -18.66 29.66 -19 30 C-20.98 30 -22.96 30 -25 30 C-25 20.43 -25 10.86 -25 1 C-22.69 1 -20.38 1 -18 1 C-16.66180502 3.6226232 -15.3292849 6.24786599 -14 8.875 C-13.6184375 9.62136719 -13.236875 10.36773437 -12.84375 11.13671875 C-12.4828125 11.85214844 -12.121875 12.56757812 -11.75 13.3046875 C-11.41484375 13.96452637 -11.0796875 14.62436523 -10.734375 15.30419922 C-10 17 -10 17 -10 19 C-9.34 19 -8.68 19 -8 19 C-7.73445313 18.15179688 -7.46890625 17.30359375 -7.1953125 16.4296875 C-5.95559534 12.87259054 -4.47517384 9.53406601 -2.875 6.125 C-2.33617188 4.97257812 -1.79734375 3.82015625 -1.2421875 2.6328125 C-0.83226563 1.76398438 -0.42234375 0.89515625 0 0 Z " fill="#D00603" transform="translate(53,85)"/>
<path d="M0 0 C0.83917969 0.07863281 1.67835937 0.15726563 2.54296875 0.23828125 C4.8125 0.6875 4.8125 0.6875 7.8125 2.6875 C9.36016142 3.2702119 10.92442222 3.81014187 12.5 4.3125 C13.71236328 4.70308594 13.71236328 4.70308594 14.94921875 5.1015625 C15.87154297 5.39160156 15.87154297 5.39160156 16.8125 5.6875 C16.4825 7.9975 16.1525 10.3075 15.8125 12.6875 C15.1525 12.6875 14.4925 12.6875 13.8125 12.6875 C13.8125 13.6775 13.8125 14.6675 13.8125 15.6875 C13.1525 15.6875 12.4925 15.6875 11.8125 15.6875 C11.8125 14.6975 11.8125 13.7075 11.8125 12.6875 C8.47712511 13.79929163 7.17542656 15.16161298 4.8125 17.6875 C5.1425 16.3675 5.4725 15.0475 5.8125 13.6875 C4.1625 13.6875 2.5125 13.6875 0.8125 13.6875 C1.65619463 17.67587462 2.22668591 20.11710207 5.1875 23 C7.65869337 24.72645039 7.65869337 24.72645039 10.0625 25.5 C11.8125 26.6875 11.8125 26.6875 12.5625 30.3125 C12.645 31.42625 12.7275 32.54 12.8125 33.6875 C12.1525 33.6875 11.4925 33.6875 10.8125 33.6875 C10.44125 33.048125 10.07 32.40875 9.6875 31.75 C7.8607169 29.2749435 7.8607169 29.2749435 4.1328125 29.34375 C-1.28980916 28.79220378 -4.6496781 26.03416054 -8.8984375 22.83789062 C-13.52866081 19.57473551 -16.53036391 19.17482204 -22.1875 19.6875 C-25.06964887 20.56964887 -25.06964887 20.56964887 -27.1875 21.6875 C-27.1875 22.6775 -27.1875 23.6675 -27.1875 24.6875 C-26.775 24.213125 -26.3625 23.73875 -25.9375 23.25 C-24.005315 21.52483482 -22.70557725 21.12165125 -20.1875 20.6875 C-20.5175 21.6775 -20.8475 22.6675 -21.1875 23.6875 C-21.47755977 28.24314457 -21.75809503 33.36836368 -20.1875 37.6875 C-18.33767528 38.94577123 -18.33767528 38.94577123 -16.1875 39.6875 C-15.1975 40.3475 -14.2075 41.0075 -13.1875 41.6875 C-13.1875 42.3475 -13.1875 43.0075 -13.1875 43.6875 C-12.32125 43.935 -11.455 44.1825 -10.5625 44.4375 C-7.00447746 45.75528613 -4.2648845 47.48936822 -1.1875 49.6875 C-2.2969072 53.17420834 -3.45087666 56.46234237 -5.1875 59.6875 C-5.8475 59.6875 -6.5075 59.6875 -7.1875 59.6875 C-7.68121094 58.68847656 -8.17492187 57.68945312 -8.68359375 56.66015625 C-9.33062395 55.3567186 -9.97776511 54.05333602 -10.625 52.75 C-11.11323242 51.7609668 -11.11323242 51.7609668 -11.61132812 50.75195312 C-13.07861346 47.50459965 -13.07861346 47.50459965 -15.1875 44.6875 C-17.85808851 44.54634839 -20.51182238 44.64502893 -23.1875 44.6875 C-23.5175 47.9875 -23.8475 51.2875 -24.1875 54.6875 C-28.96845787 52.29702106 -32.45822741 49.87531778 -34.1875 44.6875 C-35.18348667 43.68350271 -36.18369535 42.68368082 -37.1875 41.6875 C-40.45261124 34.91541744 -41.80988859 27.75528371 -39.4609375 20.41796875 C-35.16169509 11.27770948 -29.41683851 6.98768939 -20.21484375 3.58984375 C-13.44680127 1.24996289 -7.2300379 -0.75102719 0 0 Z " fill="#090203" transform="translate(112.1875,39.3125)"/>
<path d="M0 0 C0.99 0.33 1.98 0.66 3 1 C4.28125 3.94921875 4.28125 3.94921875 5.5 7.6875 C7.03748431 12.35415912 8.79187118 16.61583726 11 21 C11 21.66 11 22.32 11 23 C11.99 23.33 12.98 23.66 14 24 C14.02505615 23.30849854 14.0501123 22.61699707 14.07592773 21.90454102 C14.19152161 18.79032134 14.31441242 15.67643211 14.4375 12.5625 C14.47681641 11.47388672 14.51613281 10.38527344 14.55664062 9.26367188 C14.59853516 8.22919922 14.64042969 7.19472656 14.68359375 6.12890625 C14.72025146 5.17056885 14.75690918 4.21223145 14.79467773 3.22485352 C15 1 15 1 16 0 C17.99958364 -0.04080783 20.00045254 -0.04254356 22 0 C23.51012131 2.76543196 25.00630148 5.53816807 26.5 8.3125 C26.92925781 9.09818359 27.35851562 9.88386719 27.80078125 10.69335938 C28.20683594 11.45068359 28.61289063 12.20800781 29.03125 12.98828125 C29.59682617 14.03302612 29.59682617 14.03302612 30.17382812 15.09887695 C31 17 31 17 31 20 C31.66 20 32.32 20 33 20 C33.13921875 18.98679687 33.13921875 18.98679687 33.28125 17.953125 C34.17693788 14.27301608 35.77291439 11.09319383 37.5 7.75 C37.98146484 6.79480469 37.98146484 6.79480469 38.47265625 5.8203125 C40.84503517 1.15496483 40.84503517 1.15496483 42 0 C43.98 0 45.96 0 48 0 C48 9.9 48 19.8 48 30 C46.02 30 44.04 30 42 30 C40.33657163 28.33657163 40.63951903 26.2174291 40.4375 23.9375 C40.35371094 23.01839844 40.26992187 22.09929687 40.18359375 21.15234375 C40.12300781 20.44207031 40.06242187 19.73179688 40 19 C39.52820313 20.17369141 39.52820313 20.17369141 39.046875 21.37109375 C38.61890625 22.38300781 38.1909375 23.39492187 37.75 24.4375 C37.33234375 25.44683594 36.9146875 26.45617187 36.484375 27.49609375 C35 30 35 30 32.828125 30.84765625 C32.22484375 30.89792969 31.6215625 30.94820312 31 31 C31.99 31 32.98 31 34 31 C34.66 31.99 35.32 32.98 36 34 C38.56282742 34.72965366 38.56282742 34.72965366 41 35 C40.67 37.64 40.34 40.28 40 43 C38.02 43.495 38.02 43.495 36 44 C35.505 42.02 35.505 42.02 35 40 C34.01 40 33.02 40 32 40 C31.34 38.02 30.68 36.04 30 34 C29.01 34 28.02 34 27 34 C26.01 37.3 25.02 40.6 24 44 C20.53058454 43.54177532 17.32604951 43.10868317 14 42 C14 42.99 14 43.98 14 45 C13.01 45 12.02 45 11 45 C11 42.36 11 39.72 11 37 C10.34 37 9.68 37 9 37 C9 36.34 9 35.68 9 35 C10.98 34.505 10.98 34.505 13 34 C13 33.34 13 32.68 13 32 C12.05125 31.731875 11.1025 31.46375 10.125 31.1875 C7 30 7 30 5 27 C3.02252878 26.63702064 3.02252878 26.63702064 0.875 26.8125 C-0.40375 26.874375 -1.6825 26.93625 -3 27 C-3.33 27.99 -3.66 28.98 -4 30 C-6.31 30 -8.62 30 -11 30 C-10.38213408 26.51892868 -9.48651092 23.35835554 -8.22265625 20.05859375 C-7.87396484 19.14529297 -7.52527344 18.23199219 -7.16601562 17.29101562 C-6.80185547 16.34935547 -6.43769531 15.40769531 -6.0625 14.4375 C-5.70220703 13.49197266 -5.34191406 12.54644531 -4.97070312 11.57226562 C-3.45538363 7.62350488 -1.94770528 3.75879581 0 0 Z " fill="#D2120E" transform="translate(74,85)"/>
<path d="M0 0 C1.47772217 1.09629822 1.47772217 1.09629822 3 3 C3.36749268 5.8908844 3.36749268 5.8908844 3.35644531 9.45922852 C3.35848969 10.10994324 3.36053406 10.76065796 3.36264038 11.43109131 C3.36564704 13.5806494 3.34717705 15.72943942 3.328125 17.87890625 C3.32506724 19.37198191 3.32319125 20.86506043 3.32244873 22.35813904 C3.31784654 25.48618498 3.30342319 28.61397334 3.28125 31.74194336 C3.25294321 35.75600904 3.24203594 39.76987204 3.2375679 43.78402805 C3.23341585 46.86632829 3.22360056 49.94858737 3.21169281 53.03086662 C3.20598716 54.51127734 3.20122943 55.99169202 3.19742584 57.47210884 C3.19056836 59.53819899 3.1769391 61.60412739 3.16113281 63.67016602 C3.15430481 64.84692398 3.14747681 66.02368195 3.14044189 67.23609924 C3 70 3 70 2 72 C2.66 72 3.32 72 4 72 C4.33 48.24 4.66 24.48 5 0 C5.33 0 5.66 0 6 0 C6.00586624 1.11483261 6.01173248 2.22966522 6.01777649 3.37828064 C6.07532559 13.95402966 6.14825105 24.52957939 6.23571491 35.10512447 C6.28018623 40.54036373 6.31949169 45.97553202 6.34643555 51.41088867 C6.37270271 56.66952316 6.41326506 61.92788103 6.46318626 67.18634224 C6.47969836 69.1790475 6.49130898 71.17180043 6.49761391 73.16456413 C6.54030372 85.43235208 7.4052936 96.99576879 10 109 C8.68 109 7.36 109 6 109 C6 108.34 6 107.68 6 107 C5.01 107.495 5.01 107.495 4 108 C3.34444881 110.52733235 3.34444881 110.52733235 3 113 C-2.98968914 107.01031086 -2.11073117 94.78313273 -2.12442017 86.85389709 C-2.12082489 86.02023117 -2.11722961 85.18656525 -2.11352539 84.32763672 C-2.11367142 83.41909439 -2.11381744 82.51055206 -2.1139679 81.57447815 C-2.11327832 78.60952255 -2.10553126 75.64463195 -2.09765625 72.6796875 C-2.09578867 70.60889724 -2.09436637 68.53810654 -2.09336853 66.46731567 C-2.08957014 61.04556027 -2.079763 55.62383212 -2.06866455 50.2020874 C-2.05839257 44.65816618 -2.05385856 39.11424051 -2.04882812 33.5703125 C-2.03813809 22.71352977 -2.0210942 11.85676716 -2 1 C-1.34 0.67 -0.68 0.34 0 0 Z " fill="#D9BA99" transform="translate(5,27)"/>
<path d="M0 0 C1.98 0 3.96 0 6 0 C7.51012131 2.76543196 9.00630148 5.53816807 10.5 8.3125 C10.92925781 9.09818359 11.35851562 9.88386719 11.80078125 10.69335938 C12.20683594 11.45068359 12.61289063 12.20800781 13.03125 12.98828125 C13.40830078 13.68477783 13.78535156 14.38127441 14.17382812 15.09887695 C15 17 15 17 15 20 C15.66 20 16.32 20 17 20 C17.13921875 18.98679687 17.13921875 18.98679687 17.28125 17.953125 C18.17693788 14.27301608 19.77291439 11.09319383 21.5 7.75 C21.98146484 6.79480469 21.98146484 6.79480469 22.47265625 5.8203125 C24.84503517 1.15496483 24.84503517 1.15496483 26 0 C27.98 0 29.96 0 32 0 C32 9.9 32 19.8 32 30 C30.02 30 28.04 30 26 30 C23.73293933 27.73293933 24.25590776 21.88810189 24 19 C22.35 21.97 20.7 24.94 19 28 C17.02 28 15.04 28 13 28 C11.02 24.37 9.04 20.74 7 17 C6.67 21.29 6.34 25.58 6 30 C4.02 30 2.04 30 0 30 C0 20.1 0 10.2 0 0 Z " fill="#DBC5A1" transform="translate(90,85)"/>
<path d="M0 0 C2.31 0 4.62 0 7 0 C7 9.9 7 19.8 7 30 C4.69 30 2.38 30 0 30 C-0.33 26.37 -0.66 22.74 -1 19 C-2.65 21.97 -4.3 24.94 -6 28 C-7.98 28 -9.96 28 -12 28 C-13.98 24.37 -15.96 20.74 -18 17 C-18.33 21.29 -18.66 25.58 -19 30 C-20.98 30 -22.96 30 -25 30 C-25 20.43 -25 10.86 -25 1 C-22.69 1 -20.38 1 -18 1 C-16.66180502 3.6226232 -15.3292849 6.24786599 -14 8.875 C-13.6184375 9.62136719 -13.236875 10.36773437 -12.84375 11.13671875 C-12.4828125 11.85214844 -12.121875 12.56757812 -11.75 13.3046875 C-11.41484375 13.96452637 -11.0796875 14.62436523 -10.734375 15.30419922 C-10 17 -10 17 -10 19 C-9.34 19 -8.68 19 -8 19 C-7.73445313 18.15179688 -7.46890625 17.30359375 -7.1953125 16.4296875 C-5.95559534 12.87259054 -4.47517384 9.53406601 -2.875 6.125 C-2.33617188 4.97257812 -1.79734375 3.82015625 -1.2421875 2.6328125 C-0.83226563 1.76398438 -0.42234375 0.89515625 0 0 Z " fill="#D9C4A0" transform="translate(53,85)"/>
<path d="M0 0 C14 0 14 0 19 3 C20.7570448 6.5140896 20.38462278 10.57689572 19.375 14.3125 C19.25125 14.869375 19.1275 15.42625 19 16 C19.66 16.66 20.32 17.32 21 18 C20.77133479 25.20295405 20.77133479 25.20295405 18.125 27.9375 C11.5829623 31.20851885 9.02243988 30 0 30 C0 20.1 0 10.2 0 0 Z " fill="#DAC39F" transform="translate(128,85)"/>
<path d="M0 0 C1.54766142 0.5827119 3.11192222 1.12264187 4.6875 1.625 C5.89986328 2.01558594 5.89986328 2.01558594 7.13671875 2.4140625 C8.05904297 2.70410156 8.05904297 2.70410156 9 3 C8.67 5.31 8.34 7.62 8 10 C7.34 10 6.68 10 6 10 C6 10.99 6 11.98 6 13 C5.34 13 4.68 13 4 13 C4 12.01 4 11.02 4 10 C0.66462511 11.11179163 -0.63707344 12.47411298 -3 15 C-2.67 13.68 -2.34 12.36 -2 11 C-3.65 11 -5.3 11 -7 11 C-7.33 12.32 -7.66 13.64 -8 15 C-8 14.01 -8 13.02 -8 12 C-10.31 12 -12.62 12 -15 12 C-14.34 13.65 -13.68 15.3 -13 17 C-13.70125 16.2575 -14.4025 15.515 -15.125 14.75 C-17.89489596 11.90788924 -17.89489596 11.90788924 -21.25 10 C-24 8 -24 8 -24.9375 5.4375 C-25 3 -25 3 -24 0 C-16.83434511 -3.68519394 -6.86218504 -4.57479003 0 0 Z " fill="#090203" transform="translate(120,42)"/>
<path d="M0 0 C0.99 0.33 1.98 0.66 3 1 C4.2109375 3.73828125 4.2109375 3.73828125 5.375 7.3125 C5.80046343 8.58691673 6.22891089 9.86034067 6.66015625 11.1328125 C6.87816895 11.77766602 7.09618164 12.42251953 7.32080078 13.08691406 C8.70891509 16.99678601 10.4126427 20.77828601 12.08203125 24.57421875 C13 27 13 27 13 30 C10.125 30.1875 10.125 30.1875 7 30 C6.34 29.01 5.68 28.02 5 27 C3.02252878 26.63702064 3.02252878 26.63702064 0.875 26.8125 C-0.40375 26.874375 -1.6825 26.93625 -3 27 C-3.33 27.99 -3.66 28.98 -4 30 C-6.31 30 -8.62 30 -11 30 C-10.38213408 26.51892868 -9.48651092 23.35835554 -8.22265625 20.05859375 C-7.87396484 19.14529297 -7.52527344 18.23199219 -7.16601562 17.29101562 C-6.80185547 16.34935547 -6.43769531 15.40769531 -6.0625 14.4375 C-5.70220703 13.49197266 -5.34191406 12.54644531 -4.97070312 11.57226562 C-3.45538363 7.62350488 -1.94770528 3.75879581 0 0 Z " fill="#D7CAA4" transform="translate(74,85)"/>
<path d="M0 0 C2.70178422 2.70178422 3.46878743 3.79946479 4.8125 7.125 C5.74512398 9.25044582 5.74512398 9.25044582 7 11 C10.12133744 12.13478935 10.12133744 12.13478935 13 12 C13 12.66 13 13.32 13 14 C12.34 14.66 11.68 15.32 11 16 C12.32 16.99 13.64 17.98 15 19 C15.66 18.67 16.32 18.34 17 18 C17 17.01 17 16.02 17 15 C23.625 14.875 23.625 14.875 27 16 C26.67 19.3 26.34 22.6 26 26 C26.66 26 27.32 26 28 26 C28 24.02 28 22.04 28 20 C28.66 20 29.32 20 30 20 C30.3125 23.3125 30.3125 23.3125 30 27 C27.60259082 28.95578117 26.12413392 30 23 30 C22.34 27.36 21.68 24.72 21 22 C19.68 22.99 18.36 23.98 17 25 C17.66 25.33 18.32 25.66 19 26 C18.67 26.99 18.34 27.98 18 29 C14.63652975 30.47344683 11.75831767 29.77251667 8.25 29.0625 C7.26515625 28.86785156 6.2803125 28.67320312 5.265625 28.47265625 C4.51796875 28.31667969 3.7703125 28.16070312 3 28 C2.93941406 27.38511719 2.87882812 26.77023438 2.81640625 26.13671875 C2.73261719 25.32847656 2.64882813 24.52023438 2.5625 23.6875 C2.48128906 22.88699219 2.40007813 22.08648437 2.31640625 21.26171875 C2.04734307 18.83912821 2.04734307 18.83912821 1 16 C1 15.01 1 14.02 1 13 C0.67 13 0.34 13 0 13 C0 8.71 0 4.42 0 0 Z " fill="#D00C09" transform="translate(34,101)"/>
<path d="M0 0 C3 1 3 1 4.25854492 3.36083984 C4.66177979 4.38387207 5.06501465 5.4069043 5.48046875 6.4609375 C5.92197266 7.57210937 6.36347656 8.68328125 6.81835938 9.828125 C7.27017578 10.99859375 7.72199219 12.1690625 8.1875 13.375 C8.65091797 14.53773437 9.11433594 15.70046875 9.59179688 16.8984375 C13 25.57203838 13 25.57203838 13 29 C11.02 29 9.04 29 7 29 C6.67 28.01 6.34 27.02 6 26 C3.03 26 0.06 26 -3 26 C-3.33 26.99 -3.66 27.98 -4 29 C-5.98 29 -7.96 29 -10 29 C-9.42098044 24.86414598 -8.47957878 21.25866229 -6.93359375 17.3828125 C-6.53076172 16.36445312 -6.12792969 15.34609375 -5.71289062 14.296875 C-5.29201172 13.25015625 -4.87113281 12.2034375 -4.4375 11.125 C-4.01275391 10.05507812 -3.58800781 8.98515625 -3.15039062 7.8828125 C-2.10553151 5.25305474 -1.05526218 2.62559658 0 0 Z " fill="#DBC5A0" transform="translate(161,85)"/>
<path d="M0 0 C0 0.66 0 1.32 0 2 C0.66 2 1.32 2 2 2 C2 2.66 2 3.32 2 4 C0.68 4 -0.64 4 -2 4 C-2 5.65 -2 7.3 -2 9 C-2.99 9.33 -3.98 9.66 -5 10 C-5 38.38 -5 66.76 -5 96 C-5.33 96 -5.66 96 -6 96 C-6 91.38 -6 86.76 -6 82 C-6.66 82 -7.32 82 -8 82 C-7.67 60.22 -7.34 38.44 -7 16 C-7.66 15.67 -8.32 15.34 -9 15 C-8.34 15 -7.68 15 -7 15 C-7 14.34 -7 13.68 -7 13 C-8.9254644 11.8509288 -8.9254644 11.8509288 -11 12 C-11.33 39.72 -11.66 67.44 -12 96 C-12.33 96 -12.66 96 -13 96 C-13 65.64 -13 35.28 -13 4 C-2 0 -2 0 0 0 Z " fill="#D9CBA9" transform="translate(15,17)"/>
<path d="M0 0 C0.99 0.33 1.98 0.66 3 1 C3 1.66 3 2.32 3 3 C9.7685324 3.10152799 16.30324864 3.03026944 23 2 C23 2.66 23 3.32 23 4 C25.31 4 27.62 4 30 4 C29.67 6.64 29.34 9.28 29 12 C27.125 12.625 27.125 12.625 25 13 C23 11 23 11 22 7 C22 9.97 22 12.94 22 16 C18.06326356 14.68775452 15.77280706 13.08089673 13 10 C12.67 10.99 12.34 11.98 12 13 C11.34 13 10.68 13 10 13 C10 10.69 10 8.38 10 6 C8.68 6.33 7.36 6.66 6 7 C6.33 8.98 6.66 10.96 7 13 C5.02 13 3.04 13 1 13 C1 11.02 1 9.04 1 7 C-0.32 7.33 -1.64 7.66 -3 8 C-3.33 9.65 -3.66 11.3 -4 13 C-4.66 13 -5.32 13 -6 13 C-6 10.69 -6 8.38 -6 6 C-6.66 6 -7.32 6 -8 6 C-8 5.01 -8 4.02 -8 3 C-6.865625 2.690625 -5.73125 2.38125 -4.5625 2.0625 C-1.21224901 1.37075469 -1.21224901 1.37075469 0 0 Z " fill="#C91610" transform="translate(145,116)"/>
<path d="M0 0 C2.31 0 4.62 0 7 0 C7 9.9 7 19.8 7 30 C4.69 30 2.38 30 0 30 C-0.33 26.37 -0.66 22.74 -1 19 C-1.99 20.32 -2.98 21.64 -4 23 C-4 20.69 -4 18.38 -4 16 C-3.34 16 -2.68 16 -2 16 C-2.2784375 14.700625 -2.2784375 14.700625 -2.5625 13.375 C-3.2132472 8.3549502 -2.5322427 4.38922068 0 0 Z " fill="#DEAF8F" transform="translate(53,85)"/>
<path d="M0 0 C-1.875 3.875 -1.875 3.875 -3 5 C-4.66617115 5.04063832 -6.33388095 5.042721 -8 5 C-8 5.99 -8 6.98 -8 8 C-7.34 8 -6.68 8 -6 8 C-6 10.31 -6 12.62 -6 15 C-5.34 15.33 -4.68 15.66 -4 16 C-4.66 16 -5.32 16 -6 16 C-6.33 16.66 -6.66 17.32 -7 18 C-7.99 17.34 -8.98 16.68 -10 16 C-10 15.34 -10 14.68 -10 14 C-12.97 14.66 -15.94 15.32 -19 16 C-18.67 14.02 -18.34 12.04 -18 10 C-19.32 10.33 -20.64 10.66 -22 11 C-22 12.32 -22 13.64 -22 15 C-22.66 15 -23.32 15 -24 15 C-25 12 -26 9 -27 6 C-26.34 6 -25.68 6 -25 6 C-24.67 5.01 -24.34 4.02 -24 3 C-21.03 3.495 -21.03 3.495 -18 4 C-17.67 3.01 -17.34 2.02 -17 1 C-14.9168207 0.83141902 -12.83344956 0.66520745 -10.75 0.5 C-9.58984375 0.4071875 -8.4296875 0.314375 -7.234375 0.21875 C-4.82731342 0.05595356 -2.41256049 0 0 0 Z " fill="#D00301" transform="translate(145,114)"/>
<path d="M0 0 C4.01799913 -0.08782512 6.49474707 -0.00300167 10 2 C10.66 2 11.32 2 12 2 C12 2.66 12 3.32 12 4 C11.01 4.66 10.02 5.32 9 6 C10.32 6.33 11.64 6.66 13 7 C13.144375 7.639375 13.28875 8.27875 13.4375 8.9375 C13.81007181 10.97545146 13.81007181 10.97545146 15 12 C14.82364548 14.69082872 14.38164079 17.32851446 14 20 C11.92446352 20.5534764 10.15634036 21 8 21 C8 20.01 8 19.02 8 18 C5.69 18 3.38 18 1 18 C-1.81573751 12.03726175 -0.75822476 6.3322014 0 0 Z " fill="#DCC09E" transform="translate(134,91)"/>
<path d="M0 0 C0.99 0.33 1.98 0.66 3 1 C3.1953125 3.05078125 3.390625 5.1015625 3.5859375 7.15234375 C3.72257813 7.76207031 3.85921875 8.37179688 4 9 C4.66 9.33 5.32 9.66 6 10 C4.02 15.28 2.04 20.56 0 26 C1.98 25.67 3.96 25.34 6 25 C6.33 24.34 6.66 23.68 7 23 C9.97 23 12.94 23 16 23 C16 23.33 16 23.66 16 24 C14.865625 24.268125 13.73125 24.53625 12.5625 24.8125 C11.386875 25.204375 10.21125 25.59625 9 26 C8.67 26.99 8.34 27.98 8 29 C7.34 29 6.68 29 6 29 C6 28.34 6 27.68 6 27 C4.906875 27.020625 3.81375 27.04125 2.6875 27.0625 C-1.04269054 26.99927643 -3.4970748 26.16764173 -7 25 C-6.01 24.34 -5.02 23.68 -4 23 C-2.73305893 17.84878819 -2.73305893 17.84878819 -4.0625 13 C-5.45505071 10.02922516 -4.55445769 7.80803585 -3.80078125 4.70703125 C-3.53652344 4.14371094 -3.27226562 3.58039063 -3 3 C-2.01 2.67 -1.02 2.34 0 2 C0 1.34 0 0.68 0 0 Z " fill="#D10C08" transform="translate(151,88)"/>
<path d="M0 0 C6.625 -0.125 6.625 -0.125 10 1 C9.67 4.3 9.34 7.6 9 11 C9.66 11 10.32 11 11 11 C11 9.02 11 7.04 11 5 C11.66 5 12.32 5 13 5 C13.3125 8.3125 13.3125 8.3125 13 12 C10.60259082 13.95578117 9.12413392 15 6 15 C5.34 12.36 4.68 9.72 4 7 C2.68 7.99 1.36 8.98 0 10 C0.66 10.33 1.32 10.66 2 11 C2 11.66 2 12.32 2 13 C0.33388095 13.042721 -1.33382885 13.04063832 -3 13 C-4 12 -4 12 -4.3125 9.125 C-4 6 -4 6 -2 4.3125 C-1.34 3.879375 -0.68 3.44625 0 3 C0 2.01 0 1.02 0 0 Z " fill="#D01711" transform="translate(51,116)"/>
<path d="M0 0 C3 1 3 1 4.203125 3.14453125 C4.54859375 4.02496094 4.8940625 4.90539062 5.25 5.8125 C5.78367187 7.12154297 5.78367187 7.12154297 6.328125 8.45703125 C7.04944159 11.18713066 7.13585945 12.43318036 6 15 C5.01 15.66 4.02 16.32 3 17 C3 18.32 3 19.64 3 21 C1.68 21 0.36 21 -1 21 C-0.9071875 19.3603125 -0.9071875 19.3603125 -0.8125 17.6875 C-0.61458928 14.08097246 -0.61458928 14.08097246 -2.51171875 12.26953125 C-3.00285156 11.85058594 -3.49398437 11.43164062 -4 11 C-3.52269162 9.5410574 -3.04308958 8.08286504 -2.5625 6.625 C-2.29566406 5.81289062 -2.02882813 5.00078125 -1.75390625 4.1640625 C-1 2 -1 2 0 0 Z " fill="#DBC09D" transform="translate(74,85)"/>
<path d="M0 0 C1.98 0 3.96 0 6 0 C5.690625 0.53625 5.38125 1.0725 5.0625 1.625 C3.40089768 5.33916989 3 8.95600131 3 13 C4.32 13.33 5.64 13.66 7 14 C6.34 14 5.68 14 5 14 C5 18.62 5 23.24 5 28 C3.35 28 1.7 28 0 28 C0 18.76 0 9.52 0 0 Z " fill="#D7D0AA" transform="translate(28,86)"/>
<path d="M0 0 C0.33 0 0.66 0 1 0 C1 4.29 1 8.58 1 13 C3.97 13 6.94 13 10 13 C11.15866723 17.63466892 10.70010994 20.33260039 10 25 C9.34 25 8.68 25 8 25 C7.875 17.25 7.875 17.25 9 15 C7.906875 15.020625 6.81375 15.04125 5.6875 15.0625 C2 15 2 15 -1 14 C-1 14.99 -1 15.98 -1 17 C-0.34 17.33 0.32 17.66 1 18 C-1.3125 18.6875 -1.3125 18.6875 -4 19 C-5.8125 17.75 -5.8125 17.75 -7 16 C-7 15.01 -7 14.02 -7 13 C-6.34 13 -5.68 13 -5 13 C-4.9175 12.34 -4.835 11.68 -4.75 11 C-3.75240209 7.00960837 -1.92833317 3.61450357 0 0 Z " fill="#D30100" transform="translate(52,102)"/>
<path d="M0 0 C1.2065625 0.0309375 1.2065625 0.0309375 2.4375 0.0625 C2.4375 0.7225 2.4375 1.3825 2.4375 2.0625 C3.0975 2.0625 3.7575 2.0625 4.4375 2.0625 C4.1075 3.0525 3.7775 4.0425 3.4375 5.0625 C9.73395003 6.12530504 16.00016607 6.38361895 22.375 6.625 C23.44041016 6.66818359 24.50582031 6.71136719 25.60351562 6.75585938 C28.21473443 6.86124489 30.82603746 6.96337088 33.4375 7.0625 C33.4375 7.3925 33.4375 7.7225 33.4375 8.0625 C32.62297363 8.08755615 31.80844727 8.1126123 30.96923828 8.13842773 C15.78154781 8.61083368 0.60358514 9.09663821 -14.5625 10.0625 C-10.18865587 7.14660391 -6.85707529 5.75995284 -1.5625 6.0625 C-1.5625 5.0725 -1.5625 4.0825 -1.5625 3.0625 C-2.2225 2.4025 -2.8825 1.7425 -3.5625 1.0625 C-2.5625 0.0625 -2.5625 0.0625 0 0 Z " fill="#DEB395" transform="translate(76.5625,0.9375)"/>
<path d="M0 0 C1.794375 0.7115625 1.794375 0.7115625 3.625 1.4375 C7.06414238 2.73482773 10.33895604 3.54236951 14 4 C14 4.66 14 5.32 14 6 C13.67 6.33 13.34 6.66 13 7 C13.40929986 9.05396726 13.40929986 9.05396726 14 11 C11.69 11.66 9.38 12.32 7 13 C5.875 9.25 5.875 9.25 7 7 C5.68 7.33 4.36 7.66 3 8 C3 9.32 3 10.64 3 12 C2.34 12 1.68 12 1 12 C0 9 -1 6 -2 3 C-1.34 3 -0.68 3 0 3 C0 2.01 0 1.02 0 0 Z " fill="#CD0E0A" transform="translate(120,117)"/>
<path d="M0 0 C0.99 0 1.98 0 3 0 C3 3.63 3 7.26 3 11 C2.01 11 1.02 11 0 11 C0 10.01 0 9.02 0 8 C-0.66 8 -1.32 8 -2 8 C-2 8.99 -2 9.98 -2 11 C-6.75 12.125 -6.75 12.125 -9 11 C-9 7.7 -9 4.4 -9 1 C-4 1 -4 1 -1 3 C-0.67 2.01 -0.34 1.02 0 0 Z " fill="#CD392C" transform="translate(77,119)"/>
<path d="M0 0 C0.391875 0.45375 0.78375 0.9075 1.1875 1.375 C3.30832487 3.27642919 5.33042235 4.06204028 8 5 C7.01 6.485 7.01 6.485 6 8 C5.61500109 9.65549531 5.27206865 11.3222433 5 13 C3.6078125 12.9690625 3.6078125 12.9690625 2.1875 12.9375 C-1.02286011 12.84230396 -1.02286011 12.84230396 -4 14 C-4.33 11.36 -4.66 8.72 -5 6 C-5.66 6 -6.32 6 -7 6 C-7 5.34 -7 4.68 -7 4 C-6.030625 3.71125 -5.06125 3.4225 -4.0625 3.125 C-0.89335797 2.35785318 -0.89335797 2.35785318 0 0 Z " fill="#100403" transform="translate(64,144)"/>
<path d="M0 0 C0.99 0.33 1.98 0.66 3 1 C3 1.66 3 2.32 3 3 C4.32 3.33 5.64 3.66 7 4 C7 4.66 7 5.32 7 6 C5.68 6 4.36 6 3 6 C3 6.66 3 7.32 3 8 C3.99 8 4.98 8 6 8 C6.33 9.65 6.66 11.3 7 13 C5.02 13 3.04 13 1 13 C1 11.02 1 9.04 1 7 C-0.32 7.33 -1.64 7.66 -3 8 C-3.33 9.65 -3.66 11.3 -4 13 C-4.66 13 -5.32 13 -6 13 C-6 10.69 -6 8.38 -6 6 C-6.66 6 -7.32 6 -8 6 C-8 5.01 -8 4.02 -8 3 C-6.865625 2.690625 -5.73125 2.38125 -4.5625 2.0625 C-1.21224901 1.37075469 -1.21224901 1.37075469 0 0 Z " fill="#D44438" transform="translate(145,116)"/>
<path d="M0 0 C2.94678433 2.94678433 4.32041919 5.24093818 6 9 C6 9.66 6 10.32 6 11 C5.34 11 4.68 11 4 11 C4.33 12.98 4.66 14.96 5 17 C6.32 17.33 7.64 17.66 9 18 C9 18.99 9 19.98 9 21 C7.68 21 6.36 21 5 21 C5 21.66 5 22.32 5 23 C5.99 23.33 6.98 23.66 8 24 C7.01 24 6.02 24 5 24 C5 24.66 5 25.32 5 26 C6.32 26 7.64 26 9 26 C9 26.66 9 27.32 9 28 C7.02 28 5.04 28 3 28 C2.93941406 27.38511719 2.87882812 26.77023438 2.81640625 26.13671875 C2.73261719 25.32847656 2.64882813 24.52023438 2.5625 23.6875 C2.48128906 22.88699219 2.40007813 22.08648437 2.31640625 21.26171875 C2.04734307 18.83912821 2.04734307 18.83912821 1 16 C1 15.01 1 14.02 1 13 C0.67 13 0.34 13 0 13 C0 8.71 0 4.42 0 0 Z " fill="#CB1912" transform="translate(34,101)"/>
<path d="M0 0 C1.98 0 3.96 0 6 0 C6 9.24 6 18.48 6 28 C4.35 28 2.7 28 1 28 C1 23.71 1 19.42 1 15 C0.34 15 -0.32 15 -1 15 C-1 14.34 -1 13.68 -1 13 C-0.360625 12.87625 0.27875 12.7525 0.9375 12.625 C1.618125 12.41875 2.29875 12.2125 3 12 C4.14814997 9.70370006 4.30769809 7.92301914 4.5625 5.375 C4.64628906 4.55773437 4.73007812 3.74046875 4.81640625 2.8984375 C4.87699219 2.27195312 4.93757813 1.64546875 5 1 C3.35 1.33 1.7 1.66 0 2 C0 1.34 0 0.68 0 0 Z " fill="#D8D1AB" transform="translate(53,86)"/>
<path d="M0 0 C0.99 0.66 1.98 1.32 3 2 C3 2.66 3 3.32 3 4 C4.65 4.33 6.3 4.66 8 5 C7.01 6.485 7.01 6.485 6 8 C5.61500109 9.65549531 5.27206865 11.3222433 5 13 C2.36 13 -0.28 13 -3 13 C-4 10 -5 7 -6 4 C-5.38125 3.896875 -4.7625 3.79375 -4.125 3.6875 C-1.63473516 3.12474627 -1.63473516 3.12474627 0 0 Z " fill="#0F0303" transform="translate(138,144)"/>
<path d="M0 0 C1.98 0 3.96 0 6 0 C6 0.66 6 1.32 6 2 C6.66 2 7.32 2 8 2 C8 1.34 8 0.68 8 0 C8.99 0 9.98 0 11 0 C11.66 0.66 12.32 1.32 13 2 C13.33 1.34 13.66 0.68 14 0 C14.66 0 15.32 0 16 0 C15.01 2.97 14.02 5.94 13 9 C10.23723823 8.47731534 7.6739124 7.89130413 5 7 C5 7.99 5 8.98 5 10 C4.01 10 3.02 10 2 10 C2 7.36 2 4.72 2 2 C1.34 2 0.68 2 0 2 C0 1.34 0 0.68 0 0 Z " fill="#D34336" transform="translate(83,120)"/>
<path d="M0 0 C0.66 0 1.32 0 2 0 C2.33 1.32 2.66 2.64 3 4 C4.65 4.33 6.3 4.66 8 5 C7.01 6.485 7.01 6.485 6 8 C5.61500109 9.65549531 5.27206865 11.3222433 5 13 C2.36 13 -0.28 13 -3 13 C-3.309375 12.05125 -3.61875 11.1025 -3.9375 10.125 C-4.87394742 7.13919592 -4.87394742 7.13919592 -6 5 C-5.195625 4.54625 -4.39125 4.0925 -3.5625 3.625 C-0.91143428 2.25274335 -0.91143428 2.25274335 0 0 Z " fill="#0D0304" transform="translate(101,144)"/>
<path d="M0 0 C2.31 0 4.62 0 7 0 C7.33 1.65 7.66 3.3 8 5 C8.66 5 9.32 5 10 5 C10.33 4.01 10.66 3.02 11 2 C11.66 2 12.32 2 13 2 C13 1.34 13 0.68 13 0 C13.66 0 14.32 0 15 0 C14.67 2.64 14.34 5.28 14 8 C11.92446352 8.5534764 10.15634036 9 8 9 C8 8.01 8 7.02 8 6 C6.2984375 6.0309375 6.2984375 6.0309375 4.5625 6.0625 C1 6 1 6 0 5 C-0.04063832 3.33382885 -0.042721 1.66611905 0 0 Z " fill="#D8BF9B" transform="translate(134,103)"/>
<path d="M0 0 C1.75 0.0625 1.75 0.0625 4 1 C5.51094779 3.33510112 6.77358935 5.52699088 8 8 C8.5775 9.093125 9.155 10.18625 9.75 11.3125 C11 14 11 14 11 16 C11.66 16 12.32 16 13 16 C13.12375 15.4225 13.2475 14.845 13.375 14.25 C14.00648824 11.97664233 14.88858191 10.0746471 16 8 C16.99 8.33 17.98 8.66 19 9 C17.02 13.29 15.04 17.58 13 22 C12.34 22 11.68 22 11 22 C10.73783691 21.44014404 10.47567383 20.88028809 10.20556641 20.3034668 C9.01453452 17.76363475 7.81981069 15.22555644 6.625 12.6875 C6.2125 11.80642578 5.8 10.92535156 5.375 10.01757812 C4.97539063 9.17001953 4.57578125 8.32246094 4.1640625 7.44921875 C3.79748535 6.66893311 3.4309082 5.88864746 3.05322266 5.0847168 C1.94495638 2.78753707 1.94495638 2.78753707 0 0 Z " fill="#CF0C0A" transform="translate(94,83)"/>
<path d="M0 0 C1.5625 1.5625 1.5625 1.5625 3 4 C2.6875 7.75 2.6875 7.75 2 11 C3.32 11 4.64 11 6 11 C6.33 10.34 6.66 9.68 7 9 C7 9.99 7 10.98 7 12 C5.02 12 3.04 12 1 12 C1 11.34 1 10.68 1 10 C0.01 9.67 -0.98 9.34 -2 9 C-2.99 11.31 -3.98 13.62 -5 16 C-4.01 16.33 -3.02 16.66 -2 17 C-1.67 17.99 -1.34 18.98 -1 20 C-3.31 20 -5.62 20 -8 20 C-7.31371881 15.89002388 -6.05572763 12.1984366 -4.5625 8.3125 C-3.91474609 6.60513672 -3.91474609 6.60513672 -3.25390625 4.86328125 C-2 2 -2 2 0 0 Z " fill="#DCC6A0" transform="translate(71,95)"/>
<path d="M0 0 C4.455 0.99 4.455 0.99 9 2 C7.68 2.33 6.36 2.66 5 3 C5.495 3.556875 5.99 4.11375 6.5 4.6875 C8.24754367 7.38162983 8.26218749 8.85375007 8 12 C8.94875 11.814375 9.8975 11.62875 10.875 11.4375 C14 11 14 11 16 12 C16.33 11.01 16.66 10.02 17 9 C17.66 9 18.32 9 19 9 C19.33 10.98 19.66 12.96 20 15 C19.443125 14.855625 18.88625 14.71125 18.3125 14.5625 C17.549375 14.376875 16.78625 14.19125 16 14 C15.175 13.79375 14.35 13.5875 13.5 13.375 C10.87112036 12.98066805 9.42329473 12.91369547 7 14 C5.8499169 15.96672915 5.8499169 15.96672915 5 18 C4.34 18.33 3.68 18.66 3 19 C3.99 15.04 4.98 11.08 6 7 C5.34 7 4.68 7 4 7 C4 6.01 4 5.02 4 4 C2.68 4.33 1.36 4.66 0 5 C0 3.35 0 1.7 0 0 Z " fill="#CE0706" transform="translate(127,145)"/>
<path d="M0 0 C2.70178422 2.70178422 3.46878743 3.79946479 4.8125 7.125 C5.74512398 9.25044582 5.74512398 9.25044582 7 11 C10.12133744 12.13478935 10.12133744 12.13478935 13 12 C13 12.33 13 12.66 13 13 C11.88625 13.12375 10.7725 13.2475 9.625 13.375 C5.96896323 13.6465813 5.96896323 13.6465813 4 16 C2.68 16 1.36 16 0 16 C0 10.72 0 5.44 0 0 Z " fill="#D01F1B" transform="translate(96,101)"/>
<path d="M0 0 C0 0.66 0 1.32 0 2 C0.66 2.33 1.32 2.66 2 3 C-2.62 5.97 -7.24 8.94 -12 12 C-13 8 -13 8 -12.30859375 5.890625 C-10.76526213 3.66085634 -9.50359158 2.89554018 -7.0625 1.75 C-6.37285156 1.41484375 -5.68320313 1.0796875 -4.97265625 0.734375 C-3 0 -3 0 0 0 Z " fill="#CF0701" transform="translate(143,178)"/>
<path d="M0 0 C0 1.32 0 2.64 0 4 C0.66 4 1.32 4 2 4 C2 6.31 2 8.62 2 11 C2.66 11.33 3.32 11.66 4 12 C3.34 12 2.68 12 2 12 C1.67 12.66 1.34 13.32 1 14 C-1.52588702 11.63707344 -2.88820837 10.33537489 -4 7 C-4.66 6.67 -5.32 6.34 -6 6 C-5.67 5.34 -5.34 4.68 -5 4 C-4.34 4.33 -3.68 4.66 -3 5 C-3 4.34 -3 3.68 -3 3 C-4.32 3 -5.64 3 -7 3 C-7 2.34 -7 1.68 -7 1 C-4 0 -4 0 0 0 Z " fill="#D00401" transform="translate(137,118)"/>
<path d="M0 0 C2.31 0.66 4.62 1.32 7 2 C6.67 4.64 6.34 7.28 6 10 C4.68 10.33 3.36 10.66 2 11 C1.67 9.68 1.34 8.36 1 7 C0.01 7 -0.98 7 -2 7 C-2 5.35 -2 3.7 -2 2 C-1.34 2 -0.68 2 0 2 C0 1.34 0 0.68 0 0 Z " fill="#D65B4A" transform="translate(108,118)"/>
<path d="M0 0 C2 1 2 1 3.375 3.8125 C4.93967101 6.88166237 6.45910288 8.72195431 9 11 C8.01 11.99 7.02 12.98 6 14 C6.99 14 7.98 14 9 14 C9 14.66 9 15.32 9 16 C8.01 16 7.02 16 6 16 C5.67 16.66 5.34 17.32 5 18 C4.18395001 16.0848421 3.37229368 14.16781166 2.5625 12.25 C2.11003906 11.18265625 1.65757813 10.1153125 1.19140625 9.015625 C-0.60539897 4.46764589 -0.60539897 4.46764589 -1 2 C-0.67 1.34 -0.34 0.68 0 0 Z " fill="#CF0C09" transform="translate(77,83)"/>
<path d="M0 0 C1.9375 0.375 1.9375 0.375 4 1 C5.38226016 3.76452033 5.09525387 6.0461363 5.0625 9.125 C5.05347656 10.22070312 5.04445313 11.31640625 5.03515625 12.4453125 C5.02355469 13.28835937 5.01195313 14.13140625 5 15 C4.67 15 4.34 15 4 15 C3.67 11.7 3.34 8.4 3 5 C1.68 7.64 0.36 10.28 -1 13 C-2.04449911 9.86650268 -1.93423645 9.01031744 -1 6 C-1.99 7.485 -1.99 7.485 -3 9 C-3.99 8.01 -4.98 7.02 -6 6 C-5.34 6 -4.68 6 -4 6 C-4 5.01 -4 4.02 -4 3 C-3.01 3 -2.02 3 -1 3 C-0.67 2.01 -0.34 1.02 0 0 Z " fill="#DEB394" transform="translate(111,99)"/>
<path d="M0 0 C1.62276158 2.43414237 2.61744792 4.31319446 3.625 7 C3.88539062 7.680625 4.14578125 8.36125 4.4140625 9.0625 C5 11 5 11 5 14 C3.02 14 1.04 14 -1 14 C-2.125 11.75 -2.125 11.75 -3 9 C-2.1875 7 -2.1875 7 -1 5 C-0.62331656 3.34259285 -0.27942455 1.67654729 0 0 Z " fill="#DBBB99" transform="translate(82,101)"/>
<path d="M0 0 C3.625 -0.1875 3.625 -0.1875 7 0 C5.02 0.99 5.02 0.99 3 2 C3.99 2 4.98 2 6 2 C6 3.32 6 4.64 6 6 C3.07120629 5.37240135 0.63904371 4.41377341 -2 3 C-1.34 2.01 -0.68 1.02 0 0 Z M-7 5 C-5.35 5 -3.7 5 -2 5 C-1.77963136 8.85645121 -2.39644899 11.49223216 -4 15 C-4.66 15 -5.32 15 -6 15 C-6.26218749 11.85375007 -6.24754367 10.38162983 -4.5 7.6875 C-4.005 7.130625 -3.51 6.57375 -3 6 C-3.66 6 -4.32 6 -5 6 C-5.33 6.99 -5.66 7.98 -6 9 C-6.66 8.34 -7.32 7.68 -8 7 C-7.67 6.34 -7.34 5.68 -7 5 Z " fill="#C80803" transform="translate(102,114)"/>
<path d="M0 0 C0.33 0.66 0.66 1.32 1 2 C1.99 2 2.98 2 4 2 C5 5 5 5 4 8 C4.09268505 10.06618749 4.09268505 10.06618749 4.4375 12.1875 C4.623125 13.445625 4.80875 14.70375 5 16 C4.01 16 3.02 16 2 16 C2 13.69 2 11.38 2 9 C0.68 8.67 -0.64 8.34 -2 8 C-1.125 2.25 -1.125 2.25 0 0 Z " fill="#D68D74" transform="translate(159,90)"/>
<path d="M0 0 C2.64 0 5.28 0 8 0 C7.67 2.64 7.34 5.28 7 8 C5.125 8.625 5.125 8.625 3 9 C0.23776722 6.23776722 0.42143709 3.79293383 0 0 Z " fill="#D56854" transform="translate(167,120)"/>
<path d="M0 0 C0.66 0 1.32 0 2 0 C2 0.99 2 1.98 2 3 C4.73249341 3.75277515 7.28100683 4.16641703 10.109375 4.31640625 C10.86347656 4.35830078 11.61757812 4.40019531 12.39453125 4.44335938 C13.56048828 4.50233398 13.56048828 4.50233398 14.75 4.5625 C15.54277344 4.60568359 16.33554688 4.64886719 17.15234375 4.69335938 C19.10137815 4.79902991 21.05066748 4.89997966 23 5 C22.67 6.65 22.34 8.3 22 10 C21.67 9.34 21.34 8.68 21 8 C21.33 7.34 21.66 6.68 22 6 C20.35 6 18.7 6 17 6 C16.67 7.32 16.34 8.64 16 10 C16 9.01 16 8.02 16 7 C13.69 7 11.38 7 9 7 C9.66 8.65 10.32 10.3 11 12 C10.29875 11.2575 9.5975 10.515 8.875 9.75 C6.08411268 6.90464492 6.08411268 6.90464492 2.6875 4.875 C1.800625 4.25625 0.91375 3.6375 0 3 C0 2.01 0 1.02 0 0 Z " fill="#740C0D" transform="translate(96,47)"/>
<path d="M0 0 C1.670625 0.061875 1.670625 0.061875 3.375 0.125 C2.00516497 3.28615776 1.3859362 4.1177092 -1.625 6.125 C-0.965 6.455 -0.305 6.785 0.375 7.125 C0.375 7.785 0.375 8.445 0.375 9.125 C-1.29111905 9.167721 -2.95882885 9.16563832 -4.625 9.125 C-5.625 8.125 -5.625 8.125 -5.8125 5.1875 C-5.53057824 0.58277796 -4.55609828 0.15710684 0 0 Z " fill="#CC231B" transform="translate(52.625,119.875)"/>
<path d="M0 0 C1.65 0.33 3.3 0.66 5 1 C5.66 2.98 6.32 4.96 7 7 C6.01 7 5.02 7 4 7 C4 6.01 4 5.02 4 4 C3.34 4 2.68 4 2 4 C1.67 4.99 1.34 5.98 1 7 C0.67 7 0.34 7 0 7 C-0.33 11.29 -0.66 15.58 -1 20 C-2.98 20 -4.96 20 -7 20 C-7 19.67 -7 19.34 -7 19 C-5.35 19 -3.7 19 -2 19 C-2 14.38 -2 9.76 -2 5 C-1.34 5 -0.68 5 0 5 C0 3.35 0 1.7 0 0 Z " fill="#E1B595" transform="translate(35,95)"/>
<path d="M0 0 C1.65 0 3.3 0 5 0 C5.70074844 3.153368 6 5.72724974 6 9 C5.34 9 4.68 9 4 9 C3.67 8.34 3.34 7.68 3 7 C2.67 7.66 2.34 8.32 2 9 C1.34 9 0.68 9 0 9 C0 6.03 0 3.06 0 0 Z " fill="#DD9E84" transform="translate(68,120)"/>
<path d="M0 0 C3 1 3 1 5 4 C5.66 2.68 6.32 1.36 7 0 C7.66 0 8.32 0 9 0 C9 2.64 9 5.28 9 8 C5 8 5 8 3.25 6.5 C2.8375 6.005 2.425 5.51 2 5 C1.34 5.99 0.68 6.98 0 8 C0 5.36 0 2.72 0 0 Z " fill="#E4BA9B" transform="translate(156,121)"/>
<path d="M0 0 C2.64 0 5.28 0 8 0 C8 0.66 8 1.32 8 2 C9.32 2.33 10.64 2.66 12 3 C12.33 4.32 12.66 5.64 13 7 C3.66958425 5.82713348 3.66958425 5.82713348 0.875 2.375 C0.58625 1.59125 0.2975 0.8075 0 0 Z " fill="#CB0501" transform="translate(64,143)"/>
<path d="M0 0 C0.33 0 0.66 0 1 0 C1.99 5.61 2.98 11.22 4 17 C2.68 17 1.36 17 0 17 C-2.37905675 12.2418865 -1.33431286 5.00367323 0 0 Z " fill="#DCB393" transform="translate(11,119)"/>
<path d="M0 0 C0.33 1.32 0.66 2.64 1 4 C1.66 4 2.32 4 3 4 C3 4.66 3 5.32 3 6 C5.97065509 5.65772428 5.97065509 5.65772428 9 5 C9.33 4.34 9.66 3.68 10 3 C12.97 3 15.94 3 19 3 C19 3.33 19 3.66 19 4 C17.865625 4.268125 16.73125 4.53625 15.5625 4.8125 C13.7990625 5.4003125 13.7990625 5.4003125 12 6 C11.67 6.99 11.34 7.98 11 9 C10.34 9 9.68 9 9 9 C9 8.34 9 7.68 9 7 C7.906875 7.020625 6.81375 7.04125 5.6875 7.0625 C1.95730946 6.99927643 -0.4970748 6.16764173 -4 5 C-3.01 4.34 -2.02 3.68 -1 3 C-0.67 2.01 -0.34 1.02 0 0 Z " fill="#D33029" transform="translate(148,108)"/>
<path d="M0 0 C1.98 0 3.96 0 6 0 C6.66 1.32 7.32 2.64 8 4 C6 6 6 6 2.875 6.125 C1.451875 6.063125 1.451875 6.063125 0 6 C0 4.02 0 2.04 0 0 Z " fill="#CA3B2F" transform="translate(134,91)"/>
<path d="M0 0 C0.66 0 1.32 0 2 0 C2.12117188 0.78246094 2.24234375 1.56492187 2.3671875 2.37109375 C2.53476563 3.38300781 2.70234375 4.39492187 2.875 5.4375 C3.03742188 6.44683594 3.19984375 7.45617187 3.3671875 8.49609375 C3.57601562 9.32238281 3.78484375 10.14867188 4 11 C4.66 11.33 5.32 11.66 6 12 C6.72693904 13.97888961 7.39816251 15.97954558 8 18 C2.47637795 14.75787402 2.47637795 14.75787402 0.625 11.8125 C-0.25367705 7.8584533 -0.15813466 4.03243391 0 0 Z " fill="#C00908" transform="translate(90,63)"/>
<path d="M0 0 C1.98 0 3.96 0 6 0 C6 0.66 6 1.32 6 2 C4.68 2 3.36 2 2 2 C2 2.66 2 3.32 2 4 C2.99 4 3.98 4 5 4 C5.33 5.65 5.66 7.3 6 9 C4.02 9 2.04 9 0 9 C0 6.03 0 3.06 0 0 Z " fill="#DEAB8C" transform="translate(146,120)"/>
<path d="M0 0 C0.66 0.33 1.32 0.66 2 1 C2.77811718 4.81984796 3.24386556 7.26840331 2 11 C1.65179959 12.66362417 1.31595508 14.32995171 1 16 C0.34 16 -0.32 16 -1 16 C-1.02685095 13.52076199 -1.04676547 11.0418116 -1.0625 8.5625 C-1.07506836 7.50192383 -1.07506836 7.50192383 -1.08789062 6.41992188 C-1.09653588 4.61306441 -1.05220011 2.80612397 -1 1 C-0.67 0.67 -0.34 0.34 0 0 Z " fill="#D40200" transform="translate(150,96)"/>
<path d="M0 0 C0.99 0.33 1.98 0.66 3 1 C1.02 5.29 -0.96 9.58 -3 14 C-3.66 14 -4.32 14 -5 14 C-6.125 10.25 -6.125 10.25 -5 8 C-4.34 8 -3.68 8 -3 8 C-2.87625 7.4225 -2.7525 6.845 -2.625 6.25 C-1.99351176 3.97664233 -1.11141809 2.0746471 0 0 Z " fill="#BF1310" transform="translate(110,91)"/>
<path d="M0 0 C0.33 1.32 0.66 2.64 1 4 C2.65 4 4.3 4 6 4 C6.2475 4.639375 6.495 5.27875 6.75 5.9375 C7.81562433 8.18741541 7.81562433 8.18741541 10.125 8.75 C10.74375 8.8325 11.3625 8.915 12 9 C12 9.66 12 10.32 12 11 C8.20950293 9.57250019 4.72877544 7.83763458 1.1875 5.875 C-0.27623047 5.06675781 -0.27623047 5.06675781 -1.76953125 4.2421875 C-2.50558594 3.83226562 -3.24164063 3.42234375 -4 3 C-2.68 2.01 -1.36 1.02 0 0 Z " fill="#CC1712" transform="translate(79,191)"/>
<path d="M0 0 C2.31 0 4.62 0 7 0 C7.5625 1.9375 7.5625 1.9375 8 4 C7 5 7 5 3.4375 5.0625 C2.303125 5.041875 1.16875 5.02125 0 5 C0 3.35 0 1.7 0 0 Z " fill="#CC1712" transform="translate(134,103)"/>
<path d="M0 0 C0.66 0 1.32 0 2 0 C2 0.66 2 1.32 2 2 C2.66 2 3.32 2 4 2 C4.77403558 6.06368679 5.0984702 9.86425173 5 14 C2.36 14 -0.28 14 -3 14 C-2.67 13.34 -2.34 12.68 -2 12 C0.97 12.495 0.97 12.495 4 13 C3.71125 12.22914062 3.4225 11.45828125 3.125 10.6640625 C2.75375 9.66117188 2.3825 8.65828125 2 7.625 C1.62875 6.62726563 1.2575 5.62953125 0.875 4.6015625 C0 2 0 2 0 0 Z " fill="#D1211A" transform="translate(170,101)"/>
<path d="M0 0 C3.3 0.33 6.6 0.66 10 1 C9.67 1.99 9.34 2.98 9 4 C8.01 4 7.02 4 6 4 C6.66 4.33 7.32 4.66 8 5 C8 5.66 8 6.32 8 7 C6.35 6.67 4.7 6.34 3 6 C3 5.34 3 4.68 3 4 C2.34 4 1.68 4 1 4 C0.67 2.68 0.34 1.36 0 0 Z " fill="#6E090C" transform="translate(107,39)"/>
<path d="M0 0 C0.33 0 0.66 0 1 0 C1 4.29 1 8.58 1 13 C-1 12 -3 11 -5 10 C-3.35 6.7 -1.7 3.4 0 0 Z " fill="#C70907" transform="translate(52,102)"/>
<path d="M0 0 C0.66 0 1.32 0 2 0 C1.95875 0.7425 1.9175 1.485 1.875 2.25 C2.00624975 5.13749456 2.59742154 6.52486153 4 9 C4.33 9.99 4.66 10.98 5 12 C6.65 12 8.3 12 10 12 C10 12.66 10 13.32 10 14 C8.02 14 6.04 14 4 14 C3.12808053 12.61518672 2.27809616 11.21654754 1.4375 9.8125 C0.96183594 9.03519531 0.48617187 8.25789063 -0.00390625 7.45703125 C-1.19605797 4.51639033 -0.88855164 2.99553637 0 0 Z " fill="#E0CCA7" transform="translate(37,99)"/>
<path d="M0 0 C0.33 0 0.66 0 1 0 C1 1.65 1 3.3 1 5 C1.94875 4.814375 2.8975 4.62875 3.875 4.4375 C7 4 7 4 9 5 C9.33 4.01 9.66 3.02 10 2 C10.66 2 11.32 2 12 2 C12.33 3.98 12.66 5.96 13 8 C12.443125 7.855625 11.88625 7.71125 11.3125 7.5625 C7.4130866 6.61399404 4.04152856 6 0 6 C0 4.02 0 2.04 0 0 Z " fill="#B8080A" transform="translate(134,152)"/>
<path d="M0 0 C2.475 0.99 2.475 0.99 5 2 C5.33 4.31 5.66 6.62 6 9 C5.34 9 4.68 9 4 9 C3.566875 8.34 3.13375 7.68 2.6875 7 C1.14416344 4.69657929 1.14416344 4.69657929 -1.6875 4.75 C-2.8321875 4.87375 -2.8321875 4.87375 -4 5 C-3.01 4.67 -2.02 4.34 -1 4 C-0.26676204 1.98491642 -0.26676204 1.98491642 0 0 Z " fill="#2C0808" transform="translate(119,64)"/>
<path d="M0 0 C0.33 0 0.66 0 1 0 C1 2.31 1 4.62 1 7 C0.01 7 -0.98 7 -2 7 C-2 7.99 -2 8.98 -2 10 C-5 11 -5 11 -8 11 C-8.33 10.01 -8.66 9.02 -9 8 C-7.35 8 -5.7 8 -4 8 C-4 7.34 -4 6.68 -4 6 C-3.34 6 -2.68 6 -2 6 C-1.34 4.02 -0.68 2.04 0 0 Z " fill="#D70100" transform="translate(113,107)"/>
<path d="M0 0 C0.66 0.66 1.32 1.32 2 2 C1.9765625 4.3828125 1.9765625 4.3828125 1.625 7.125 C1.51414062 8.03507812 1.40328125 8.94515625 1.2890625 9.8828125 C1.19367188 10.58148438 1.09828125 11.28015625 1 12 C2.65 12 4.3 12 6 12 C5.34 13.32 4.68 14.64 4 16 C2.68 16 1.36 16 0 16 C0 10.72 0 5.44 0 0 Z " fill="#CE221A" transform="translate(96,101)"/>
<path d="M0 0 C0.99 0 1.98 0 3 0 C4.20628008 2.33214148 5.1654738 4.49642139 6 7 C5.01 7.33 4.02 7.66 3 8 C2.01 7.01 1.02 6.02 0 5 C-0.33 6.65 -0.66 8.3 -1 10 C-2.46726798 6.18510326 -1.43336419 3.70988378 0 0 Z " fill="#CF100C" transform="translate(161,80)"/>
<path d="M0 0 C1.98 0 3.96 0 6 0 C5.814375 1.11375 5.62875 2.2275 5.4375 3.375 C4.68319343 6.82568861 4.68319343 6.82568861 6 9 C5.01 9.33 4.02 9.66 3 10 C2.67 7.36 2.34 4.72 2 2 C1.34 2 0.68 2 0 2 C0 1.34 0 0.68 0 0 Z " fill="#270406" transform="translate(57,148)"/>
<path d="M0 0 C1.98 0 3.96 0 6 0 C4.68 0.33 3.36 0.66 2 1 C2 1.66 2 2.32 2 3 C2.99 3.33 3.98 3.66 5 4 C4.01 4 3.02 4 2 4 C2 4.66 2 5.32 2 6 C3.32 6 4.64 6 6 6 C6 6.66 6 7.32 6 8 C4.02 8 2.04 8 0 8 C0 5.36 0 2.72 0 0 Z " fill="#E1B797" transform="translate(37,121)"/>
<path d="M0 0 C0 0.66 0 1.32 0 2 C-0.66 2 -1.32 2 -2 2 C-1.690625 3.1446875 -1.690625 3.1446875 -1.375 4.3125 C-1 7 -1 7 -3 10 C-3.33 9.01 -3.66 8.02 -4 7 C-4.66 6.67 -5.32 6.34 -6 6 C-5.67 5.34 -5.34 4.68 -5 4 C-4.34 4.33 -3.68 4.66 -3 5 C-3 4.34 -3 3.68 -3 3 C-4.32 3 -5.64 3 -7 3 C-7 2.34 -7 1.68 -7 1 C-4 0 -4 0 0 0 Z " fill="#CA1310" transform="translate(137,118)"/>
<path d="M0 0 C1.45922693 0.11409593 2.91740598 0.24165544 4.375 0.375 C5.59316406 0.47941406 5.59316406 0.47941406 6.8359375 0.5859375 C9 1 9 1 11 3 C7.92382812 3.29296875 7.92382812 3.29296875 4.84765625 3.5859375 C4.23792969 3.72257812 3.62820312 3.85921875 3 4 C2.67 4.66 2.34 5.32 2 6 C0.02 6 -1.96 6 -4 6 C-2.68 5.34 -1.36 4.68 0 4 C0 2.68 0 1.36 0 0 Z " fill="#E1CEAA" transform="translate(68,108)"/>
<path d="M0 0 C1.65 0 3.3 0 5 0 C5 0.66 5 1.32 5 2 C4.67 2.33 4.34 2.66 4 3 C4.40929986 5.05396726 4.40929986 5.05396726 5 7 C3.68 7.33 2.36 7.66 1 8 C1 7.01 1 6.02 1 5 C0.67 4.67 0.34 4.34 0 4 C0 2.68 0 1.36 0 0 Z " fill="#E6BA98" transform="translate(129,121)"/>
<path d="M0 0 C1.65 0 3.3 0 5 0 C5 0.66 5 1.32 5 2 C4.67 2.33 4.34 2.66 4 3 C4.40929986 5.05396726 4.40929986 5.05396726 5 7 C3.68 7.33 2.36 7.66 1 8 C0.17361624 5.10765685 0 3.11257569 0 0 Z " fill="#E5B896" transform="translate(28,121)"/>
<path d="M0 0 C1.65 0 3.3 0 5 0 C1.2064129 3.21880117 -2.65829477 5.6163187 -7 8 C-7 7.01 -7 6.02 -7 5 C-5 3.3125 -5 3.3125 -3 2 C-2.34 2.33 -1.68 2.66 -1 3 C-0.67 2.01 -0.34 1.02 0 0 Z " fill="#CC1410" transform="translate(137,182)"/>
<path d="M0 0 C0.33 0 0.66 0 1 0 C1 1.98 1 3.96 1 6 C1.99 6 2.98 6 4 6 C4 4.02 4 2.04 4 0 C4.66 0 5.32 0 6 0 C6 2.31 6 4.62 6 7 C4.34385343 7.38218767 2.67542976 7.71395102 1 8 C0 7 0 7 -0.0625 3.4375 C-0.041875 2.303125 -0.02125 1.16875 0 0 Z " fill="#E3C09B" transform="translate(58,121)"/>
<path d="M0 0 C0.33 0.99 0.66 1.98 1 3 C0.34 3 -0.32 3 -1 3 C-0.814375 3.721875 -0.62875 4.44375 -0.4375 5.1875 C0.01995307 8.12826973 -0.26483643 10.14103058 -1 13 C-1.66 13 -2.32 13 -3 13 C-3.08121924 11.39667209 -3.13929134 9.79215974 -3.1875 8.1875 C-3.22230469 7.29417969 -3.25710937 6.40085937 -3.29296875 5.48046875 C-2.95081002 2.58352485 -2.24606427 1.77444972 0 0 Z " fill="#D60000" transform="translate(64,101)"/>
<path d="M0 0 C0.99 0.33 1.98 0.66 3 1 C3 1.66 3 2.32 3 3 C2.34 3 1.68 3 1 3 C0.67 2.01 0.34 1.02 0 0 Z M-9 2 C-5.7 2.33 -2.4 2.66 1 3 C0.67 3.99 0.34 4.98 0 6 C-4.455 5.01 -4.455 5.01 -9 4 C-9 3.34 -9 2.68 -9 2 Z " fill="#DDBB9C" transform="translate(179,17)"/>
<path d="M0 0 C-2.89654753 2.46742938 -5.14879822 3.80250247 -9 4 C-10.8125 2.5625 -10.8125 2.5625 -12 1 C-10.68 1.33 -9.36 1.66 -8 2 C-8 1.34 -8 0.68 -8 0 C-4.71023192 -1.09658936 -3.28696233 -0.79953138 0 0 Z " fill="#CB1510" transform="translate(107,203)"/>
<path d="M0 0 C1.125 3.75 1.125 3.75 0 6 C0.99 6.33 1.98 6.66 3 7 C3.33 7.99 3.66 8.98 4 10 C1.69 10 -0.62 10 -3 10 C-2.39009109 6.44219804 -1.4216319 3.3171411 0 0 Z " fill="#DEA084" transform="translate(66,105)"/>
<path d="M0 0 C0.99 0.33 1.98 0.66 3 1 C2.34 2.98 1.68 4.96 1 7 C-0.65 7.33 -2.3 7.66 -4 8 C-3.6875 6.0625 -3.6875 6.0625 -3 4 C-2.01 3.67 -1.02 3.34 0 3 C0 2.01 0 1.02 0 0 Z " fill="#D5C7A2" transform="translate(108,104)"/>
<path d="M0 0 C0.6875 1.625 0.6875 1.625 1 4 C-0.4375 7.25 -0.4375 7.25 -2 10 C-4 8 -4 8 -4.125 4.875 C-4.08375 3.92625 -4.0425 2.9775 -4 2 C-2.68 1.34 -1.36 0.68 0 0 Z " fill="#CE0E0B" transform="translate(49,90)"/>
<path d="M0 0 C-0.99 1.485 -0.99 1.485 -2 3 C-3.66614608 3.04165365 -5.33385392 3.04165365 -7 3 C-7.66 3.66 -8.32 4.32 -9 5 C-9.33 3.68 -9.66 2.36 -10 1 C-6.21812119 -0.83691257 -4.05431692 -1.15837626 0 0 Z " fill="#D0100D" transform="translate(22,25)"/>
<path d="M0 0 C1.1171875 1.703125 1.1171875 1.703125 2 4 C1.3203125 6.359375 1.3203125 6.359375 0.125 8.75 C-0.26429687 9.54921875 -0.65359375 10.3484375 -1.0546875 11.171875 C-1.36664063 11.77515625 -1.67859375 12.3784375 -2 13 C-2.97608217 10.07175348 -3.08226668 8.04386724 -3 5 C-2.34 5 -1.68 5 -1 5 C-0.67 3.35 -0.34 1.7 0 0 Z " fill="#CD0D0A" transform="translate(66,99)"/>
<path d="M0 0 C0.33 0.66 0.66 1.32 1 2 C3.02463255 2.65213292 3.02463255 2.65213292 5 3 C5 3.66 5 4.32 5 5 C4.01 5.66 3.02 6.32 2 7 C2.33 7.66 2.66 8.32 3 9 C2.01 9 1.02 9 0 9 C0 7.02 0 5.04 0 3 C-0.66 2.67 -1.32 2.34 -2 2 C-1.34 2 -0.68 2 0 2 C0 1.34 0 0.68 0 0 Z " fill="#C00808" transform="translate(94,143)"/>
<path d="M0 0 C0.33 0 0.66 0 1 0 C1 4.29 1 8.58 1 13 C2.32 13 3.64 13 5 13 C5 13.66 5 14.32 5 15 C3.02 15 1.04 15 -1 15 C-0.67 10.05 -0.34 5.1 0 0 Z " fill="#DEBB9D" transform="translate(91,100)"/>
<path d="M0 0 C0.66 0 1.32 0 2 0 C1.01 2.97 0.02 5.94 -1 9 C-1.66 9 -2.32 9 -3 9 C-3.66 6.36 -4.32 3.72 -5 1 C-3.68 1.33 -2.36 1.66 -1 2 C-0.67 1.34 -0.34 0.68 0 0 Z " fill="#E4B596" transform="translate(97,120)"/>
<path d="M0 0 C1.2065625 0.0309375 1.2065625 0.0309375 2.4375 0.0625 C2.1075 0.7225 1.7775 1.3825 1.4375 2.0625 C0.4475 2.0625 -0.5425 2.0625 -1.5625 2.0625 C-1.5625 3.0525 -1.5625 4.0425 -1.5625 5.0625 C-0.2425 5.3925 1.0775 5.7225 2.4375 6.0625 C2.4375 6.7225 2.4375 7.3825 2.4375 8.0625 C0.77138095 8.105221 -0.89632885 8.10313832 -2.5625 8.0625 C-3.5625 7.0625 -3.5625 7.0625 -3.6875 4.0625 C-3.52180824 0.08589776 -3.52180824 0.08589776 0 0 Z " fill="#E7C4A1" transform="translate(50.5625,120.9375)"/>
<path d="M0 0 C0.66 1.32 1.32 2.64 2 4 C-1.05263664 4.98120464 -2.94736336 4.98120464 -6 4 C-6 3.34 -6 2.68 -6 2 C-2.25 0 -2.25 0 0 0 Z " fill="#D8CBA5" transform="translate(141,98)"/>
<path d="M0 0 C7.48291572 6.15034169 7.48291572 6.15034169 10 10 C7 10 7 10 5.17578125 8.3203125 C4.56089844 7.59585938 3.94601563 6.87140625 3.3125 6.125 C2.68988281 5.40570313 2.06726563 4.68640625 1.42578125 3.9453125 C0 2 0 2 0 0 Z " fill="#E1BE9A" transform="translate(24,155)"/>
<path d="M0 0 C0.33 0 0.66 0 1 0 C1.22304441 1.74818591 1.4278645 3.49870323 1.625 5.25 C1.74101562 6.22453125 1.85703125 7.1990625 1.9765625 8.203125 C2.00112537 11.13429393 1.5312717 12.54528964 0 15 C-0.33 15 -0.66 15 -1 15 C-0.67 10.05 -0.34 5.1 0 0 Z " fill="#E0CAA5" transform="translate(188,116)"/>
<path d="M0 0 C2 1 2 1 3.25 3.8125 C4.08952186 7.38046792 3.75258419 7.98529362 2 11 C1.47007308 9.54494642 0.9513211 8.08581873 0.4375 6.625 C0.14746094 5.81289062 -0.14257812 5.00078125 -0.44140625 4.1640625 C-1 2 -1 2 0 0 Z " fill="#C2110B" transform="translate(77,83)"/>
<path d="M0 0 C1.98 0 3.96 0 6 0 C6 0.66 6 1.32 6 2 C6.66 2.33 7.32 2.66 8 3 C7.01 4.485 7.01 4.485 6 6 C3.97945196 4.35830472 1.97956942 2.69088222 0 1 C0 0.67 0 0.34 0 0 Z " fill="#CC0D08" transform="translate(40,169)"/>
<path d="M0 0 C0 0.99 0 1.98 0 3 C-1.32 3.33 -2.64 3.66 -4 4 C-4 3.01 -4 2.02 -4 1 C-6.31 1 -8.62 1 -11 1 C-11 0.67 -11 0.34 -11 0 C-6.98195309 -0.84098656 -3.98196457 -1.05404945 0 0 Z " fill="#DEAD91" transform="translate(146,108)"/>
<path d="M0 0 C0.99 0.33 1.98 0.66 3 1 C3.99 1 4.98 1 6 1 C5.34 3.31 4.68 5.62 4 8 C3.34 8 2.68 8 2 8 C1.34 5.36 0.68 2.72 0 0 Z " fill="#E3BF98" transform="translate(119,121)"/>
<path d="M0 0 C1.98 0.99 3.96 1.98 6 3 C4.25 4.5625 4.25 4.5625 2 6 C-0.25 5.6875 -0.25 5.6875 -2 5 C-2 4.34 -2 3.68 -2 3 C-1.34 3 -0.68 3 0 3 C0 2.01 0 1.02 0 0 Z " fill="#CE241D" transform="translate(120,117)"/>
<path d="M0 0 C2.97 0 5.94 0 9 0 C9 0.33 9 0.66 9 1 C7.2984375 1.4021875 7.2984375 1.4021875 5.5625 1.8125 C4.386875 2.204375 3.21125 2.59625 2 3 C1.67 3.99 1.34 4.98 1 6 C0.34 6 -0.32 6 -1 6 C-0.67 4.02 -0.34 2.04 0 0 Z " fill="#CB271E" transform="translate(158,111)"/>
<path d="M0 0 C0.66 0 1.32 0 2 0 C2.33 2.31 2.66 4.62 3 7 C1.68 7 0.36 7 -1 7 C-0.67 4.69 -0.34 2.38 0 0 Z " fill="#D02B25" transform="translate(74,99)"/>
<path d="M0 0 C1.32 0.33 2.64 0.66 4 1 C1.525 4.465 1.525 4.465 -1 8 C-2.2077558 4.37673261 -1.54311128 3.35853631 0 0 Z " fill="#C7060A" transform="translate(77,48)"/>
<path d="M0 0 C1.125 3.75 1.125 3.75 0 6 C0.99 5.67 1.98 5.34 3 5 C3 6.32 3 7.64 3 9 C2.01 9 1.02 9 0 9 C0 8.34 0 7.68 0 7 C-0.66 7 -1.32 7 -2 7 C-1.34 4.69 -0.68 2.38 0 0 Z " fill="#E2BC9C" transform="translate(183,139)"/>
<path d="M0 0 C0.33 0.66 0.66 1.32 1 2 C1.99 2 2.98 2 4 2 C3.34 3.32 2.68 4.64 2 6 C-0.97 5.505 -0.97 5.505 -4 5 C-3.01 4.34 -2.02 3.68 -1 3 C-0.67 2.01 -0.34 1.02 0 0 Z " fill="#C60D06" transform="translate(33,125)"/>
<path d="M0 0 C0 0.99 0 1.98 0 3 C-1.32 3.33 -2.64 3.66 -4 4 C-4.66 2.68 -5.32 1.36 -6 0 C-3 -1 -3 -1 0 0 Z " fill="#CE0C07" transform="translate(25,146)"/>
<path d="M0 0 C2.475 0.495 2.475 0.495 5 1 C5 1.99 5 2.98 5 4 C3.35 4 1.7 4 0 4 C0 2.68 0 1.36 0 0 Z " fill="#D00000" transform="translate(135,92)"/>
<path d="M0 0 C0.99 0.33 1.98 0.66 3 1 C3 1.66 3 2.32 3 3 C3.66 3.33 4.32 3.66 5 4 C4.01 4.33 3.02 4.66 2 5 C1.67 4.67 1.34 4.34 1 4 C-0.34747084 3.76924918 -1.70377565 3.58846937 -3.0625 3.4375 C-4.361875 3.293125 -5.66125 3.14875 -7 3 C-7 2.67 -7 2.34 -7 2 C-4.69 2 -2.38 2 0 2 C0 1.34 0 0.68 0 0 Z " fill="#2D0504" transform="translate(96,80)"/>
<path d="M0 0 C0 0.66 0 1.32 0 2 C-1.32 2.33 -2.64 2.66 -4 3 C-4.33 4.32 -4.66 5.64 -5 7 C-5.66 6.67 -6.32 6.34 -7 6 C-7 5.01 -7 4.02 -7 3 C-2.77777778 0 -2.77777778 0 0 0 Z " fill="#E0BF9E" transform="translate(115,199)"/>
<path d="M0 0 C1.65 0 3.3 0 5 0 C4.67 0.99 4.34 1.98 4 3 C4.99 3.33 5.98 3.66 7 4 C5.68 4.33 4.36 4.66 3 5 C2.01 3.35 1.02 1.7 0 0 Z " fill="#C8090C" transform="translate(64,143)"/>
<path d="M0 0 C2.64 0 5.28 0 8 0 C8.66 1.32 9.32 2.64 10 4 C8.35 3.67 6.7 3.34 5 3 C5 2.67 5 2.34 5 2 C3.35 1.67 1.7 1.34 0 1 C0 0.67 0 0.34 0 0 Z " fill="#CB251D" transform="translate(71,111)"/>
<path d="M0 0 C0.33 0 0.66 0 1 0 C1 1.98 1 3.96 1 6 C1.66 6 2.32 6 3 6 C3 7.32 3 8.64 3 10 C2.01 10 1.02 10 0 10 C0 6.7 0 3.4 0 0 Z " fill="#D50000" transform="translate(97,103)"/>
<path d="M0 0 C0.99 0.33 1.98 0.66 3 1 C2.01 2.98 1.02 4.96 0 7 C-0.66 7 -1.32 7 -2 7 C-1.125 1.125 -1.125 1.125 0 0 Z " fill="#CF130E" transform="translate(110,91)"/>
<path d="M0 0 C2.31 0 4.62 0 7 0 C2.25 4 2.25 4 0 4 C0 2.68 0 1.36 0 0 Z " fill="#CA0A08" transform="translate(122,190)"/>
<path d="M0 0 C1.32 0.33 2.64 0.66 4 1 C4 1.99 4 2.98 4 4 C4.66 4.66 5.32 5.32 6 6 C5.01 6 4.02 6 3 6 C0 2.66666667 0 2.66666667 0 0 Z " fill="#CD0F08" transform="translate(149,168)"/>
<path d="M0 0 C0.99 0.33 1.98 0.66 3 1 C3.6875 3.0625 3.6875 3.0625 4 5 C3.34 5 2.68 5 2 5 C1.34 5.99 0.68 6.98 0 8 C0 5.36 0 2.72 0 0 Z " fill="#E1C6A1" transform="translate(156,121)"/>
<path d="M0 0 C0.66 0 1.32 0 2 0 C1.34 2.31 0.68 4.62 0 7 C-0.66 7 -1.32 7 -2 7 C-2.125 4.625 -2.125 4.625 -2 2 C-1.34 1.34 -0.68 0.68 0 0 Z " fill="#C91C15" transform="translate(98,122)"/>
<path d="M0 0 C1.65 0 3.3 0 5 0 C5 1.32 5 2.64 5 4 C3.35 4 1.7 4 0 4 C0 2.68 0 1.36 0 0 Z " fill="#D0201A" transform="translate(39,122)"/>
<path d="M0 0 C-0.99 0.495 -0.99 0.495 -2 1 C-2.65213292 3.02463255 -2.65213292 3.02463255 -3 5 C-3.99 4.67 -4.98 4.34 -6 4 C-5.67 3.34 -5.34 2.68 -5 2 C-4.34 2.33 -3.68 2.66 -3 3 C-3 2.34 -3 1.68 -3 1 C-4.32 0.67 -5.64 0.34 -7 0 C-3.98968256 -0.93423645 -3.13349732 -1.04449911 0 0 Z " fill="#C71A15" transform="translate(36,120)"/>
<path d="M0 0 C0.99 0.33 1.98 0.66 3 1 C2.0022242 3.99332739 1.2477975 4.94766315 -1 7 C-1.66 6.67 -2.32 6.34 -3 6 C-2.01 4.02 -1.02 2.04 0 0 Z " fill="#DFCAA6" transform="translate(145,101)"/>
<path d="" fill="#D0C3B0" transform="translate(0,0)"/>
<path d="" fill="#DAC9B6" transform="translate(0,0)"/>
<path d="" fill="#D3C8B1" transform="translate(0,0)"/>
<path d="" fill="#D8C4B5" transform="translate(0,0)"/>
<path d="" fill="#D2C6B1" transform="translate(0,0)"/>
<path d="" fill="#D3C6B4" transform="translate(0,0)"/>
<path d="" fill="#DFD1BD" transform="translate(0,0)"/>
<path d="" fill="#E0DFCE" transform="translate(0,0)"/>
<path d="" fill="#E0D7C7" transform="translate(0,0)"/>
<path d="" fill="#D8C9BD" transform="translate(0,0)"/>
<path d="" fill="#F3D7B9" transform="translate(0,0)"/>
<path d="" fill="#DBD1BD" transform="translate(0,0)"/>
</svg>
