<svg version="1.1" id="Layer_1" xmlns="http://www.w3.org/2000/svg" xmlns:xlink="http://www.w3.org/1999/xlink" x="0px" y="0px"
	 width="100%" viewBox="0 0 200 217" enable-background="new 0 0 200 217" xml:space="preserve">
<path fill="#D8C5A2" opacity="1.000000" stroke="none" 
	d="
M146.782410,1.223136 
	C147.444443,1.000000 147.888901,1.000000 148.666672,1.000000 
	C149.441971,1.476593 149.975128,1.904525 150.186752,2.534318 
	C150.880096,4.597593 151.568054,6.729189 154.348831,6.465683 
	C156.912018,6.222795 155.952194,3.605063 156.949631,2.282404 
	C157.142807,2.026255 157.297562,1.737210 157.762817,1.249762 
	C158.750000,1.000000 159.500000,1.000000 160.625000,1.000000 
	C162.859558,2.571600 162.529373,4.909071 163.075500,6.939565 
	C163.410156,8.183732 164.205582,9.029843 165.473999,9.119382 
	C167.229279,9.243285 167.014069,7.737117 167.184418,6.677222 
	C167.468994,4.906627 167.197754,3.003365 168.762726,1.252739 
	C169.000000,1.000000 169.500000,1.000000 169.750000,1.000000 
	C171.650772,2.468602 171.811310,4.476428 171.737701,6.440041 
	C171.614304,9.730593 173.037903,11.720483 176.568710,12.538965 
	C177.153061,12.628807 177.385574,12.668362 177.955521,12.795778 
	C181.315247,14.020827 181.012589,11.729911 181.216385,10.017881 
	C181.556137,7.163836 180.603348,4.113830 182.761993,1.251041 
	C183.000000,1.000000 183.500000,1.000000 183.750000,1.000000 
	C186.547791,3.615964 185.688538,6.942251 185.750366,10.014809 
	C185.813828,13.168821 186.289825,15.973187 189.590897,17.880966 
	C190.581635,18.320042 191.274994,18.493204 192.366211,18.560070 
	C193.985214,18.744125 195.327194,18.279936 196.786087,19.421818 
	C199.135712,22.368484 199.519287,25.394127 199.523270,28.660254 
	C199.553314,53.312481 199.306213,77.965309 199.722168,103.053818 
	C200.173462,106.601433 199.931122,109.723228 199.980652,113.221931 
	C200.155411,115.556870 197.688690,117.300789 199.651764,119.691345 
	C200.137360,121.958870 199.754608,123.935219 199.884064,126.210495 
	C199.608566,127.281464 199.333237,128.035156 199.635620,129.155182 
	C199.744949,129.893692 199.700546,130.318512 199.435211,131.031830 
	C198.328979,132.476410 195.146103,133.213608 198.815826,135.401581 
	C199.160309,135.830841 199.257660,136.031372 199.338028,136.563904 
	C198.599304,138.473953 196.657791,138.109802 195.491165,139.481537 
	C194.844452,140.657898 194.470581,141.611374 194.189041,142.940491 
	C193.842422,144.316208 193.507507,145.358932 192.976151,146.685181 
	C192.199890,148.128387 191.323364,149.110962 190.561798,150.545898 
	C190.395020,151.057404 190.335663,151.264923 190.157196,151.773849 
	C189.855606,152.465363 189.657501,152.847321 189.287201,153.501343 
	C189.016876,153.961960 188.902771,154.142258 188.601685,154.580292 
	C187.782013,155.425537 187.393280,156.155899 187.045883,157.277832 
	C186.307053,158.957474 185.681824,160.336563 184.949951,162.027863 
	C184.158493,163.463654 183.558456,164.631912 182.627289,165.983093 
	C180.559830,167.288834 178.542175,168.082626 176.726074,169.819550 
	C173.760712,171.578247 171.389709,173.546326 169.063263,176.087677 
	C168.264008,176.996521 167.510651,177.464981 166.661804,178.307220 
	C165.788284,179.073578 164.948364,179.334290 164.175110,180.213440 
	C163.689438,180.771118 163.391098,181.073425 162.846313,181.589340 
	C162.274872,182.095306 161.923660,182.356155 161.270294,182.762939 
	C160.785522,183.024307 160.585571,183.116287 160.072784,183.304565 
	C157.894516,183.799713 157.051498,185.352432 155.830597,186.966141 
	C154.920563,188.101105 153.764679,188.382217 152.751648,189.404007 
	C152.303207,189.725571 152.115311,189.842026 151.629868,190.102783 
	C150.704025,190.446548 150.101242,190.705292 149.225174,191.167938 
	C146.544601,193.695908 143.080688,194.549332 140.566345,197.355804 
	C139.544937,201.841782 140.119186,206.079269 139.923019,210.291138 
	C139.817551,212.555359 139.994598,214.882080 138.108002,217.011963 
	C134.623917,216.375137 135.614716,213.645340 135.285873,211.578873 
	C134.706314,207.937012 136.217285,204.104080 133.986450,200.536194 
	C130.946106,200.722733 129.263657,202.671783 127.122070,204.503418 
	C126.532234,205.048355 126.168968,205.326904 125.504059,205.770447 
	C124.822502,206.175156 124.414879,206.369644 123.725243,206.735382 
	C121.346024,209.823181 123.367027,213.389252 121.691414,216.668228 
	C121.276703,217.079086 121.076530,217.205521 120.521538,217.336502 
	C117.216660,215.792435 119.813004,212.100632 117.160332,210.425842 
	C115.606079,211.396896 114.346161,212.264877 112.597137,212.941467 
	C109.143181,213.614975 106.973648,215.875229 104.231674,217.769531 
	C101.299988,218.000000 98.599968,218.000000 95.449982,218.000000 
	C94.666893,217.660339 94.253159,217.370422 94.011772,216.974777 
	C92.069588,213.791565 90.636253,214.564926 89.227379,217.763596 
	C88.555557,218.000000 88.111107,218.000000 87.333328,218.000000 
	C85.387871,216.682526 85.459442,214.856232 85.507019,213.037476 
	C85.453896,214.595001 85.704308,216.219406 84.236519,217.751312 
	C83.555557,218.000000 83.111107,218.000000 82.333328,218.000000 
	C80.215698,216.397171 80.446953,214.200867 80.204308,212.115952 
	C80.002686,210.383514 80.448898,208.482071 78.774742,206.803131 
	C75.183228,204.871841 72.304947,202.355057 68.287544,201.235367 
	C67.298775,200.861160 66.726303,200.454361 65.854477,199.891525 
	C64.022003,197.614059 61.665760,197.244949 59.061714,196.629700 
	C57.602039,195.500427 57.018375,193.974472 55.414642,192.961975 
	C53.709572,191.452179 52.206448,190.218155 50.155884,189.180634 
	C49.458691,188.830826 49.075546,188.601303 48.427963,188.159775 
	C44.534481,185.339233 40.979309,182.627289 37.091171,179.817230 
	C36.617435,179.551498 36.421192,179.458893 35.934669,179.221191 
	C35.087776,178.754303 34.581814,178.358322 33.802345,177.802460 
	C32.918327,177.069305 32.375576,176.428024 31.453846,175.740677 
	C30.451357,174.836731 29.720232,174.097626 28.599152,173.332047 
	C27.370777,172.631042 26.563486,171.906219 25.557579,170.907227 
	C24.901115,170.169922 24.509783,169.640182 23.841652,168.909119 
	C21.945253,166.834290 20.118114,165.184067 17.798473,163.581329 
	C16.444201,161.901184 16.170288,160.087692 15.250921,158.204987 
	C14.691467,157.163849 14.307288,156.395584 13.470972,155.537628 
	C13.032500,154.913483 12.829730,154.528259 12.547493,153.819336 
	C11.264430,151.667709 10.429253,149.636276 9.081615,147.502563 
	C8.000762,144.403290 5.993958,142.711945 3.065624,141.461273 
	C2.749153,140.996719 2.679400,140.777267 2.669694,140.219711 
	C5.804841,137.983566 2.567758,136.856537 2.117232,134.998474 
	C1.942368,128.190475 2.013413,121.765068 2.033758,114.895279 
	C2.722603,109.998009 2.758418,105.542557 2.070078,100.620148 
	C1.970685,75.021294 1.995989,49.886497 2.034024,24.286570 
	C2.960264,18.557703 2.306036,13.247826 2.523729,7.964102 
	C2.610977,5.846479 2.110924,3.631625 3.715519,1.343971 
	C4.750000,1.000000 5.500000,1.000000 6.625000,1.000000 
	C9.558481,3.789043 8.184832,7.210916 8.449439,10.353380 
	C8.653649,12.778569 8.429668,15.231620 8.593695,17.949711 
	C8.819703,18.549547 9.066662,18.775028 9.693249,18.838684 
	C10.333281,18.692621 10.691628,18.562674 11.309008,18.275692 
	C12.096207,17.854122 12.634046,17.600439 13.370283,17.082973 
	C13.964603,16.670881 14.321231,16.451578 14.977844,16.089853 
	C15.479431,15.855881 15.688678,15.776667 16.229017,15.624590 
	C16.782328,15.501376 17.004541,15.451026 17.548147,15.277644 
	C20.394127,14.203214 21.208784,12.314319 21.252104,9.707044 
	C21.297937,6.948610 20.648180,4.020991 22.760666,1.262531 
	C23.000000,1.000000 23.500000,1.000000 23.750000,1.000000 
	C26.983528,4.225791 24.635092,8.317037 25.954559,12.044821 
	C26.325251,12.286201 26.501596,12.327236 26.944208,12.347773 
	C27.553196,12.200644 27.875610,12.033849 28.425745,11.681116 
	C29.188337,11.224503 29.741362,10.999535 30.609909,10.724335 
	C31.330353,10.585561 31.749140,10.534275 32.482750,10.419484 
	C33.618980,10.051157 34.454231,9.801003 35.646191,9.613871 
	C37.525528,9.411671 38.968323,8.851605 40.755539,8.255946 
	C45.295166,7.452661 49.019356,6.058841 50.759869,1.252970 
	C51.750000,1.000000 52.500000,1.000000 53.625000,1.000000 
	C54.582039,1.572973 55.110203,2.191210 55.799614,2.950813 
	C56.764004,2.720775 57.000237,1.926468 57.781578,1.223966 
	C58.750000,1.000000 59.500000,1.000000 60.625000,1.000000 
	C62.681347,3.013916 64.461449,3.884359 66.762314,1.238564 
	C82.020897,1.000000 97.041786,1.000000 112.531342,1.000000 
	C115.469131,1.853637 118.005356,1.582195 120.766663,1.224607 
	C126.022095,1.000000 131.044189,1.000000 136.533142,1.000000 
	C138.072189,2.102540 139.174881,2.956300 140.784302,1.218869 
	C141.444443,1.000000 141.888901,1.000000 142.666672,1.000000 
	C144.056915,2.197969 145.091095,3.577582 146.782410,1.223136 
z"/>
<path fill="#E5D5BE" opacity="1.000000" stroke="none" 
	d="
M24.588676,167.771744 
	C25.330046,168.453476 25.638693,168.918671 25.979038,169.671112 
	C27.497200,172.143265 27.497042,174.625107 27.494438,177.127319 
	C27.483070,188.056625 27.484625,198.985992 27.491751,209.915329 
	C27.492937,211.736481 27.449648,213.562881 28.138889,215.777618 
	C28.323933,216.529800 28.357355,216.839874 28.195389,217.574966 
	C19.979099,218.000000 11.958199,218.000000 3.468649,218.000000 
	C2.060337,216.908737 2.007605,215.579849 2.014355,214.244507 
	C2.088901,199.496063 1.794369,184.746338 2.329186,169.536636 
	C3.332494,167.909683 4.580669,167.307419 5.902205,167.268356 
	C11.988398,167.088440 18.092802,166.214813 24.588676,167.771744 
z"/>
<path fill="#E5E5C8" opacity="1.000000" stroke="none" 
	d="
M181.668365,166.366638 
	C182.203064,164.632416 181.536591,163.002136 183.564209,162.026703 
	C188.610535,158.760925 193.554840,159.676132 198.914948,161.395874 
	C200.086121,162.904663 199.984177,164.255173 199.985764,165.570038 
	C200.005310,181.796036 200.012161,198.022049 199.984802,214.248062 
	C199.983124,215.241333 199.962814,216.238403 199.275421,217.586960 
	C193.645065,218.000000 188.290146,218.000000 182.467606,218.000000 
	C180.311752,216.374344 179.986740,214.294312 179.980408,212.084290 
	C179.942062,198.694916 179.936371,185.305588 179.986588,171.916245 
	C179.993484,170.079681 180.129974,168.271286 181.668365,166.366638 
z"/>
<path fill="#000000" opacity="1.000000" stroke="none" 
	d="
M199.500000,218.000000 
	C198.994980,199.644775 198.989975,181.289566 198.909698,162.471619 
	C197.888016,160.921265 197.348038,159.679962 197.435699,157.806793 
	C197.493591,156.857269 197.504120,156.315659 197.493011,155.372314 
	C197.404694,153.909882 197.155518,152.852432 197.433960,151.388855 
	C197.407913,149.940353 197.149811,148.890411 197.428101,147.439148 
	C197.419922,145.990356 197.146454,144.939560 197.428604,143.483734 
	C197.445282,142.020218 197.183914,140.949570 197.586060,139.491867 
	C197.806427,138.569412 198.037674,138.085068 198.600006,137.320160 
	C198.887268,136.833633 198.927673,136.667892 198.904068,136.254364 
	C197.775665,134.696136 197.499008,133.287643 198.573883,131.368958 
	C198.884842,130.551422 198.931458,130.108749 198.909409,129.337524 
	C198.569489,128.592316 198.463669,128.134628 198.668762,127.319473 
	C199.391525,124.922218 197.896225,122.799850 198.910278,120.366470 
	C197.936600,118.668030 197.886932,117.247917 198.611908,115.386780 
	C198.883774,111.627029 198.931076,108.249268 198.901855,104.416199 
	C198.128601,99.335251 198.539963,94.681137 198.527374,90.042999 
	C198.471832,69.602081 198.487274,49.160904 198.512329,28.719864 
	C198.520859,21.754061 196.074448,14.987407 196.937531,7.946813 
	C197.198456,5.818487 196.873230,3.595921 198.673676,1.378748 
	C199.620865,1.349880 200.736679,0.284867 200.956696,1.507790 
	C201.160019,2.637877 201.000000,3.833333 201.000000,5.000000 
	C201.000000,74.666664 201.007858,144.333344 200.939667,213.999939 
	C200.938400,215.296341 202.067337,217.100174 199.500000,218.000000 
z"/>
<path fill="#000000" opacity="1.000000" stroke="none" 
	d="
M3.429721,168.660431 
	C3.113260,184.325928 3.048877,199.647614 3.035584,214.969345 
	C3.034926,215.728363 3.479067,216.487793 3.358047,217.623505 
	C2.378012,217.654465 1.265992,218.707947 1.044084,217.497589 
	C0.837614,216.371429 1.000000,215.177628 1.000000,214.013611 
	C1.000000,144.338623 0.992223,74.663620 1.060038,4.988700 
	C1.061296,3.695571 -0.062540,1.896015 2.500000,1.000000 
	C4.110267,8.009733 3.214706,15.065376 3.323386,22.549110 
	C3.114930,48.700581 3.065910,74.397324 3.096495,100.558136 
	C3.847790,105.038795 3.370592,109.081558 3.296617,113.551956 
	C3.099037,121.025085 3.056238,128.057892 3.096444,135.553833 
	C3.962893,137.011749 4.141160,138.092468 3.397739,139.629410 
	C3.109939,140.160492 3.065748,140.331635 3.096000,140.757263 
	C4.422657,142.406662 4.883070,144.042496 4.623068,146.314575 
	C4.757967,148.702240 5.045541,150.660553 4.659573,153.041916 
	C4.536801,153.999298 4.505917,154.548950 4.494384,155.510422 
	C4.491512,156.469299 4.496227,157.017487 4.533920,157.977234 
	C4.861754,160.045914 4.954917,161.704193 4.574631,163.787781 
	C4.685380,165.666855 4.648527,167.088837 3.429721,168.660431 
z"/>
<path fill="#D5C8B2" opacity="1.000000" stroke="none" 
	d="
M36.667702,178.389221 
	C40.849747,180.852325 44.721519,183.688583 48.795914,186.789948 
	C46.952774,194.518951 48.403233,202.142303 47.971214,209.680038 
	C47.821964,212.284195 48.339348,215.001419 46.292976,217.655731 
	C43.299988,218.000000 40.599972,218.000000 37.449982,218.000000 
	C36.794598,217.747986 36.589191,217.495972 36.146919,216.817902 
	C35.535240,203.842453 34.686646,191.287445 36.667702,178.389221 
z"/>
<path fill="#D5C4AE" opacity="1.000000" stroke="none" 
	d="
M167.873154,176.445892 
	C168.914230,172.096695 172.597824,171.131531 175.606598,169.037857 
	C177.901566,170.483734 177.993820,172.661835 178.005508,174.827362 
	C178.072525,187.239853 178.063416,199.652481 178.013550,212.065063 
	C178.006165,213.903809 177.870560,215.714508 176.327667,217.619415 
	C173.958328,218.000000 171.916672,218.000000 169.437500,218.000000 
	C167.857300,216.858109 167.542221,215.422745 167.550003,213.878326 
	C167.612045,201.556702 167.225067,189.232559 167.873154,176.445892 
z"/>
<path fill="#E1D8C5" opacity="1.000000" stroke="none" 
	d="
M176.428467,218.000000 
	C175.993988,201.974518 175.987991,185.949036 175.964905,169.453186 
	C177.796844,168.055054 177.921417,164.114212 181.659363,165.944458 
	C182.021210,183.011124 182.049850,200.038086 182.039246,217.532532 
	C180.285645,218.000000 178.571289,218.000000 176.428467,218.000000 
z"/>
<path fill="#DACAB4" opacity="1.000000" stroke="none" 
	d="
M139.952881,196.436615 
	C141.597076,192.425949 145.985245,192.705261 148.589996,189.996323 
	C149.496231,190.384415 150.066132,190.900360 150.093552,191.546143 
	C150.457275,200.113831 151.314255,208.694427 149.312180,217.612457 
	C146.958328,218.000000 144.916672,218.000000 142.437500,218.000000 
	C140.179626,216.230469 140.076126,213.938385 140.054108,211.619492 
	C140.007462,206.707626 140.107025,201.794312 139.952881,196.436615 
z"/>
<path fill="#D7C7B1" opacity="1.000000" stroke="none" 
	d="
M154.691132,187.380707 
	C154.971024,184.116272 156.236099,182.322952 159.619736,182.005096 
	C161.308304,183.258682 161.471466,184.900604 161.464432,186.587601 
	C161.424225,196.210297 161.673828,205.834335 161.211334,215.927063 
	C160.933838,216.681717 160.775665,216.964874 160.308746,217.624008 
	C158.611115,218.000000 157.222214,218.000000 155.416656,218.000000 
	C154.796005,217.750366 154.592026,217.500748 154.150726,216.829971 
	C153.513397,206.847122 152.715240,197.278900 154.691132,187.380707 
z"/>
<path fill="#DBD3C1" opacity="1.000000" stroke="none" 
	d="
M198.600006,1.000000 
	C198.993530,35.013515 198.987076,69.027031 198.902985,103.500717 
	C197.473999,102.185570 198.018387,100.115173 198.015167,98.171097 
	C197.978104,75.734596 197.932571,53.297714 198.045578,30.861723 
	C198.066040,26.796677 197.815903,22.949770 194.798950,19.365129 
	C193.871262,19.067200 193.633591,18.890690 193.159210,18.338333 
	C191.682159,12.370147 191.359711,6.861715 194.706314,1.330921 
	C196.066666,1.000000 197.133347,1.000000 198.600006,1.000000 
z"/>
<path fill="#D3C5AC" opacity="1.000000" stroke="none" 
	d="
M49.692684,188.317688 
	C52.614815,188.039337 54.214432,189.705795 55.921974,191.651154 
	C57.017525,193.539627 57.646912,195.193512 57.502171,197.106171 
	C56.994965,203.808441 58.526291,210.598114 56.320663,217.621307 
	C54.285641,218.000000 52.571285,218.000000 50.428463,218.000000 
	C49.462292,217.377029 48.699986,216.782455 48.638493,215.976944 
	C47.941414,206.845230 46.898438,197.697769 49.692684,188.317688 
z"/>
<path fill="#D5CAB2" opacity="1.000000" stroke="none" 
	d="
M67.665764,200.306396 
	C72.247360,199.861801 75.053246,202.860077 78.692261,204.865417 
	C80.153435,209.155945 80.751816,213.280075 78.292252,217.654800 
	C74.969406,218.000000 71.938812,218.000000 68.454109,218.000000 
	C67.800003,217.756943 67.599998,217.513870 67.161469,216.863174 
	C66.441048,211.162949 65.868835,205.868118 67.665764,200.306396 
z"/>
<path fill="#DAC4B0" opacity="1.000000" stroke="none" 
	d="
M67.341064,216.215744 
	C67.593758,216.839676 67.684471,217.068344 67.887596,217.648514 
	C65.299988,218.000000 62.599972,218.000000 59.449982,218.000000 
	C57.843033,216.887985 57.409401,215.506180 57.513470,213.937714 
	C57.894951,208.188232 56.603260,202.364517 58.647144,196.335312 
	C61.596592,195.910263 64.766441,194.061127 65.954697,198.640335 
	C67.968285,202.667191 66.631401,206.637604 66.979622,210.462402 
	C67.141342,212.238800 66.888222,214.041580 67.341064,216.215744 
z"/>
<path fill="#D7C7B4" opacity="1.000000" stroke="none" 
	d="
M28.416666,218.000000 
	C27.827232,217.799606 27.654465,217.599228 27.368042,217.018585 
	C26.697584,202.981796 27.120203,189.319824 27.031521,175.660675 
	C27.023848,174.478836 27.140413,173.317764 28.563143,172.239700 
	C30.540014,172.064301 31.113707,173.255600 31.878086,174.683563 
	C33.052166,185.663177 32.209766,196.378250 32.492329,207.076752 
	C32.566040,209.867706 32.189526,212.688477 33.164165,215.858673 
	C33.345867,216.584076 33.371319,216.884918 33.198387,217.592896 
	C31.611111,218.000000 30.222221,218.000000 28.416666,218.000000 
z"/>
<path fill="#F7EFCB" opacity="1.000000" stroke="none" 
	d="
M49.933487,187.801544 
	C49.685192,197.702759 50.602272,207.432907 49.790306,217.564911 
	C48.933331,218.000000 47.866661,218.000000 46.399994,218.000000 
	C46.014782,209.437729 46.044182,200.875443 46.033615,192.313202 
	C46.031113,190.284912 45.900330,188.259476 48.653458,187.211563 
	C49.303654,187.178894 49.566368,187.363205 49.933487,187.801544 
z"/>
<path fill="#D2C6B0" opacity="1.000000" stroke="none" 
	d="
M125.969704,204.380859 
	C127.494591,201.552002 129.523697,199.832474 132.656281,199.054871 
	C136.380966,204.973923 135.500793,211.089066 133.326569,217.619385 
	C131.285645,218.000000 129.571289,218.000000 127.428467,218.000000 
	C126.817139,217.781189 126.634277,217.562363 126.219467,216.984192 
	C125.189316,212.687592 125.360245,208.747009 125.969704,204.380859 
z"/>
<path fill="#D8CEB7" opacity="1.000000" stroke="none" 
	d="
M190.329224,19.599138 
	C185.461594,18.325630 183.211288,15.380809 183.927155,10.278732 
	C184.310379,7.547559 183.996170,4.718524 183.998352,1.466826 
	C185.714355,1.000000 187.428711,1.000000 189.571533,1.000000 
	C193.501266,5.530020 191.508362,10.738976 191.697311,16.124352 
	C191.392960,17.513844 191.258759,18.462833 190.329224,19.599138 
z"/>
<path fill="#DBCFB8" opacity="1.000000" stroke="none" 
	d="
M22.571537,1.000000 
	C22.999434,3.972146 22.729649,6.974844 23.062645,9.909137 
	C23.538595,14.103134 22.114897,16.497696 17.401131,16.943901 
	C14.465674,12.020560 15.256639,6.900607 16.690220,1.383421 
	C18.714357,1.000000 20.428717,1.000000 22.571537,1.000000 
z"/>
<path fill="#E9DBBE" opacity="1.000000" stroke="none" 
	d="
M139.615112,196.109100 
	C141.972824,197.001541 142.012512,198.822479 141.990417,200.691803 
	C141.925842,206.152481 141.881729,211.613388 141.914795,217.537109 
	C140.611115,218.000000 139.222214,218.000000 137.416656,218.000000 
	C136.910278,217.774948 136.820572,217.549911 137.075134,217.208466 
	C138.728149,211.852875 137.645721,206.522125 138.038589,201.250610 
	C138.166565,199.533447 137.284927,197.528427 139.615112,196.109100 
z"/>
<path fill="#E6D8C4" opacity="1.000000" stroke="none" 
	d="
M167.683716,176.044403 
	C168.926727,176.866577 168.991455,178.022934 168.984894,179.202133 
	C168.914536,191.828873 168.844635,204.455612 168.887299,217.541168 
	C168.555557,218.000000 168.111099,218.000000 167.333328,218.000000 
	C166.803070,217.762131 166.606140,217.524246 166.170120,216.889893 
	C165.047577,204.265076 165.643082,192.023880 165.813507,178.892029 
	C166.127731,177.121277 166.408508,176.367844 167.683716,176.044403 
z"/>
<path fill="#D4C7AC" opacity="1.000000" stroke="none" 
	d="
M33.399986,218.000000 
	C32.904320,217.782471 32.808640,217.564941 32.582867,217.015533 
	C31.506737,204.072144 32.115654,191.447250 32.142246,178.827621 
	C32.143673,178.151138 32.545341,177.576431 33.526489,177.050598 
	C34.556568,177.163239 35.102367,177.328949 35.828850,177.722260 
	C36.107368,190.558502 35.759617,203.169250 36.361542,216.191956 
	C36.628117,216.834457 36.721096,217.061356 36.907036,217.644135 
	C35.933323,218.000000 34.866650,218.000000 33.399986,218.000000 
z"/>
<path fill="#D3CBB5" opacity="1.000000" stroke="none" 
	d="
M166.682190,216.230591 
	C166.932312,216.890976 167.035706,217.101120 167.069550,217.655640 
	C166.250000,218.000000 165.500000,218.000000 164.375000,218.000000 
	C163.016510,216.993988 162.562759,215.765518 162.574600,214.381195 
	C162.669907,203.238281 162.055450,192.087952 162.951859,180.474197 
	C163.154587,178.618530 163.980881,178.017487 165.666290,178.007355 
	C166.014832,177.995926 165.999435,177.996475 166.004120,177.991058 
	C167.083450,186.744125 166.246628,195.537811 166.483063,204.312210 
	C166.585999,208.132843 166.449615,211.957764 166.682190,216.230591 
z"/>
<path fill="#D9CCB7" opacity="1.000000" stroke="none" 
	d="
M168.555832,1.000000 
	C168.996887,2.971934 169.142639,4.958722 168.947769,6.911522 
	C168.761780,8.775573 170.078751,11.937573 166.620071,11.720698 
	C163.971191,11.554600 160.945572,10.653619 160.996002,6.820685 
	C161.017609,5.177733 160.995499,3.534206 160.996628,1.445470 
	C163.370560,1.000000 165.741104,1.000000 168.555832,1.000000 
z"/>
<path fill="#DECBB6" opacity="1.000000" stroke="none" 
	d="
M137.300903,216.630127 
	C137.402557,217.267899 137.385712,217.443726 137.184418,217.809784 
	C135.933334,218.000000 134.866653,218.000000 133.399994,218.000000 
	C133.000320,211.981674 133.000626,205.963333 133.001373,199.477997 
	C136.083893,196.547913 137.143784,197.420364 137.044647,201.202271 
	C136.914032,206.186279 137.120743,211.179108 137.300903,216.630127 
z"/>
<path fill="#D1C5AC" opacity="1.000000" stroke="none" 
	d="
M162.782776,180.116745 
	C164.483765,181.503433 163.969254,183.426025 163.979065,185.197372 
	C164.037811,195.819351 164.036804,206.441666 164.027924,217.531921 
	C163.555557,218.000000 163.111099,218.000000 162.333328,218.000000 
	C161.819702,217.735565 161.639389,217.471130 161.301895,216.753082 
	C161.145477,204.806244 160.413437,193.304352 161.773941,181.399857 
	C162.130615,180.681396 162.324646,180.435684 162.782776,180.116745 
z"/>
<path fill="#E4D4BA" opacity="1.000000" stroke="none" 
	d="
M59.001122,195.652222 
	C58.965504,203.021805 58.916187,210.045731 58.933434,217.534821 
	C58.250000,218.000000 57.500000,218.000000 56.375000,218.000000 
	C55.997810,209.641815 55.995621,201.283630 55.995926,192.455078 
	C57.401875,192.725647 59.038826,193.256500 59.001122,195.652222 
z"/>
<path fill="#D5C8AB" opacity="1.000000" stroke="none" 
	d="
M50.545891,1.000000 
	C50.996120,7.523848 48.925751,9.348776 41.311516,9.133982 
	C38.755989,6.766042 38.872982,4.322481 40.681084,1.378851 
	C44.030594,1.000000 47.061188,1.000000 50.545891,1.000000 
z"/>
<path fill="#DACDB3" opacity="1.000000" stroke="none" 
	d="
M182.583344,1.000000 
	C182.999786,4.809581 183.096924,8.622358 182.971970,12.427843 
	C182.847366,16.222799 181.341354,17.405802 178.052109,14.211437 
	C175.572403,9.911882 176.225891,5.844754 177.694107,1.376910 
	C179.388885,1.000000 180.777786,1.000000 182.583344,1.000000 
z"/>
<path fill="#DFCBB6" opacity="1.000000" stroke="none" 
	d="
M177.094528,13.505308 
	C171.874298,14.040177 169.040314,12.016266 169.972961,6.346022 
	C170.209412,4.908469 170.006821,3.398705 170.002991,1.461061 
	C171.714355,1.000000 173.428711,1.000000 175.571533,1.000000 
	C178.054260,4.864844 176.427261,9.076000 177.094528,13.505308 
z"/>
<path fill="#DCD0BE" opacity="1.000000" stroke="none" 
	d="
M190.244370,17.246086 
	C189.999161,11.977473 189.998932,6.955595 189.999359,1.466859 
	C191.388885,1.000000 192.777786,1.000000 194.583344,1.000000 
	C194.418411,6.673064 193.635574,12.334320 193.995987,18.526249 
	C192.331406,19.646517 191.451065,18.474417 190.244370,17.246086 
z"/>
<path fill="#D5C9AD" opacity="1.000000" stroke="none" 
	d="
M157.550018,1.000000 
	C158.001190,1.327437 158.101944,1.695373 157.987839,1.975919 
	C157.058975,4.259701 160.335022,8.611951 155.113052,8.701770 
	C150.893219,8.774352 147.813477,7.029810 149.000305,1.436765 
	C151.700012,1.000000 154.400024,1.000000 157.550018,1.000000 
z"/>
<path fill="#C8C2C0" opacity="1.000000" stroke="none" 
	d="
M149.375000,218.000000 
	C148.994751,208.971725 148.989487,199.943466 148.970673,190.443542 
	C149.437271,189.673981 149.917450,189.376053 150.688721,189.049927 
	C152.629959,190.558365 152.461121,192.594009 152.475876,194.565445 
	C152.527756,201.496765 152.435074,208.428528 152.553452,215.820450 
	C152.535324,216.585754 152.493179,216.890411 152.225525,217.597534 
	C151.250000,218.000000 150.500000,218.000000 149.375000,218.000000 
z"/>
<path fill="#D7C9AD" opacity="1.000000" stroke="none" 
	d="
M40.583336,1.000000 
	C40.999905,3.370790 40.999809,5.741579 41.000870,8.556611 
	C40.129169,10.838269 38.500683,11.062355 36.369316,10.999575 
	C33.768867,8.057197 34.066422,4.939281 35.682121,1.376228 
	C37.388889,1.000000 38.777779,1.000000 40.583336,1.000000 
z"/>
<path fill="#DDCFBB" opacity="1.000000" stroke="none" 
	d="
M78.399994,218.000000 
	C78.361649,213.929520 77.274742,209.780060 78.836075,205.389404 
	C84.062424,208.070679 81.388718,212.956863 81.931702,217.549194 
	C80.933327,218.000000 79.866661,218.000000 78.399994,218.000000 
z"/>
<path fill="#DACDAE" opacity="1.000000" stroke="none" 
	d="
M27.278904,13.601614 
	C24.939873,15.049177 23.986099,14.421149 24.007509,12.113790 
	C24.039013,8.718595 24.008186,5.322822 24.001955,1.463647 
	C24.750000,1.000000 25.500000,1.000000 26.625000,1.000000 
	C29.492809,4.961696 28.688404,9.075418 27.278904,13.601614 
z"/>
<path fill="#D1C6A4" opacity="1.000000" stroke="none" 
	d="
M10.295062,19.595661 
	C9.533487,20.307037 9.062500,20.620888 8.300656,20.969341 
	C6.927608,14.643900 7.726698,8.240016 7.781831,1.429276 
	C8.444445,1.000000 8.888889,1.000000 9.666667,1.000000 
	C12.697983,6.985501 11.685684,13.090405 10.295062,19.595661 
z"/>
<path fill="#E1D8C5" opacity="1.000000" stroke="none" 
	d="
M111.684731,212.357819 
	C113.147034,211.121277 114.312660,210.260345 115.735390,209.210938 
	C119.565697,211.178650 118.814827,214.181763 117.304321,217.637024 
	C115.611107,218.000000 114.222221,218.000000 112.416664,218.000000 
	C110.548027,216.389496 110.239510,214.646118 111.684731,212.357819 
z"/>
<path fill="#D7C7B1" opacity="1.000000" stroke="none" 
	d="
M111.603043,211.990097 
	C112.053032,213.707230 112.124657,215.432236 112.098145,217.578629 
	C109.629440,218.000000 107.258888,218.000000 104.444168,218.000000 
	C105.208389,214.555084 107.214989,212.070969 111.603043,211.990097 
z"/>
<path fill="#DBCFB6" opacity="1.000000" stroke="none" 
	d="
M10.296500,19.961258 
	C10.002999,13.974305 10.001523,7.955423 10.000024,1.468271 
	C10.444445,1.000000 10.888889,1.000000 11.666667,1.000000 
	C14.559889,6.649822 13.790562,12.412863 12.292209,18.586182 
	C11.529377,19.297516 11.058951,19.613422 10.296500,19.961258 
z"/>
<path fill="#E0D2C3" opacity="1.000000" stroke="none" 
	d="
M12.291021,18.948723 
	C12.000466,13.299695 12.001130,7.617781 12.000897,1.467934 
	C12.444445,1.000000 12.888889,1.000000 13.666667,1.000000 
	C16.592852,6.303848 15.818481,11.705836 14.237709,17.556162 
	C13.531048,18.297121 13.056643,18.606480 12.291021,18.948723 
z"/>
<path fill="#E0D6BE" opacity="1.000000" stroke="none" 
	d="
M31.313053,11.622010 
	C30.462332,12.184671 29.918522,12.366053 29.184937,12.768145 
	C28.710257,13.083193 28.425348,13.177530 27.865223,12.915815 
	C27.432905,8.968219 27.483252,5.376122 27.780657,1.391976 
	C28.750000,1.000000 29.500000,1.000000 30.625000,1.000000 
	C33.294651,4.287171 32.762295,7.745486 31.313053,11.622010 
z"/>
<path fill="#D7CAB2" opacity="1.000000" stroke="none" 
	d="
M89.428467,218.000000 
	C89.019814,217.673050 88.988976,217.333313 89.067787,217.021255 
	C89.531708,215.184372 87.563744,211.916626 90.516968,211.767426 
	C93.027374,211.640594 95.058830,214.098297 94.959763,217.624603 
	C93.285645,218.000000 91.571281,218.000000 89.428467,218.000000 
z"/>
<path fill="#DBCFB8" opacity="1.000000" stroke="none" 
	d="
M117.375000,218.000000 
	C116.683975,215.258041 117.605881,212.415146 116.159943,209.387054 
	C118.358925,207.622162 120.384132,206.791779 120.015671,211.024673 
	C119.872513,212.669342 120.032730,214.340408 120.097610,216.430328 
	C120.297897,217.073318 120.455307,217.285416 120.306358,217.748764 
	C119.250000,218.000000 118.500000,218.000000 117.375000,218.000000 
z"/>
<path fill="#D9CCB7" opacity="1.000000" stroke="none" 
	d="
M35.625000,1.000000 
	C36.000111,4.030803 36.000217,7.061605 36.000847,10.546612 
	C35.197895,11.244762 34.394421,11.488710 33.299229,11.859307 
	C31.281593,8.668949 31.938362,5.224307 32.730583,1.393420 
	C33.750000,1.000000 34.500000,1.000000 35.625000,1.000000 
z"/>
<path fill="#DACDB3" opacity="1.000000" stroke="none" 
	d="
M84.375000,218.000000 
	C84.001747,215.851486 83.931030,213.699371 84.037544,211.556061 
	C84.086609,210.568756 83.439148,208.867371 85.320580,208.990982 
	C86.684616,209.080612 86.978760,210.425705 86.974106,211.659790 
	C86.967247,213.478943 86.931091,215.297974 86.953705,217.558533 
	C86.250000,218.000000 85.500000,218.000000 84.375000,218.000000 
z"/>
<path fill="#D1C5AC" opacity="1.000000" stroke="none" 
	d="
M126.364578,216.245331 
	C126.625633,216.836700 126.717934,217.063507 126.905113,217.645157 
	C125.933327,218.000000 124.866646,218.000000 123.399986,218.000000 
	C121.197662,214.010910 121.992104,209.904068 122.714905,205.414536 
	C123.414803,205.007431 123.847221,204.998398 124.603973,204.983795 
	C127.260963,208.390335 125.257576,212.306564 126.364578,216.245331 
z"/>
<path fill="#DBCFB6" opacity="1.000000" stroke="none" 
	d="
M122.607849,205.128540 
	C122.951660,209.037109 122.920937,213.057755 122.945107,217.539200 
	C123.000000,218.000000 122.500000,218.000000 122.250000,218.000000 
	C121.677803,217.727890 121.329109,217.494980 121.013779,216.983841 
	C121.524117,212.868561 119.732178,208.836090 122.607849,205.128540 
z"/>
<path fill="#F1E0D2" opacity="1.000000" stroke="none" 
	d="
M177.279617,13.924023 
	C175.011169,10.083215 176.379608,5.920971 175.993851,1.457376 
	C176.444443,1.000000 176.888901,1.000000 177.666687,1.000000 
	C177.981934,4.982409 177.963852,8.964818 177.949646,13.392134 
	C177.953522,13.837039 177.505417,13.904923 177.279617,13.924023 
z"/>
<path fill="#D8CDB7" opacity="1.000000" stroke="none" 
	d="
M66.571533,1.000000 
	C67.022652,3.243440 66.347443,4.867057 63.719109,4.955612 
	C61.438194,5.032462 60.942646,3.676226 61.000271,1.397252 
	C62.714359,1.000000 64.428719,1.000000 66.571533,1.000000 
z"/>
<path fill="#D6CECA" opacity="1.000000" stroke="none" 
	d="
M3.465399,22.900774 
	C3.108917,15.981609 3.053884,8.959382 2.999425,1.468578 
	C3.000000,1.000000 3.500000,1.000000 3.750000,1.000000 
	C3.922282,8.265904 3.844564,15.531808 3.465399,22.900774 
z"/>
<path fill="#DBC8AF" opacity="1.000000" stroke="none" 
	d="
M32.666664,1.000000 
	C33.000664,4.358693 33.001328,7.717385 33.004753,11.531017 
	C32.562641,11.990714 32.117764,11.995470 31.339516,12.001759 
	C31.003801,8.640100 31.001463,5.276908 30.999561,1.456859 
	C31.444445,1.000000 31.888887,1.000000 32.666664,1.000000 
z"/>
<path fill="#D3CBB5" opacity="1.000000" stroke="none" 
	d="
M7.750000,1.000000 
	C8.000993,7.355412 8.001987,13.710824 8.006390,20.535091 
	C5.852852,17.629253 7.387392,13.903651 7.051164,10.355964 
	C6.787410,7.572987 6.998582,4.745000 6.999382,1.468505 
	C7.000000,1.000000 7.500000,1.000000 7.750000,1.000000 
z"/>
<path fill="#D4C7AC" opacity="1.000000" stroke="none" 
	d="
M146.600006,1.000000 
	C146.643509,2.701431 148.030884,5.413827 145.160080,5.711794 
	C142.392212,5.999077 143.222015,3.424950 142.999359,1.410553 
	C144.066666,1.000000 145.133347,1.000000 146.600006,1.000000 
z"/>
<path fill="#ECE1BA" opacity="1.000000" stroke="none" 
	d="
M14.219082,17.875511 
	C14.003404,12.636910 14.001355,7.286056 13.999653,1.467601 
	C14.000000,1.000000 14.500000,1.000000 14.750000,1.000000 
	C16.864601,6.008179 15.965461,11.118978 15.304785,16.619528 
	C14.906485,17.327660 14.702468,17.572817 14.219082,17.875511 
z"/>
<path fill="#CCCDC2" opacity="1.000000" stroke="none" 
	d="
M16.750000,1.000000 
	C17.002201,6.022611 17.004404,11.045222 17.009645,16.534912 
	C16.845234,17.003117 16.677784,17.004246 16.259167,17.002506 
	C14.941978,11.976167 15.721821,6.898540 15.781738,1.424220 
	C16.000000,1.000000 16.500000,1.000000 16.750000,1.000000 
z"/>
<path fill="#D6D3AF" opacity="1.000000" stroke="none" 
	d="
M15.750000,1.000000 
	C16.000608,6.022001 16.001219,11.044002 16.004913,16.532820 
	C16.008001,16.999638 15.525815,17.011459 15.285288,17.019623 
	C15.029845,11.996448 15.014929,6.965107 15.000007,1.466883 
	C15.000000,1.000000 15.500000,1.000000 15.750000,1.000000 
z"/>
<path fill="#D7C7B4" opacity="1.000000" stroke="none" 
	d="
M140.600006,1.000000 
	C140.802643,2.327656 141.577606,4.301264 139.654907,4.627284 
	C137.844055,4.934335 137.584518,3.034255 137.048538,1.357854 
	C138.066666,1.000000 139.133347,1.000000 140.600006,1.000000 
z"/>
<path fill="#DDBBA5" opacity="1.000000" stroke="none" 
	d="
M27.750000,1.000000 
	C28.010641,4.683936 28.021282,8.367871 28.035213,12.510489 
	C28.165298,13.144586 28.292095,13.320002 28.213728,13.747045 
	C27.839676,13.999263 27.670788,13.999856 27.248510,13.999863 
	C26.996950,9.974971 26.998779,5.950666 27.000305,1.463181 
	C27.000000,1.000000 27.500000,1.000000 27.750000,1.000000 
z"/>
<path fill="#D5C8AB" opacity="1.000000" stroke="none" 
	d="
M56.282959,5.615596 
	C53.423195,5.517992 54.151352,3.438252 53.998714,1.392220 
	C54.444447,1.000000 54.888889,1.000000 55.666668,1.000000 
	C57.064823,2.301835 57.145081,3.728623 56.282959,5.615596 
z"/>
<path fill="#EBDAB3" opacity="1.000000" stroke="none" 
	d="
M56.380642,5.894361 
	C56.015903,4.603064 56.004322,3.217522 55.996372,1.415991 
	C56.444447,1.000000 56.888889,1.000000 57.666668,1.000000 
	C57.721790,2.637987 58.734238,4.616428 56.380642,5.894361 
z"/>
<path fill="#DACAB4" opacity="1.000000" stroke="none" 
	d="
M120.555832,1.000000 
	C118.727402,4.306137 116.020683,1.207883 113.272079,1.252698 
	C115.370560,1.000000 117.741112,1.000000 120.555832,1.000000 
z"/>
<path fill="#D1C5AC" opacity="1.000000" stroke="none" 
	d="
M120.843239,216.748581 
	C121.356735,216.924164 121.643837,217.175980 121.965469,217.713898 
	C121.555557,218.000000 121.111107,218.000000 120.333328,218.000000 
	C119.969299,217.803894 119.938591,217.607788 120.024178,217.136444 
	C120.140480,216.861206 120.616844,216.824799 120.843239,216.748581 
z"/>
<path fill="#C8C2C0" opacity="1.000000" stroke="none" 
	d="
M154.031494,217.170349 
	C154.579971,217.008224 154.689499,217.195114 154.899506,217.691010 
	C155.000000,218.000000 154.500000,218.000000 154.250000,218.000000 
	C153.864197,217.839798 153.728394,217.679581 154.031494,217.170349 
z"/>
<path fill="#DFD0C1" opacity="1.000000" stroke="none" 
	d="
M152.250000,218.000000 
	C152.000000,218.000000 152.278793,217.646622 152.747894,217.288803 
	C153.292038,217.131714 153.367081,217.332458 153.221069,217.766602 
	C153.000000,218.000000 152.500000,218.000000 152.250000,218.000000 
z"/>
<path fill="#DBC8B5" opacity="1.000000" stroke="none" 
	d="
M153.250000,218.000000 
	C153.000000,218.000000 152.952789,217.583344 153.067810,217.408051 
	C153.290527,217.090851 153.398254,216.948944 153.699615,216.991211 
	C153.893265,217.175369 153.893402,217.594559 153.946701,217.797272 
	C154.000000,218.000000 153.500000,218.000000 153.250000,218.000000 
z"/>
<path fill="#D1C5AC" opacity="1.000000" stroke="none" 
	d="
M160.250000,218.000000 
	C160.044907,217.797501 160.089798,217.594986 160.567352,217.696243 
	C161.000000,218.000000 160.500000,218.000000 160.250000,218.000000 
z"/>
<path fill="#CAC7B7" opacity="1.000000" stroke="none" 
	d="
M161.250000,218.000000 
	C161.029175,217.804474 161.058350,217.608948 161.241608,217.078217 
	C161.497650,216.951950 161.599564,217.160873 161.850739,217.684906 
	C162.000000,218.000000 161.500000,218.000000 161.250000,218.000000 
z"/>
<path fill="#D30502" opacity="1.000000" stroke="none" 
	d="
M189.167480,123.654404 
	C187.140945,133.718506 183.892242,142.911789 179.248993,151.968185 
	C178.347031,152.901947 178.067520,153.829926 177.134720,154.711823 
	C176.854843,154.918869 176.935822,154.949951 176.923737,154.908295 
	C176.265015,156.244232 175.609299,157.615433 174.026947,158.674408 
	C173.729141,158.804474 173.820190,158.842834 173.810791,158.794342 
	C173.562347,159.926376 172.772858,160.763443 171.711517,161.444366 
	C171.413116,161.271637 171.365875,161.343597 171.330902,161.368683 
	C172.040115,162.482452 170.957672,162.340469 170.173813,162.764282 
	C169.868134,162.922974 169.947983,162.943207 169.936249,162.903732 
	C169.589844,163.617844 169.161728,164.291626 168.099854,164.773819 
	C167.815231,164.880508 167.921936,164.916260 167.931366,164.860779 
	C167.786499,165.150070 167.564270,165.444672 167.026093,165.806961 
	C166.769058,165.918182 166.879288,165.886139 166.852051,165.835617 
	C166.349121,167.995773 164.310104,168.517136 162.503540,169.760315 
	C152.297607,177.602890 141.620728,184.164795 131.046082,190.889511 
	C121.733734,196.811493 111.618782,201.384857 102.332382,208.016235 
	C100.644951,209.060593 99.621498,208.211853 98.292618,207.245880 
	C98.012512,206.989960 98.000305,207.000000 98.004280,206.993698 
	C97.277870,206.288422 96.020920,206.606781 95.222382,205.428513 
	C95.020714,205.207184 94.677643,204.944656 94.462822,204.922195 
	C92.202042,204.248352 90.492897,202.922302 88.253571,201.948151 
	C82.240700,196.744797 75.062050,194.008804 68.734001,189.901108 
	C62.528576,185.873047 56.224651,181.996597 50.023876,177.961533 
	C40.818501,171.971252 33.280373,164.058685 25.231075,156.227325 
	C24.484011,155.376404 24.123901,154.647003 23.641525,153.822662 
	C23.757177,153.544846 23.733280,153.395096 23.682060,153.339172 
	C21.355505,153.458221 22.286743,151.073364 21.100906,149.924271 
	C20.971960,149.572906 20.683208,149.406052 20.564911,149.523560 
	C20.256176,149.805893 20.065739,149.970688 20.100853,149.832443 
	C20.326405,149.529404 20.565098,149.302795 20.484955,149.159058 
	C18.845034,148.340576 18.686441,146.877823 18.288673,145.144302 
	C18.161755,144.810410 18.149601,144.905487 18.196964,144.898163 
	C14.136423,138.521103 13.379978,131.163391 12.018587,123.970978 
	C11.194517,119.617294 10.569995,115.270363 11.004905,110.383270 
	C11.011128,109.328903 11.036656,108.722084 11.168270,107.654755 
	C11.835998,85.085831 11.351038,62.974152 11.508442,40.864944 
	C11.526198,38.370934 11.485291,35.876461 11.534725,33.382744 
	C11.571062,31.549730 11.520009,29.675030 13.590979,28.078255 
	C14.063850,27.417175 14.292995,27.204031 14.805779,26.944416 
	C21.522043,23.023645 28.763178,21.148567 35.885956,18.972586 
	C38.275616,18.242554 40.658321,17.523634 43.277332,16.294281 
	C44.170906,16.073986 44.697220,16.018702 45.634407,15.985940 
	C46.894058,15.940527 47.660866,15.608905 48.854668,15.187375 
	C55.946335,13.737710 62.583279,12.232617 69.278290,11.021570 
	C81.922974,8.734298 94.701584,9.009974 107.476334,8.939619 
	C114.133560,8.902954 120.697403,9.444654 127.616432,10.739964 
	C141.185028,13.660557 154.557816,15.692968 167.290253,20.196873 
	C174.940918,22.903187 183.365158,23.820606 190.027390,29.638283 
	C191.019226,31.120314 190.986206,32.469845 190.986923,33.799030 
	C190.998810,55.759144 191.023300,77.719269 190.977432,99.679375 
	C190.975693,100.515076 190.894913,101.339821 190.361389,102.560837 
	C190.048706,103.438332 189.989304,103.889717 190.009628,104.675812 
	C191.829437,111.172157 189.690262,117.201416 189.167480,123.654404 
z"/>
<path fill="#DED1AB" opacity="1.000000" stroke="none" 
	d="
M127.878998,10.630081 
	C121.853470,11.660619 115.831642,10.203637 109.758812,9.850098 
	C89.069054,8.645615 68.877434,11.376435 48.421341,16.001692 
	C47.660263,16.317327 47.250656,16.491682 46.430870,16.512085 
	C45.630047,16.671577 45.174149,16.823481 44.356354,16.984787 
	C43.669357,16.592165 43.535126,16.130566 43.778633,15.310555 
	C53.413631,13.247148 62.800568,11.273675 72.263405,9.781484 
	C90.208870,6.951672 108.233391,7.448957 126.248749,9.162934 
	C126.786476,9.214094 127.265907,9.877998 127.878998,10.630081 
z"/>
<path fill="#C00000" opacity="1.000000" stroke="none" 
	d="
M13.620352,27.764952 
	C12.949203,29.926046 12.984852,32.250954 12.986599,34.588978 
	C13.003382,57.054653 13.006969,79.520348 12.983116,101.986015 
	C12.981197,103.793015 13.339280,105.654114 12.223270,107.706863 
	C10.433446,104.933548 10.511249,101.607964 10.509509,98.306236 
	C10.497927,76.316254 10.502953,54.326271 10.505682,31.863625 
	C10.429564,30.389589 10.853161,29.572931 11.795340,28.505287 
	C12.528794,28.059111 12.920643,27.929083 13.620352,27.764952 
z"/>
<path fill="#DCD1AB" opacity="1.000000" stroke="none" 
	d="
M190.480667,102.861008 
	C190.060486,78.960175 190.012863,54.933403 190.052521,30.443378 
	C190.669678,29.728647 191.199585,29.477175 191.729477,29.225700 
	C191.819794,29.856722 191.988754,30.487707 191.989090,31.118778 
	C192.000656,53.969181 191.998383,76.819588 191.989014,99.669998 
	C191.988541,100.817169 192.085892,102.030724 190.480667,102.861008 
z"/>
<path fill="#E0D0BC" opacity="1.000000" stroke="none" 
	d="
M3.624922,169.003113 
	C3.117248,167.610260 3.067115,166.216278 3.090784,164.409271 
	C7.588195,160.837250 12.403494,161.889175 17.633011,162.819809 
	C21.575291,162.537704 22.465403,165.899414 24.808710,167.729797 
	C18.092546,169.375397 11.075911,168.949219 3.624922,169.003113 
z"/>
<path fill="#E2EBC9" opacity="1.000000" stroke="none" 
	d="
M28.724430,171.851791 
	C27.854744,173.969681 28.027893,176.133926 28.013433,178.277252 
	C27.928856,190.812973 27.831583,203.348618 27.496490,216.261307 
	C24.997431,215.485229 26.059832,213.390152 26.048786,211.756744 
	C25.956699,198.139938 26.000063,184.522232 26.006638,170.431580 
	C26.828430,170.539200 27.646126,171.120041 28.724430,171.851791 
z"/>
<path fill="#DFD9C6" opacity="1.000000" stroke="none" 
	d="
M18.054390,162.578491 
	C13.542797,165.134155 8.727873,163.492706 3.619365,163.997620 
	C3.116632,162.284698 3.068679,160.573166 3.095007,158.439301 
	C6.914703,155.282440 11.158061,156.899750 15.593227,156.821106 
	C17.560616,158.391342 18.077343,160.191132 18.054390,162.578491 
z"/>
<path fill="#EBDAB3" opacity="1.000000" stroke="none" 
	d="
M11.461117,29.813957 
	C11.531529,55.847462 11.603856,81.519592 11.810014,107.604858 
	C11.859551,108.473038 11.775259,108.928078 11.612751,109.722641 
	C11.443078,110.568138 11.170924,110.942871 10.363377,111.087936 
	C10.005603,85.162102 9.995857,59.334747 10.015326,33.507412 
	C10.016562,31.869343 9.656304,30.163515 10.874428,28.338444 
	C11.399042,28.500467 11.498058,28.963135 11.461117,29.813957 
z"/>
<path fill="#DCCBA6" opacity="1.000000" stroke="none" 
	d="
M10.004150,111.413742 
	C10.390179,110.759277 10.771710,110.529099 11.343887,110.180542 
	C12.520357,121.651024 13.823366,133.178177 18.201252,144.503235 
	C16.126221,144.324402 15.673656,142.832336 14.602871,140.930939 
	C10.875930,134.313019 13.073450,126.530228 9.446602,120.066132 
	C7.967293,117.429588 10.523417,114.646973 10.004150,111.413742 
z"/>
<path fill="#D8CDB7" opacity="1.000000" stroke="none" 
	d="
M33.952965,176.686951 
	C32.411766,178.662155 33.040733,180.751251 33.020329,182.668808 
	C32.902569,193.735443 32.862331,204.802902 32.624306,216.276855 
	C31.479218,216.507202 31.040129,215.855667 31.052990,214.935883 
	C31.236267,201.829559 30.428509,188.712296 31.750099,175.295502 
	C32.895985,175.107391 33.646614,175.406006 33.952965,176.686951 
z"/>
<path fill="#DDD8C1" opacity="1.000000" stroke="none" 
	d="
M36.682686,216.194458 
	C35.564026,216.483521 35.038738,215.903809 35.051727,214.953552 
	C35.217342,202.835129 34.436092,190.705597 35.739708,178.273621 
	C36.009533,177.949844 36.493614,177.988541 36.735790,178.002289 
	C36.928722,190.604492 36.879475,203.192932 36.682686,216.194458 
z"/>
<path fill="#DED6C4" opacity="1.000000" stroke="none" 
	d="
M198.466705,156.685730 
	C198.877670,158.405655 198.931198,159.795532 198.909576,161.597153 
	C194.175720,161.998688 189.517029,161.988480 184.383148,161.956650 
	C183.919235,160.253006 184.418488,158.737427 185.712006,157.175613 
	C189.912079,154.594635 193.998901,155.233292 198.466705,156.685730 
z"/>
<path fill="#D9D0B4" opacity="1.000000" stroke="none" 
	d="
M3.511228,154.321640 
	C3.114512,151.955017 3.062874,149.904510 3.087237,147.420227 
	C5.050622,145.136795 7.104664,145.058777 9.674062,146.701462 
	C12.330979,148.084946 11.948295,150.957703 13.839158,152.709534 
	C11.140016,156.818054 7.481482,155.624161 3.511228,154.321640 
z"/>
<path fill="#DFD0C1" opacity="1.000000" stroke="none" 
	d="
M154.024261,217.065155 
	C153.893265,217.175369 153.530167,217.106079 153.356491,217.169403 
	C153.182816,217.232742 153.046692,217.081879 152.974533,217.010345 
	C151.132248,213.500504 152.169952,209.814758 152.048203,206.250076 
	C151.862625,200.816559 152.004532,195.372147 151.992981,189.463440 
	C152.146988,187.615707 152.966858,187.016525 154.651825,187.018677 
	C154.931824,196.661789 154.864868,206.313278 154.634155,216.393066 
	C154.470428,216.821335 154.155243,216.954956 154.024261,217.065155 
z"/>
<path fill="#E2C1A0" opacity="1.000000" stroke="none" 
	d="
M43.619179,15.018695 
	C43.995926,15.445709 43.999428,15.888102 43.998695,16.662342 
	C34.564365,20.221094 24.922022,22.830111 15.355744,26.752762 
	C14.027822,24.504448 16.174957,24.904293 17.119680,24.515896 
	C23.766218,21.783331 30.449078,19.170807 37.507397,17.599730 
	C39.511318,17.153683 41.337978,15.911271 43.619179,15.018695 
z"/>
<path fill="#DBC8B5" opacity="1.000000" stroke="none" 
	d="
M151.737091,188.998993 
	C154.022354,192.725952 152.776840,196.751389 152.940353,200.631973 
	C153.155960,205.748642 152.967880,210.882309 152.927856,216.473740 
	C152.902374,216.938812 152.548065,217.139267 152.348923,217.177338 
	C150.228104,215.107834 151.078262,212.520203 151.038452,210.141800 
	C150.925903,203.414169 150.994736,196.683502 150.985962,189.487885 
	C151.148087,189.015656 151.316330,189.009583 151.737091,188.998993 
z"/>
<path fill="#E4D6C6" opacity="1.000000" stroke="none" 
	d="
M198.484451,150.670959 
	C198.885666,152.075317 198.935074,153.137222 198.911102,154.592285 
	C195.222260,156.535156 191.615967,156.659409 187.960983,154.445557 
	C187.900238,153.975418 187.944702,153.485092 187.973785,153.240646 
	C188.167999,152.832336 188.333130,152.668488 188.732010,152.245544 
	C188.966049,151.819122 188.966354,151.651749 188.974701,151.233429 
	C191.882355,148.660797 194.935532,148.487595 198.484451,150.670959 
z"/>
<path fill="#D5C9B6" opacity="1.000000" stroke="none" 
	d="
M198.911377,150.615204 
	C195.852722,151.006256 192.869156,150.999100 189.434174,150.987213 
	C189.269058,149.403427 189.646011,147.878937 191.631195,147.057266 
	C193.860367,145.308060 195.906815,144.981628 198.480591,146.660187 
	C198.881714,148.065155 198.934097,149.141083 198.911377,150.615204 
z"/>
<path fill="#E8DBC5" opacity="1.000000" stroke="none" 
	d="
M9.991711,146.624268 
	C8.043189,146.993958 6.031390,146.994827 3.591414,146.991089 
	C3.119852,145.277176 3.076467,143.567871 3.101762,141.435150 
	C7.382477,140.234451 9.278241,142.442322 9.991711,146.624268 
z"/>
<path fill="#E5D5BE" opacity="1.000000" stroke="none" 
	d="
M67.659813,216.202026 
	C65.074257,215.904434 66.099243,213.878799 66.050926,212.418335 
	C65.913261,208.256973 66.002380,204.088120 66.003571,199.452454 
	C66.551651,199.165985 67.098419,199.349274 67.830276,199.760956 
	C67.949104,205.257248 67.882843,210.525146 67.659813,216.202026 
z"/>
<path fill="#E0D6BE" opacity="1.000000" stroke="none" 
	d="
M161.585327,216.330872 
	C161.395721,216.743027 161.270325,216.788696 161.205627,216.805725 
	C161.140930,216.822769 161.021347,216.775681 160.961182,216.798248 
	C160.039948,205.504730 160.679153,194.173492 160.759766,182.407410 
	C161.101669,181.663208 161.305695,181.413788 161.785583,181.095932 
	C161.923355,192.623062 161.849136,204.270889 161.585327,216.330872 
z"/>
<path fill="#CAC7B7" opacity="1.000000" stroke="none" 
	d="
M160.718719,181.972168 
	C160.961670,193.282013 160.961838,204.599152 160.931519,216.368561 
	C160.901016,216.820816 160.662766,216.865982 160.543274,216.853714 
	C159.459930,205.548401 160.266602,194.233063 159.993484,182.461777 
	C159.990234,181.992264 160.475906,181.979462 160.718719,181.972168 
z"/>
<path fill="#DCD1AB" opacity="1.000000" stroke="none" 
	d="
M189.261230,123.905167 
	C189.221725,117.977554 189.573853,111.942314 190.007660,105.458794 
	C190.617050,105.365295 191.632782,105.773987 191.600433,106.066895 
	C190.947586,111.976440 192.132706,118.095863 189.261230,123.905167 
z"/>
<path fill="#ECD4B9" opacity="1.000000" stroke="none" 
	d="
M198.905090,146.595581 
	C196.827377,146.991104 194.825424,146.992966 192.390869,146.991913 
	C192.131927,145.827194 192.305603,144.665390 192.724182,143.248871 
	C194.550781,141.595505 196.259720,141.255859 198.488281,142.691345 
	C198.882233,144.074142 198.931549,145.138046 198.905090,146.595581 
z"/>
<path fill="#D7C7B1" opacity="1.000000" stroke="none" 
	d="
M187.582306,154.059662 
	C191.077042,156.029785 194.610458,154.572449 198.395294,154.990829 
	C198.882812,155.438507 198.927902,155.891586 198.898575,156.680206 
	C194.849289,157.004852 190.874405,156.993942 186.435211,156.964905 
	C186.047363,155.848816 185.957581,154.674133 187.582306,154.059662 
z"/>
<path fill="#CBC5BD" opacity="1.000000" stroke="none" 
	d="
M15.945265,156.692535 
	C12.150296,158.870377 8.039534,157.649704 3.615906,158.013550 
	C3.119837,157.563629 3.070386,157.110306 3.093812,156.320770 
	C6.347439,154.043869 9.868019,155.433609 13.626892,154.962494 
	C14.922549,155.107574 15.629354,155.458527 15.945265,156.692535 
z"/>
<path fill="#DDD2C1" opacity="1.000000" stroke="none" 
	d="
M126.680389,216.204712 
	C123.230598,213.444000 125.813400,209.418915 124.948654,205.436188 
	C125.088013,204.680283 125.301544,204.427902 125.780579,204.088867 
	C128.017365,207.781128 126.697136,211.841492 126.680389,216.204712 
z"/>
<path fill="#DFD9C6" opacity="1.000000" stroke="none" 
	d="
M198.907196,142.614517 
	C197.158600,143.007568 195.484283,143.004898 193.389526,142.998199 
	C193.147247,141.830017 193.325409,140.665863 193.747574,139.244934 
	C195.265976,137.961319 196.655807,137.853088 198.483398,138.741760 
	C198.880753,140.083649 198.931107,141.151215 198.907196,142.614517 
z"/>
<path fill="#D6CBB1" opacity="1.000000" stroke="none" 
	d="
M198.462097,130.997375 
	C198.887939,132.389114 198.937668,133.784149 198.913727,135.592880 
	C197.246750,135.664352 194.725754,136.969543 194.361725,134.418610 
	C194.042496,132.181610 195.664352,130.868958 198.462097,130.997375 
z"/>
<path fill="#DED6C4" opacity="1.000000" stroke="none" 
	d="
M14.042143,154.638184 
	C10.898340,157.038223 7.376188,155.558426 3.608703,155.988434 
	C3.117439,155.543015 3.068188,155.101440 3.092544,154.332703 
	C6.523814,153.731918 9.959050,154.619629 13.621492,153.169937 
	C14.005688,153.442673 14.017378,153.877502 14.042143,154.638184 
z"/>
<path fill="#E8DBC5" opacity="1.000000" stroke="none" 
	d="
M3.535007,139.994904 
	C3.110135,138.926880 3.066141,137.864426 3.100797,136.409470 
	C4.586992,136.166412 6.485751,135.587845 6.827686,137.659470 
	C7.183135,139.812958 5.508981,139.981049 3.535007,139.994904 
z"/>
<path fill="#D9CCB7" opacity="1.000000" stroke="none" 
	d="
M3.381793,113.663681 
	C3.106423,109.973793 3.071010,105.955292 3.105848,101.479492 
	C4.668940,105.077827 4.033989,109.210480 3.381793,113.663681 
z"/>
<path fill="#E3D1A9" opacity="1.000000" stroke="none" 
	d="
M162.602417,169.960724 
	C163.584030,168.655823 164.910980,167.347015 166.531372,165.911652 
	C168.264420,169.714645 165.094131,169.359924 162.602417,169.960724 
z"/>
<path fill="#E2C1A0" opacity="1.000000" stroke="none" 
	d="
M88.163803,202.126617 
	C90.434601,201.494171 91.855293,203.579361 94.037399,204.651001 
	C91.742989,205.363846 90.129562,203.721207 88.163803,202.126617 
z"/>
<path fill="#DCD1AB" opacity="1.000000" stroke="none" 
	d="
M198.507019,115.103653 
	C198.889160,116.394531 198.941849,117.784279 198.917786,119.585213 
	C196.175873,118.736725 196.400757,117.077026 198.507019,115.103653 
z"/>
<path fill="#D6CBB1" opacity="1.000000" stroke="none" 
	d="
M198.906616,138.683105 
	C197.486511,139.010178 196.142624,139.004288 194.395142,138.993286 
	C194.459961,136.482452 196.459702,137.123474 198.466141,136.997650 
	C198.892181,137.449631 198.937500,137.899887 198.906616,138.683105 
z"/>
<path fill="#DDD2C1" opacity="1.000000" stroke="none" 
	d="
M189.999603,17.369953 
	C191.420624,16.993435 192.368530,17.944712 193.705704,18.839823 
	C193.993088,18.989672 193.999924,18.999937 194.002548,19.003456 
	C194.221573,19.494972 194.134460,19.906666 193.352539,20.112362 
	C192.260605,19.989201 191.513748,19.984098 190.394104,19.969566 
	C190.014160,19.220274 190.006989,18.480413 189.999603,17.369953 
z"/>
<path fill="#E2C1A0" opacity="1.000000" stroke="none" 
	d="
M98.069717,207.309738 
	C99.108536,207.332169 100.204552,207.674393 101.647293,208.071671 
	C100.282600,211.246094 99.268478,208.942261 98.069717,207.309738 
z"/>
<path fill="#E3D1A9" opacity="1.000000" stroke="none" 
	d="
M174.106720,158.817383 
	C174.602890,157.597321 175.476639,156.390152 176.631012,155.024811 
	C177.025879,156.753326 176.835968,158.453751 174.106720,158.817383 
z"/>
<path fill="#D6CBB1" opacity="1.000000" stroke="none" 
	d="
M198.519073,127.008743 
	C198.887238,127.446365 198.938416,127.895111 198.915176,128.676392 
	C198.090073,128.778732 196.838150,128.721558 196.687195,128.284317 
	C196.307220,127.183655 197.418350,127.147095 198.519073,127.008743 
z"/>
<path fill="#DCCBA6" opacity="1.000000" stroke="none" 
	d="
M20.985813,149.979706 
	C21.774031,150.615005 22.576101,151.657104 23.504507,152.991241 
	C21.198254,153.730576 21.168434,151.995438 20.985813,149.979706 
z"/>
<path fill="#DCCBA6" opacity="1.000000" stroke="none" 
	d="
M18.117704,145.214111 
	C19.354885,145.683975 19.740881,147.030884 20.313068,148.668854 
	C18.212435,148.853912 17.929459,147.382401 18.117704,145.214111 
z"/>
<path fill="#E3D1A9" opacity="1.000000" stroke="none" 
	d="
M177.189056,154.887817 
	C177.366653,154.063828 177.878479,153.208801 178.680969,152.280838 
	C178.939148,153.337067 178.980621,154.506683 177.189056,154.887817 
z"/>
<path fill="#E2C1A0" opacity="1.000000" stroke="none" 
	d="
M95.101952,205.522446 
	C95.893021,205.646942 96.765335,206.086700 97.822952,206.756927 
	C96.926903,206.947342 95.760071,207.117371 95.101952,205.522446 
z"/>
<path fill="#E3D1A9" opacity="1.000000" stroke="none" 
	d="
M171.766541,161.377441 
	C172.027328,160.518845 172.641541,159.766037 173.528564,158.879547 
	C173.903580,160.065353 173.688690,161.190094 171.766541,161.377441 
z"/>
<path fill="#DCD0BE" opacity="1.000000" stroke="none" 
	d="
M193.188324,20.195799 
	C193.303879,19.861362 193.552994,19.667631 193.880005,19.210039 
	C194.005173,19.006973 194.482376,18.997704 194.720505,18.993811 
	C194.795883,19.873610 194.791412,20.936054 193.188324,20.195799 
z"/>
<path fill="#DCCBA6" opacity="1.000000" stroke="none" 
	d="
M23.634888,153.838165 
	C24.169952,154.169174 24.582724,154.793518 24.989946,155.707916 
	C24.248411,155.569321 23.522861,155.132431 23.634888,153.838165 
z"/>
<path fill="#E3D1A9" opacity="1.000000" stroke="none" 
	d="
M168.153458,164.861267 
	C168.334946,164.288986 168.854645,163.697464 169.649445,162.985107 
	C169.867142,163.827957 169.592896,164.634567 168.153458,164.861267 
z"/>
<path fill="#E3D1A9" opacity="1.000000" stroke="none" 
	d="
M170.195404,162.892609 
	C170.184250,162.492859 170.500366,162.062744 171.056198,161.513199 
	C171.538879,162.146927 171.254669,162.622467 170.195404,162.892609 
z"/>
<path fill="#DA6C59" opacity="1.000000" stroke="none" 
	d="
M11.623195,29.963528 
	C11.338397,29.712990 11.217592,29.250647 11.140869,28.424549 
	C11.184952,28.060791 11.665108,28.096201 11.901026,28.142670 
	C12.020359,28.709999 11.903773,29.230862 11.623195,29.963528 
z"/>
<path fill="#DBC8AF" opacity="1.000000" stroke="none" 
	d="
M28.214773,13.874842 
	C28.010571,13.827128 28.012577,13.655585 28.026543,13.226606 
	C28.038502,12.969171 28.516806,12.982706 28.755985,12.985781 
	C28.870256,13.293004 28.678864,13.547056 28.214773,13.874842 
z"/>
<path fill="#E3D1A9" opacity="1.000000" stroke="none" 
	d="
M167.022980,165.801514 
	C166.981293,165.613892 167.193527,165.309616 167.673294,164.905334 
	C167.719498,165.098480 167.498199,165.391647 167.022980,165.801514 
z"/>
<path fill="#D5C9B6" opacity="1.000000" stroke="none" 
	d="
M188.766617,152.114838 
	C188.857040,152.296188 188.673599,152.552399 188.209167,152.875671 
	C188.131363,152.700409 188.319565,152.449402 188.766617,152.114838 
z"/>
<path fill="#DCCBA6" opacity="1.000000" stroke="none" 
	d="
M20.407021,149.623428 
	C20.277662,149.569290 20.320280,150.522537 20.164757,149.631012 
	C20.326405,149.529404 20.367430,149.605774 20.407021,149.623428 
z"/>
<path fill="#E0C8A6" opacity="1.000000" stroke="none" 
	d="
M166.874847,216.241730 
	C165.187866,214.417023 166.072525,211.835388 166.045700,209.420319 
	C165.932800,199.256561 165.999512,189.090790 166.004639,178.455688 
	C167.236557,179.170624 166.983444,180.714737 166.982346,182.173843 
	C166.973892,193.383438 166.944000,204.593048 166.874847,216.241730 
z"/>
<path fill="#0B0303" opacity="1.000000" stroke="none" 
	d="
M113.690369,57.706150 
	C114.502045,60.480404 116.021729,62.135120 118.246819,63.151051 
	C122.660446,65.166214 125.435692,68.385925 125.623665,73.916267 
	C122.757645,68.052238 116.463120,70.540947 112.214584,67.755447 
	C107.687920,64.787582 103.394257,61.266750 97.633118,59.755779 
	C95.626076,59.241508 94.038033,59.690498 92.445030,60.022533 
	C91.792824,60.158470 92.404755,59.713249 92.016304,60.146481 
	C91.661903,60.541725 92.495399,60.325550 92.883675,60.794659 
	C89.389938,69.085526 91.097893,76.297363 98.258842,81.681198 
	C101.441154,84.073753 104.792305,86.298721 108.280380,88.210030 
	C111.198349,89.808945 112.078484,91.479912 110.169075,94.423515 
	C109.098946,96.073257 108.380981,97.951447 107.251389,100.238998 
	C104.307213,96.530869 102.557266,92.626785 101.090561,88.760826 
	C99.246979,83.901535 95.797676,83.079910 91.554131,83.969200 
	C87.158966,84.890259 89.129631,88.736885 88.655418,91.421478 
	C88.490364,92.355888 88.518570,93.324432 88.451836,94.383263 
	C79.685883,90.519844 72.583504,77.998787 73.142059,67.771286 
	C73.690926,57.721207 80.995262,48.147301 90.785973,45.114994 
	C96.337715,43.395550 101.960144,41.597218 107.684624,40.818165 
	C115.339767,39.776363 122.317886,43.060593 129.017456,46.274307 
	C131.598938,47.512608 130.213287,50.514767 128.858047,51.894566 
	C127.882950,52.887318 127.900620,57.124054 124.451294,54.277081 
	C123.358513,53.375126 121.995651,54.030682 121.024429,55.284824 
	C120.154404,56.408283 119.375404,56.113552 119.040688,54.353424 
	C118.777359,53.780277 118.546089,53.571068 118.098770,53.270332 
	C116.922745,53.238903 115.961166,53.300777 114.642014,53.414120 
	C112.254036,54.344467 110.107368,53.886703 108.011528,54.004368 
	C106.676033,54.079346 105.291954,54.044037 105.407867,56.194328 
	C105.552818,56.360962 105.715584,56.758675 105.590942,56.452347 
	C105.344940,55.847752 105.834198,56.576916 105.594742,55.645683 
	C110.360397,52.945499 112.367218,53.459972 113.690369,57.706150 
z"/>
<path fill="#DBC4A0" opacity="1.000000" stroke="none" 
	d="
M90.784958,106.377296 
	C90.957809,104.317749 90.904709,102.584808 90.926178,100.424042 
	C91.533539,97.200584 90.622261,94.343033 91.188934,91.277878 
	C90.958092,90.248604 90.900917,89.497757 90.908562,88.374046 
	C92.908249,86.602791 94.973915,86.861397 97.456726,87.764755 
	C100.346077,92.955925 103.026237,97.822853 105.297684,102.873581 
	C107.105934,106.894363 107.933296,104.453094 109.351440,102.517258 
	C110.595612,101.675034 110.474068,100.574921 110.721069,99.177338 
	C110.868019,98.811142 110.918602,98.946442 110.848679,98.964539 
	C111.452461,98.621452 111.488899,97.923286 111.786514,96.989738 
	C111.904839,96.678810 111.924171,96.282158 112.053108,96.131157 
	C112.437202,95.755394 112.700691,95.540855 112.868111,95.104790 
	C112.866234,94.332275 112.968857,93.791649 113.280945,93.068283 
	C114.699211,92.545189 114.975868,91.637436 114.890793,90.226868 
	C115.527786,86.636971 117.699516,85.799980 120.751717,86.176926 
	C124.362366,86.622841 122.919479,89.390144 122.959045,91.207664 
	C123.110657,98.172356 122.939140,105.143692 123.055397,112.109764 
	C123.096878,114.595619 122.400414,115.736732 119.717674,115.720963 
	C117.206306,115.706200 116.027695,114.972694 116.232315,112.284584 
	C116.412773,109.913841 116.270088,107.518486 116.270088,104.164330 
	C113.307556,106.098389 112.913254,108.321083 112.144531,110.096191 
	C111.063232,112.593071 109.227707,114.625710 106.889198,114.765327 
	C104.387192,114.914696 103.198685,112.205948 101.971352,110.098564 
	C100.513496,107.595345 100.031052,104.481522 97.233231,102.846207 
	C96.402664,104.480446 97.254128,105.930550 97.070808,107.707283 
	C97.147278,108.421997 97.196533,108.815140 97.169136,109.497849 
	C97.395546,110.295547 97.512680,110.843452 97.268555,111.823349 
	C97.151688,112.604530 97.210320,112.993454 97.214638,113.674728 
	C95.221855,115.417068 93.376678,115.312614 91.318085,113.318420 
	C90.960594,111.915977 90.910942,110.830032 90.938644,109.342361 
	C90.393181,108.291183 90.515938,107.489403 90.784958,106.377296 
z"/>
<path fill="#DAC3A0" opacity="1.000000" stroke="none" 
	d="
M34.744514,107.700912 
	C34.981895,108.427040 35.041019,108.888435 35.008278,109.689499 
	C34.333591,110.893013 34.080189,111.910294 33.385643,113.153473 
	C30.909887,115.097404 29.466400,115.073326 29.561373,111.756699 
	C29.763758,104.688919 30.070744,97.623398 29.998531,90.549347 
	C29.986023,89.324066 29.296291,87.760796 31.195042,87.247139 
	C32.994617,86.760315 34.449867,87.242805 35.401241,88.955788 
	C36.206917,90.406448 36.916405,91.901848 37.907494,93.668922 
	C38.220589,93.923851 38.108673,93.925873 38.117805,93.870651 
	C38.375946,94.389961 38.484318,95.010544 38.965286,95.770996 
	C39.221531,95.948982 39.097157,95.931168 39.115105,95.870964 
	C39.369171,96.455460 39.594238,97.105812 40.245079,97.922668 
	C41.293953,101.017174 41.947311,104.940224 44.798656,105.312340 
	C47.771515,105.700302 47.572998,101.422485 48.767162,99.259155 
	C50.662201,95.826134 52.883591,92.467773 53.726318,88.161453 
	C53.855637,87.844383 53.940304,87.986664 53.882484,87.927414 
	C58.568386,86.655846 60.019955,87.391922 59.918301,91.764633 
	C59.768936,98.189644 60.088985,104.603485 59.994225,111.022522 
	C59.960770,113.288887 59.458405,115.045265 56.259232,114.556252 
	C54.117069,111.463684 55.414764,108.227638 54.935867,104.801102 
	C54.708336,103.750031 54.438534,103.120651 53.425499,102.989929 
	C53.134823,103.156357 53.065231,103.125946 53.081665,103.091705 
	C52.803917,103.246513 52.534157,103.465324 52.181458,103.955162 
	C52.070351,104.191856 52.070427,104.053139 52.139454,104.059914 
	C50.828804,105.225906 50.790405,106.930939 50.244003,108.807465 
	C50.081699,109.119644 50.045502,109.038162 50.086967,109.054535 
	C48.490494,111.094681 47.498211,113.798492 44.259579,114.625252 
	C39.356876,111.955719 38.837898,106.290649 35.358097,102.254105 
	C33.105515,103.711372 34.444725,105.629868 34.744514,107.700912 
z"/>
<path fill="#DBC09D" opacity="1.000000" stroke="none" 
	d="
M160.230408,111.835258 
	C159.347198,113.047745 158.868835,114.219124 158.005875,114.910324 
	C156.294724,116.280907 154.023651,116.133736 152.387955,115.212502 
	C150.628189,114.221397 152.281082,112.535637 152.749954,111.301880 
	C155.635986,103.707626 158.636154,96.156677 161.612350,88.596825 
	C162.019028,87.563835 162.080521,85.998886 163.533173,86.044678 
	C164.934509,86.088852 165.023270,87.649269 165.430084,88.684029 
	C168.313980,96.019226 171.235214,103.341499 173.962097,110.735176 
	C174.496933,112.185364 176.723068,114.372612 174.174393,115.364494 
	C172.207642,116.129906 169.075592,116.797409 167.935577,112.928619 
	C165.711563,109.958885 162.989777,111.478065 160.230408,111.835258 
z"/>
<path fill="#DAC3A0" opacity="1.000000" stroke="none" 
	d="
M66.693886,109.010635 
	C67.905884,105.532387 68.999382,102.487289 70.277725,99.154701 
	C70.850548,98.836395 71.148003,98.651924 71.149857,98.161102 
	C71.160500,97.155983 71.388306,96.324127 71.837807,95.251312 
	C73.339279,93.667015 73.665718,91.876770 74.289658,90.228500 
	C74.828506,88.805016 75.587997,87.972778 77.386871,89.318832 
	C80.606171,96.259956 82.849060,103.187111 85.577980,109.923874 
	C86.093071,111.195450 87.403130,112.717613 85.933708,114.028793 
	C84.353004,115.439285 82.859215,114.461617 81.576828,113.243553 
	C80.950485,112.648651 80.161743,112.404510 79.021927,112.085327 
	C76.799683,111.659973 75.001259,110.153030 72.773109,111.870155 
	C72.184937,112.322197 71.821053,112.538094 71.384933,113.042877 
	C71.324661,113.351967 71.287727,113.236702 71.347336,113.247162 
	C69.963127,114.311539 68.385223,115.801674 66.634712,114.424034 
	C64.883278,113.045662 66.298470,111.126335 66.693886,109.010635 
z"/>
<path fill="#DCC09B" opacity="1.000000" stroke="none" 
	d="
M146.919006,111.881577 
	C142.437317,117.511497 136.192200,115.357574 130.462112,115.465576 
	C128.640671,115.499901 128.932648,113.627426 128.929413,112.348190 
	C128.910172,104.718277 128.915558,97.088287 128.920792,89.458328 
	C128.921829,87.953781 128.778687,86.195625 130.961792,86.212700 
	C135.093201,86.245033 139.296799,85.598305 143.335083,86.811287 
	C148.313858,88.306763 149.858856,91.572670 148.617447,98.075127 
	C148.145386,98.267151 147.904419,98.204437 147.407684,97.869545 
	C146.748169,96.963806 146.602707,96.241737 146.317169,95.193062 
	C145.301147,92.544128 143.712128,91.034897 141.296280,90.290817 
	C134.959442,88.339081 132.781799,89.875404 132.746323,96.471611 
	C132.726669,100.125679 132.861572,103.785515 132.716278,107.432625 
	C132.579651,110.861877 134.010803,112.141937 137.401520,112.113503 
	C140.094666,112.090919 142.660355,111.445305 145.658310,111.248520 
	C146.244141,111.394165 146.467743,111.493805 146.919006,111.881577 
z"/>
<path fill="#150405" opacity="1.000000" stroke="none" 
	d="
M107.737137,156.645798 
	C104.714012,158.890198 101.403351,156.219055 98.439606,157.726654 
	C97.636597,155.254974 98.102707,152.488373 96.229584,150.173813 
	C95.747375,149.577972 98.308884,148.843658 99.034859,148.052155 
	C104.035400,142.600174 106.138084,150.162308 109.898598,150.594086 
	C108.775093,152.534760 107.792679,154.229431 107.737137,156.645798 
z"/>
<path fill="#170504" opacity="1.000000" stroke="none" 
	d="
M65.318985,156.853683 
	C62.430763,158.332916 60.195023,159.393555 61.188908,154.715714 
	C61.650867,152.541443 59.129696,151.964020 58.437382,149.968307 
	C61.138214,148.833969 64.900764,148.875275 64.735489,143.863464 
	C67.261597,146.342758 67.781990,149.472168 71.116570,149.414734 
	C72.725098,149.387054 72.737801,150.391342 71.862007,151.730438 
	C70.907845,153.189377 70.263420,154.785416 69.828201,156.610138 
	C69.058586,159.836853 67.119186,156.530121 65.318985,156.853683 
z"/>
<path fill="#100304" opacity="1.000000" stroke="none" 
	d="
M144.333145,153.813660 
	C144.236908,156.411316 145.228287,159.733551 140.744019,157.038544 
	C140.270187,156.753784 139.333817,156.780945 138.838058,157.062042 
	C134.523224,159.508469 135.129181,156.223373 134.874847,153.401947 
	C133.713623,152.077286 132.143311,151.475586 132.932968,149.372101 
	C133.234268,149.164703 133.107864,149.102173 133.086426,149.169342 
	C134.989624,148.160294 137.159180,147.436172 138.691833,145.220642 
	C138.913895,144.964142 139.012787,144.945740 139.002106,144.896606 
	C142.179535,144.925858 143.786026,148.062851 146.734192,149.170166 
	C146.834564,149.541031 146.914078,149.833313 147.037994,149.920395 
	C147.292358,150.206253 147.422806,150.405014 147.245911,150.784698 
	C146.938568,150.965591 146.991760,151.001587 146.979248,150.972015 
	C146.353882,152.004074 145.665695,152.997162 144.333145,153.813660 
z"/>
<path fill="#DFB895" opacity="1.000000" stroke="none" 
	d="
M55.888222,114.088013 
	C58.291504,114.075195 59.312515,112.902229 58.980484,110.948647 
	C58.311825,107.014473 61.129128,102.348373 56.540264,99.190155 
	C56.021973,98.833443 56.211754,98.130180 56.879696,97.595497 
	C59.164131,95.766808 59.871929,91.138985 58.269669,89.133842 
	C57.327858,87.955223 55.970943,88.019409 54.246475,87.892075 
	C54.993408,84.978500 57.539116,86.057472 59.391323,86.330566 
	C61.668262,86.666275 60.838943,88.959160 60.856785,90.467812 
	C60.936909,97.242638 60.644176,104.032173 60.996498,110.789795 
	C61.227489,115.220238 59.530853,116.451027 55.244705,115.314537 
	C55.026646,114.661392 55.246124,114.345055 55.888222,114.088013 
z"/>
<path fill="#D9D2A9" opacity="1.000000" stroke="none" 
	d="
M38.175255,93.548355 
	C35.957359,93.278221 35.759445,90.970238 34.608829,89.429924 
	C33.846928,88.409981 32.856861,87.840050 31.610931,88.237450 
	C30.202730,88.686600 30.978310,89.867912 30.948641,90.761444 
	C30.715794,97.773804 30.437136,104.785278 30.288477,111.799484 
	C30.230043,114.556580 31.453131,113.405663 32.758690,112.179672 
	C33.587643,111.989769 34.103741,112.161995 34.709435,112.789047 
	C35.324757,116.681885 32.480545,115.859573 30.581215,115.962944 
	C28.134874,116.096077 28.807499,114.044579 28.798363,112.721008 
	C28.745646,105.084869 28.749468,97.447990 28.800322,89.811806 
	C28.809299,88.463577 28.111673,86.466072 30.411709,86.337151 
	C32.267220,86.233139 34.553951,85.379608 35.762684,87.729080 
	C36.666000,89.484909 37.348885,91.354134 38.175255,93.548355 
z"/>
<path fill="#DFB895" opacity="1.000000" stroke="none" 
	d="
M77.696877,110.780533 
	C80.338867,111.898148 82.624603,112.780464 85.963493,114.069321 
	C82.900795,105.758827 80.130417,98.241554 77.206802,90.400879 
	C77.143333,89.850311 77.233116,89.623123 77.650070,89.230927 
	C80.954346,96.422958 83.996078,103.755112 86.847153,111.160667 
	C87.342384,112.446991 89.446732,114.313957 87.111488,115.360794 
	C85.324112,116.162018 82.595024,116.639999 81.271324,114.374176 
	C80.081680,112.337799 78.450706,112.396103 76.299484,112.205833 
	C75.639328,110.866135 76.396301,110.621010 77.696877,110.780533 
z"/>
<path fill="#DFB895" opacity="1.000000" stroke="none" 
	d="
M53.614250,88.093452 
	C53.715302,94.611649 49.314999,99.676155 46.648438,105.406754 
	C45.798046,107.234299 43.694199,108.196815 42.509544,105.017776 
	C41.722443,102.905556 39.633488,101.310738 39.983452,98.340775 
	C39.821400,97.763191 39.678082,97.572487 39.793175,97.134262 
	C41.559010,99.600685 43.066433,102.314621 45.019650,105.831161 
	C47.955208,99.685150 50.664036,94.013832 53.614250,88.093452 
z"/>
<path fill="#E2AE91" opacity="1.000000" stroke="none" 
	d="
M71.984932,127.913368 
	C71.088249,128.630615 70.668175,130.607132 69.883522,129.502914 
	C68.320320,127.303108 68.531219,124.179695 69.606415,121.966133 
	C70.411255,120.309158 73.215652,120.967598 74.305145,122.406876 
	C76.101936,124.780533 74.729980,126.639305 71.984932,127.913368 
z"/>
<path fill="#DEB191" opacity="1.000000" stroke="none" 
	d="
M149.667572,124.804161 
	C150.159683,125.719376 150.298691,126.474724 150.749649,126.808159 
	C151.796234,127.581993 153.395432,128.515488 152.146637,129.667389 
	C151.048447,130.680344 148.508606,130.744461 147.624496,129.458084 
	C146.195801,127.379326 146.391647,124.420067 147.376312,122.339645 
	C148.300430,120.387115 150.697693,121.255386 152.626083,121.755943 
	C152.244308,123.938370 149.478424,122.396751 149.667572,124.804161 
z"/>
<path fill="#E5B593" opacity="1.000000" stroke="none" 
	d="
M172.222992,130.086517 
	C170.659149,128.448517 172.205551,126.276558 170.332733,124.546623 
	C169.194641,123.495361 170.858078,121.810074 172.424194,121.440262 
	C173.591156,121.164696 175.046722,121.652412 174.996033,123.025337 
	C174.915894,125.195816 173.029800,122.453613 172.278214,124.105484 
	C174.285660,125.848282 178.823380,127.919441 172.222992,130.086517 
z"/>
<path fill="#E2AE91" opacity="1.000000" stroke="none" 
	d="
M97.368446,128.427200 
	C97.050728,129.169006 96.756340,129.847900 96.471191,129.844025 
	C95.754379,129.834351 95.517731,129.192535 95.287979,128.514557 
	C93.993523,124.694771 93.352478,121.307358 99.588249,121.840012 
	C99.901375,124.063400 96.637169,125.499077 97.368446,128.427200 
z"/>
<path fill="#E5B593" opacity="1.000000" stroke="none" 
	d="
M114.711784,125.950974 
	C115.500626,127.074936 115.943687,128.057495 114.968307,128.818161 
	C113.847786,129.692047 113.052666,128.541565 112.713577,127.844299 
	C111.773483,125.911140 107.769157,124.220901 111.856522,121.667984 
	C113.147049,120.861938 114.703156,121.395523 115.111000,122.748680 
	C115.654716,124.552650 113.850494,123.352097 113.457108,123.689278 
	C111.289108,125.547539 114.763885,124.656563 114.711784,125.950974 
z"/>
<path fill="#E1AB8C" opacity="1.000000" stroke="none" 
	d="
M32.672501,123.813202 
	C33.184280,126.305237 36.228195,129.231522 31.294613,129.919418 
	C30.353294,130.050659 28.072809,129.901337 30.080835,127.920364 
	C31.328163,126.689842 30.331982,125.895943 29.785624,125.037636 
	C29.437223,124.490326 28.011560,123.802650 29.479046,123.597656 
	C30.350170,123.475975 31.602213,120.538170 32.672501,123.813202 
z"/>
<path fill="#E2C1A0" opacity="1.000000" stroke="none" 
	d="
M64.600784,127.791939 
	C63.726410,130.249207 61.874729,130.923096 60.020458,129.465164 
	C57.385826,127.393654 58.672180,124.525650 58.912128,121.492409 
	C61.598999,122.952477 59.297966,125.873894 61.678833,127.201622 
	C62.843670,127.448586 63.672535,127.030464 64.600784,127.791939 
z"/>
<path fill="#690D10" opacity="1.000000" stroke="none" 
	d="
M105.936615,57.497421 
	C103.954613,56.615501 103.279907,55.055676 103.822563,53.689991 
	C104.410255,52.210926 106.174843,53.206409 107.394676,53.131351 
	C109.374138,53.009556 111.371597,53.180428 113.822952,53.346668 
	C114.149338,54.744858 114.014229,56.024132 113.858925,57.697556 
	C112.163757,54.282387 109.600342,53.767517 106.253326,56.426861 
	C106.260139,57.071514 106.295174,57.343037 105.936615,57.497421 
z"/>
<path fill="#E2B291" opacity="1.000000" stroke="none" 
	d="
M133.921906,123.805969 
	C133.952988,124.916298 134.209427,125.567192 134.770111,126.303474 
	C135.795471,127.649956 135.154556,128.813614 133.958206,129.690903 
	C132.879913,130.481628 131.766876,130.309387 130.750046,129.522293 
	C128.822540,128.030304 131.051224,127.411591 131.426453,126.404068 
	C131.705551,125.654648 131.999908,124.910927 132.613831,124.064240 
	C133.165390,123.828400 133.390610,123.692978 133.921906,123.805969 
z"/>
<path fill="#E2AE91" opacity="1.000000" stroke="none" 
	d="
M165.675583,126.647263 
	C165.737061,128.053024 166.853180,130.219116 164.540955,129.656143 
	C162.256027,129.099808 158.975235,129.819351 158.044281,126.554863 
	C157.701401,125.352570 158.714355,124.662834 159.854828,125.479034 
	C160.928040,126.247101 161.732925,126.842903 162.601715,124.959656 
	C164.106522,124.716782 164.985748,125.246704 165.675583,126.647263 
z"/>
<path fill="#E2C1A0" opacity="1.000000" stroke="none" 
	d="
M47.613693,124.475494 
	C48.474411,122.369919 49.752510,121.515671 51.659988,122.083908 
	C52.209763,122.247688 52.635288,122.828537 53.117783,123.218170 
	C52.641178,123.183220 52.157753,123.078476 51.689037,123.124260 
	C47.687263,123.515259 50.282242,126.717430 49.394032,128.755508 
	C47.352558,128.006027 47.266148,126.500839 47.613693,124.475494 
z"/>
<path fill="#DFB895" opacity="1.000000" stroke="none" 
	d="
M66.552444,108.831329 
	C67.673187,110.516937 64.575363,115.639992 71.037521,113.314720 
	C70.621017,117.163338 67.338219,116.052109 65.469810,115.405128 
	C62.748405,114.462776 65.362106,112.471886 65.591202,110.936295 
	C65.686348,110.298576 66.050606,109.701012 66.552444,108.831329 
z"/>
<path fill="#E1BE9B" opacity="1.000000" stroke="none" 
	d="
M86.369904,129.340134 
	C86.084389,127.519318 86.428596,125.874161 85.892982,124.598404 
	C84.018204,120.133003 87.145950,121.822067 89.231796,121.865051 
	C86.411354,123.935654 89.933105,127.870689 86.369904,129.340134 
z"/>
<path fill="#E4CAA8" opacity="1.000000" stroke="none" 
	d="
M77.971161,88.741585 
	C77.827095,89.337311 77.644501,89.584755 77.241501,89.942871 
	C76.010231,89.063499 75.475571,89.518326 74.960030,90.669029 
	C74.316101,92.106308 74.413078,93.962006 72.392334,94.926262 
	C72.867928,92.696457 73.633980,90.366402 74.506569,88.076950 
	C74.834610,87.216263 74.901962,85.847610 76.123398,85.884270 
	C77.544769,85.926918 77.550682,87.412041 77.971161,88.741585 
z"/>
<path fill="#DCC09B" opacity="1.000000" stroke="none" 
	d="
M90.920967,91.368607 
	C93.395531,93.741486 92.516731,96.696960 91.291489,99.826157 
	C90.942726,97.243401 90.884697,94.490585 90.920967,91.368607 
z"/>
<path fill="#D40D0A" opacity="1.000000" stroke="none" 
	d="
M146.836914,149.144897 
	C143.251312,149.887390 141.601440,147.233627 139.351868,144.899307 
	C142.392746,144.568085 145.280334,145.322067 146.836914,149.144897 
z"/>
<path fill="#E2C1A0" opacity="1.000000" stroke="none" 
	d="
M121.485847,122.689972 
	C123.959946,125.327225 123.686874,120.446800 125.872231,122.185738 
	C126.203987,124.254326 124.001465,125.416122 122.405045,125.677185 
	C120.813469,125.937454 119.585342,123.699699 119.630417,122.274353 
	C119.673653,120.907242 120.635918,122.506905 121.485847,122.689972 
z"/>
<path fill="#DBC4A0" opacity="1.000000" stroke="none" 
	d="
M146.877319,102.044388 
	C150.832779,104.982208 150.853592,108.372902 147.496384,112.067154 
	C147.146637,112.169701 147.059509,112.046059 147.010406,111.988556 
	C145.295792,109.301178 146.585464,106.369370 146.181244,103.261047 
	C146.360718,102.688179 146.470856,102.471970 146.877319,102.044388 
z"/>
<path fill="#E2B291" opacity="1.000000" stroke="none" 
	d="
M80.731857,129.359772 
	C77.395042,127.268486 79.810089,124.476242 79.853043,121.814110 
	C81.602585,124.050560 80.915489,126.575363 80.731857,129.359772 
z"/>
<path fill="#861014" opacity="1.000000" stroke="none" 
	d="
M93.432526,60.835274 
	C91.436768,61.503380 89.765144,62.004684 88.093513,62.505993 
	C90.152702,59.134922 93.150734,58.549114 96.940178,59.492180 
	C96.101151,60.019676 94.928894,60.344074 93.432526,60.835274 
z"/>
<path fill="#E0C8A6" opacity="1.000000" stroke="none" 
	d="
M44.376560,114.911522 
	C44.365822,111.551964 48.519764,111.887688 49.794479,109.109695 
	C49.034409,111.677040 48.678623,114.956085 44.376560,114.911522 
z"/>
<path fill="#DBA986" opacity="1.000000" stroke="none" 
	d="
M40.414558,127.762100 
	C39.606422,128.947052 38.704666,130.473221 38.123810,128.389832 
	C37.591526,126.480659 38.010811,124.306175 38.010811,121.909081 
	C40.937428,122.850983 39.638802,124.800842 40.076721,126.534348 
	C40.296143,127.120300 40.456779,127.294952 40.414558,127.762100 
z"/>
<path fill="#DFB895" opacity="1.000000" stroke="none" 
	d="
M90.921066,113.376312 
	C92.795731,113.337830 94.581200,113.673737 96.763504,113.988358 
	C94.653442,116.492767 93.256699,116.445007 90.921066,113.376312 
z"/>
<path fill="#E1BE9B" opacity="1.000000" stroke="none" 
	d="
M142.043594,125.921219 
	C141.892776,127.537895 142.465256,128.949478 140.835434,130.017181 
	C139.543289,128.250671 140.183578,126.418633 140.064529,124.741447 
	C140.010025,123.973618 139.943069,122.823669 141.141388,123.040947 
	C142.483688,123.284340 141.832520,124.618263 142.043594,125.921219 
z"/>
<path fill="#E0C8A6" opacity="1.000000" stroke="none" 
	d="
M165.909409,126.572479 
	C164.949173,126.401695 164.077820,125.860428 163.037567,125.061371 
	C163.419922,123.664665 163.497055,122.188004 165.125732,121.688240 
	C166.836182,122.919403 165.628418,124.730705 165.909409,126.572479 
z"/>
<path fill="#EBDAB3" opacity="1.000000" stroke="none" 
	d="
M56.125393,113.614212 
	C55.928886,114.309486 55.669102,114.552666 55.179489,114.934021 
	C54.949657,115.072197 54.949459,115.043900 54.937145,115.046761 
	C54.024029,112.694565 54.735733,110.242432 54.463608,107.443718 
	C54.396481,106.571373 54.356995,106.103180 54.392609,105.289093 
	C54.474216,104.465675 54.520290,103.991829 54.898693,103.323883 
	C56.817783,106.356949 55.585739,109.833168 56.125393,113.614212 
z"/>
<path fill="#E4CAA8" opacity="1.000000" stroke="none" 
	d="
M160.436249,112.147949 
	C161.979599,109.916595 165.362335,109.806404 167.852997,112.211800 
	C165.537018,112.457733 163.205032,112.330070 160.436249,112.147949 
z"/>
<path fill="#E2B291" opacity="1.000000" stroke="none" 
	d="
M64.943634,127.605865 
	C64.035370,127.914642 63.274479,127.807755 62.291538,127.513474 
	C64.122192,126.075249 62.134739,123.393059 64.186455,121.812935 
	C65.945992,123.401108 64.916519,125.430855 64.943634,127.605865 
z"/>
<path fill="#DCC09B" opacity="1.000000" stroke="none" 
	d="
M97.736115,87.654343 
	C95.839828,88.003929 93.837357,87.998184 91.404137,87.996811 
	C92.870850,84.720436 95.229126,85.808113 97.736115,87.654343 
z"/>
<path fill="#D40D0A" opacity="1.000000" stroke="none" 
	d="
M138.582291,145.025208 
	C138.528610,147.942947 136.796143,149.337799 133.448959,149.261063 
	C134.520401,147.511795 136.202255,146.070007 138.582291,145.025208 
z"/>
<path fill="#DE060E" opacity="1.000000" stroke="none" 
	d="
M107.923492,156.819031 
	C106.415031,154.530823 107.141312,152.665726 109.641228,151.072174 
	C109.383949,152.842422 108.794022,154.758942 107.923492,156.819031 
z"/>
<path fill="#E4CAA8" opacity="1.000000" stroke="none" 
	d="
M35.003376,107.551514 
	C33.639931,106.146194 31.597891,104.397934 34.720085,102.146667 
	C35.066833,103.776581 35.075405,105.456985 35.003376,107.551514 
z"/>
<path fill="#E4CAA8" opacity="1.000000" stroke="none" 
	d="
M77.778427,110.766678 
	C77.484512,111.214600 76.915894,111.413376 76.150482,111.845886 
	C75.535065,112.119095 75.116440,112.158562 74.390320,112.118851 
	C73.653404,112.393181 73.165749,112.516647 72.338181,112.135147 
	C73.256485,108.914688 75.456802,110.027252 77.778427,110.766678 
z"/>
<path fill="#DFB895" opacity="1.000000" stroke="none" 
	d="
M97.212029,107.736115 
	C95.686836,106.680008 95.816383,105.138519 96.778793,103.273376 
	C97.123924,104.496681 97.224976,105.970024 97.212029,107.736115 
z"/>
<path fill="#D40D0A" opacity="1.000000" stroke="none" 
	d="
M132.905151,149.170135 
	C132.404266,150.780746 133.963760,151.386215 134.687759,152.689972 
	C132.603439,152.554169 130.046188,152.332062 132.905151,149.170135 
z"/>
<path fill="#DFB895" opacity="1.000000" stroke="none" 
	d="
M54.320980,107.451538 
	C55.621372,109.350975 54.888340,111.811737 54.959412,114.628410 
	C53.303024,112.792511 54.445400,110.258904 54.320980,107.451538 
z"/>
<path fill="#E0C8A6" opacity="1.000000" stroke="none" 
	d="
M50.346336,108.890823 
	C50.042591,107.375893 49.655201,105.526985 51.863945,104.212296 
	C52.270954,105.805298 51.391529,107.216461 50.346336,108.890823 
z"/>
<path fill="#DFB895" opacity="1.000000" stroke="none" 
	d="
M55.102180,102.834839 
	C55.068695,103.610168 54.940296,104.093712 54.639809,104.760239 
	C54.207596,104.417496 53.947483,103.891777 53.411095,103.261208 
	C53.336914,102.637543 53.401180,101.851944 53.772263,101.660233 
	C54.382797,101.344826 54.774868,101.974060 55.102180,102.834839 
z"/>
<path fill="#DED6B2" opacity="1.000000" stroke="none" 
	d="
M114.557045,90.090919 
	C116.209694,91.251862 116.269928,92.292480 113.847305,92.872902 
	C113.745872,92.009689 114.001335,91.133835 114.557045,90.090919 
z"/>
<path fill="#D40D0A" opacity="1.000000" stroke="none" 
	d="
M144.445740,153.967590 
	C144.142212,152.498093 145.606216,152.113037 146.674042,151.061401 
	C146.902817,152.424255 146.292892,153.502213 144.445740,153.967590 
z"/>
<path fill="#DBC4A0" opacity="1.000000" stroke="none" 
	d="
M147.155243,99.568741 
	C146.986969,100.369789 146.984650,100.791321 147.077972,101.522934 
	C147.173615,101.833023 147.053055,101.949432 146.992905,102.007767 
	C146.137131,102.582794 145.305084,102.525063 144.843567,101.742798 
	C144.132523,100.537560 144.752380,99.610596 146.214569,98.831573 
	C146.854050,98.894638 147.087631,99.041931 147.155243,99.568741 
z"/>
<path fill="#E4CAA8" opacity="1.000000" stroke="none" 
	d="
M34.987053,112.638748 
	C34.375420,112.815163 33.860268,112.626602 33.174797,112.215759 
	C33.476021,111.426331 33.947563,110.859192 34.667759,110.160614 
	C34.972118,110.777374 35.027824,111.525574 34.987053,112.638748 
z"/>
<path fill="#B80403" opacity="1.000000" stroke="none" 
	d="
M40.522141,128.045593 
	C40.152538,127.873169 40.093372,127.691757 40.084854,127.227989 
	C41.056110,127.105209 41.976711,127.264771 42.897316,127.424339 
	C42.417480,128.331268 41.541271,127.901474 40.522141,128.045593 
z"/>
<path fill="#DBA986" opacity="1.000000" stroke="none" 
	d="
M134.477753,123.946487 
	C134.013077,124.042557 133.798172,124.030746 133.261719,123.991379 
	C133.310654,123.288826 133.707870,122.624596 134.588654,122.633148 
	C134.638840,122.633621 134.681412,123.418694 134.477753,123.946487 
z"/>
<path fill="#DED6B2" opacity="1.000000" stroke="none" 
	d="
M110.546860,99.051956 
	C110.977936,99.895325 110.982262,100.955917 109.932007,102.145020 
	C109.856758,101.398300 110.041237,100.345535 110.546860,99.051956 
z"/>
<path fill="#DFB895" opacity="1.000000" stroke="none" 
	d="
M71.848579,112.062317 
	C72.508148,111.884529 72.959785,111.908760 73.747116,111.986328 
	C73.344612,112.379036 72.606400,112.718407 71.596420,113.204880 
	C71.429993,112.989426 71.535316,112.626884 71.848579,112.062317 
z"/>
<path fill="#DCC09B" opacity="1.000000" stroke="none" 
	d="
M90.912003,106.278267 
	C91.017693,106.773323 91.024467,107.495964 91.023621,108.579613 
	C90.948372,108.129036 90.880737,107.317436 90.912003,106.278267 
z"/>
<path fill="#DED6B2" opacity="1.000000" stroke="none" 
	d="
M112.584244,95.005249 
	C113.388710,95.325676 113.463142,95.694473 112.392914,95.950516 
	C112.135208,95.667274 112.209488,95.386429 112.584244,95.005249 
z"/>
<path fill="#DFB895" opacity="1.000000" stroke="none" 
	d="
M97.208252,111.988022 
	C97.066208,111.675789 97.039375,111.135963 97.052521,110.191780 
	C97.169479,110.445091 97.246468,111.102760 97.208252,111.988022 
z"/>
<path fill="#E2C1A0" opacity="1.000000" stroke="none" 
	d="
M46.340969,16.562286 
	C46.556408,16.338099 47.026863,16.156519 47.755600,15.989647 
	C47.541248,16.204535 47.068619,16.404715 46.340969,16.562286 
z"/>
<path fill="#D40D0A" opacity="1.000000" stroke="none" 
	d="
M147.160706,150.955231 
	C146.938568,150.965591 147.070312,150.491180 147.116104,150.249329 
	C147.485275,150.208588 147.808655,150.409714 148.132034,150.610825 
	C147.882294,150.722168 147.632568,150.833511 147.160706,150.955231 
z"/>
<path fill="#DCC09B" opacity="1.000000" stroke="none" 
	d="
M147.252563,99.848335 
	C146.989273,99.948257 146.992706,99.476059 146.994553,99.239960 
	C146.874863,98.826469 146.753342,98.649063 146.749268,98.170486 
	C147.063324,97.780243 147.259918,97.691177 147.718750,97.791977 
	C147.980972,97.981850 148.181061,98.157944 148.283722,98.243904 
	C148.096191,98.802711 147.806030,99.275566 147.252563,99.848335 
z"/>
<path fill="#DED6B2" opacity="1.000000" stroke="none" 
	d="
M111.630295,96.872009 
	C111.714386,97.312225 111.523941,97.945641 111.056122,98.780846 
	C110.971092,98.343498 111.163422,97.704353 111.630295,96.872009 
z"/>
<path fill="#D9D2A9" opacity="1.000000" stroke="none" 
	d="
M39.989578,96.642708 
	C40.029160,97.064156 40.006729,97.241577 39.974510,97.686447 
	C39.680679,97.444725 39.396641,96.935562 39.122826,96.118576 
	C39.397888,96.006729 39.662727,96.202705 39.989578,96.642708 
z"/>
<path fill="#D9D2A9" opacity="1.000000" stroke="none" 
	d="
M39.175766,95.630928 
	C38.857468,95.454887 38.493408,94.960793 38.128143,94.141068 
	C38.461292,94.314583 38.795647,94.813728 39.175766,95.630928 
z"/>
<path fill="#690D10" opacity="1.000000" stroke="none" 
	d="
M118.065979,53.319962 
	C118.211075,53.273415 118.537819,53.369801 118.935791,53.728729 
	C118.759216,53.807484 118.506081,53.631359 118.065979,53.319962 
z"/>
<path fill="#E4CAA8" opacity="1.000000" stroke="none" 
	d="
M70.759537,98.177948 
	C71.019112,98.207222 71.117264,98.423576 71.175713,98.650169 
	C71.182304,98.675758 70.964973,98.759117 70.657028,98.841446 
	C70.503853,98.700821 70.545120,98.534439 70.759537,98.177948 
z"/>
<path fill="#E0C8A6" opacity="1.000000" stroke="none" 
	d="
M52.324638,104.083458 
	C52.259468,103.899529 52.448586,103.607201 52.867901,103.186172 
	C52.925041,103.363335 52.751984,103.669197 52.324638,104.083458 
z"/>
<path fill="#B80403" opacity="1.000000" stroke="none" 
	d="
M43.510033,130.526245 
	C43.470524,130.546356 43.549541,130.506134 43.510033,130.526245 
z"/>
<path fill="#D40D0A" opacity="1.000000" stroke="none" 
	d="
M111.818634,46.240246 
	C111.076843,45.362045 109.116562,44.563698 111.487480,43.993774 
	C113.127533,43.599541 114.402885,44.610332 115.598587,45.710709 
	C114.587006,47.191429 113.352859,46.778671 111.818634,46.240246 
z"/>
<path fill="#591010" opacity="1.000000" stroke="none" 
	d="
M97.937195,48.563686 
	C99.158768,49.375759 100.044716,50.243244 100.124062,51.964577 
	C98.054008,51.547863 96.624634,51.035721 97.937195,48.563686 
z"/>
<path fill="#690D10" opacity="1.000000" stroke="none" 
	d="
M106.054688,56.945194 
	C107.161835,57.740299 108.531960,58.385120 108.508492,60.104160 
	C106.882553,60.171532 106.422081,58.935280 105.659279,57.657288 
	C105.543022,57.380283 105.884277,57.090393 106.054688,56.945194 
z"/>
<path fill="#E0C8A6" opacity="1.000000" stroke="none" 
	d="
M44.571465,110.199081 
	C44.254715,109.737656 44.278667,109.617683 44.571465,110.199081 
z"/>
<path fill="#CB231E" opacity="1.000000" stroke="none" 
	d="
M166.080170,106.614319 
	C164.336166,106.938911 162.060760,107.730064 161.708984,106.340416 
	C161.202652,104.340080 161.880280,102.004974 164.222916,100.671478 
	C166.022141,102.274094 166.154022,104.302917 166.080170,106.614319 
z"/>
<path fill="#DCCBA6" opacity="1.000000" stroke="none" 
	d="
M166.104721,106.897781 
	C165.307999,105.138283 164.839249,103.346375 164.427231,101.139511 
	C166.020752,102.489952 168.753296,103.875870 166.104721,106.897781 
z"/>
<path fill="#D01816" opacity="1.000000" stroke="none" 
	d="
M75.447906,101.959778 
	C76.917297,102.224594 78.114487,104.309578 77.962112,105.715866 
	C77.819450,107.032455 77.060417,107.905930 75.812981,107.896492 
	C74.340958,107.885345 72.533813,107.820259 74.079971,105.420143 
	C74.680038,104.488640 74.905022,103.315498 75.447906,101.959778 
z"/>
<path fill="#DAC4A2" opacity="1.000000" stroke="none" 
	d="
M146.836426,97.838730 
	C147.038742,98.112450 147.023254,98.558372 147.009827,98.781120 
	C145.974167,99.800270 144.185226,100.431152 146.649902,101.992676 
	C148.012390,105.080727 148.530975,108.106422 147.036896,111.550705 
	C142.892838,114.262527 138.391571,113.800011 133.981400,113.964561 
	C131.851028,114.044037 130.993576,113.006462 131.000290,110.969345 
	C131.022141,104.343918 130.998703,97.718346 131.025162,91.092957 
	C131.029800,89.933006 131.165482,88.862274 132.488235,88.227943 
	C137.490646,85.829018 145.516708,88.944878 147.941010,94.645844 
	C147.225159,96.612511 145.904221,97.130371 143.862244,96.866112 
	C142.259872,96.271111 141.556091,95.010918 140.321777,94.483902 
	C139.394562,94.088013 138.197067,93.632416 137.666656,94.646461 
	C136.853226,96.201614 138.723602,96.317505 139.659302,97.287613 
	C140.314651,98.230217 140.682617,98.726585 141.692780,98.138741 
	C143.213745,97.253662 144.853821,96.584625 146.836426,97.838730 
z"/>
<path fill="#D6CAA3" opacity="1.000000" stroke="none" 
	d="
M147.274124,98.078537 
	C144.545258,97.611443 142.733597,99.615105 140.465439,99.901306 
	C139.175079,100.064125 138.403839,99.767624 139.841370,98.232910 
	C140.163345,96.656799 140.984772,95.963699 142.608337,95.864365 
	C144.432083,96.001213 145.937164,96.091469 147.645874,95.156647 
	C147.988525,95.749870 147.992661,96.494110 147.988876,97.610107 
	C147.980972,97.981850 147.509506,98.044632 147.274124,98.078537 
z"/>
<path fill="#CD1C16" opacity="1.000000" stroke="none" 
	d="
M143.016403,95.674934 
	C142.128586,96.553680 141.319229,97.125465 140.253571,97.853836 
	C138.389801,97.445930 135.628571,99.114883 135.457031,95.812935 
	C135.387207,94.468826 134.789902,92.456879 136.880325,92.166878 
	C139.534149,91.798698 142.283035,91.873993 143.016403,95.674934 
z"/>
<path fill="#D40D0A" opacity="1.000000" stroke="none" 
	d="
M136.717285,104.546570 
	C139.771515,104.273720 143.682831,102.817436 142.201782,108.443642 
	C139.411362,108.340240 135.336960,110.397438 136.717285,104.546570 
z"/>
<path fill="#B80403" opacity="1.000000" stroke="none" 
	d="
M136.589066,104.144073 
	C136.419220,107.669487 138.734360,108.089310 141.582825,108.440430 
	C139.855850,109.548668 137.616379,111.293884 135.703430,109.074860 
	C134.566345,107.755829 134.064743,105.551598 136.589066,104.144073 
z"/>
</svg>